<svg xmlns="http://www.w3.org/2000/svg" xmlns:xlink="http://www.w3.org/1999/xlink" contentStyleType="text/css" data-diagram-type="DESCRIPTION" height="1121px" preserveAspectRatio="none" style="width:3111px;height:1121px;background:#FFFFFF;" version="1.1" viewBox="0 0 3111 1121" width="3111px" zoomAndPan="magnify"><?plantuml 1.2026.5?><defs/><g><g class="title" data-source-line="1"><text fill="#000000" font-family="sans-serif" font-size="14" font-weight="700" lengthAdjust="spacing" textLength="433.1797" x="1335.5581" y="22.9951">Chamilo LMS 2.0 &#8212; Component Diagram (Logical View)</text></g><!--cluster Frontend--><g class="cluster" data-qualified-name="Frontend" data-source-line="12" id="ent0001"><path d="M8.5,437.9369 L81.7285,437.9369 A3.75,3.75 0 0 1 84.2285,440.4369 L91.2285,460.2338 L220.29,460.2338 A2.5,2.5 0 0 1 222.79,462.7338 L222.79,714.4369 A2.5,2.5 0 0 1 220.29,716.9369 L8.5,716.9369 A2.5,2.5 0 0 1 6,714.4369 L6,440.4369 A2.5,2.5 0 0 1 8.5,437.9369" fill="#EAF7EA" style="stroke:#000000;stroke-width:1.5;"/><line style="stroke:#000000;stroke-width:1.5;" x1="6" x2="91.2285" y1="460.2338" y2="460.2338"/><text fill="#000000" font-family="sans-serif" font-size="14" font-weight="700" lengthAdjust="spacing" textLength="72.2285" x="10" y="452.932">Frontend</text></g><!--cluster Web Entry Points--><g class="cluster" data-qualified-name="Web Entry Points" data-source-line="21" id="ent0005"><path d="M411.29,525.9369 L548.9199,525.9369 A3.75,3.75 0 0 1 551.4199,528.4369 L558.4199,548.2338 L590.25,548.2338 A2.5,2.5 0 0 1 592.75,550.7338 L592.75,802.4369 A2.5,2.5 0 0 1 590.25,804.9369 L411.29,804.9369 A2.5,2.5 0 0 1 408.79,802.4369 L408.79,528.4369 A2.5,2.5 0 0 1 411.29,525.9369" fill="#FFF4E6" style="stroke:#000000;stroke-width:1.5;"/><line style="stroke:#000000;stroke-width:1.5;" x1="408.79" x2="558.4199" y1="548.2338" y2="548.2338"/><text fill="#000000" font-family="sans-serif" font-size="14" font-weight="700" lengthAdjust="spacing" textLength="136.6299" x="412.79" y="540.932">Web Entry Points</text></g><!--cluster Symfony Application--><g class="cluster" data-qualified-name="Symfony Application" data-source-line="30" id="ent0009"><path d="M786.25,104.9369 L950.0205,104.9369 A3.75,3.75 0 0 1 952.5205,107.4369 L959.5205,127.2338 L2752.52,127.2338 A2.5,2.5 0 0 1 2755.02,129.7338 L2755.02,653.4369 A2.5,2.5 0 0 1 2752.52,655.9369 L786.25,655.9369 A2.5,2.5 0 0 1 783.75,653.4369 L783.75,107.4369 A2.5,2.5 0 0 1 786.25,104.9369" fill="#E8F4FF" style="stroke:#000000;stroke-width:1.5;"/><line style="stroke:#000000;stroke-width:1.5;" x1="783.75" x2="959.5205" y1="127.2338" y2="127.2338"/><text fill="#000000" font-family="sans-serif" font-size="14" font-weight="700" lengthAdjust="spacing" textLength="162.7705" x="787.75" y="119.932">Symfony Application</text></g><!--cluster Bundles (src/)--><g class="cluster" data-qualified-name="Symfony Application.Bundles .src.." data-source-line="32" id="ent0010"><path d="M1809.85,402.9369 L1920.4232,402.9369 A3.75,3.75 0 0 1 1922.9232,405.4369 L1929.9232,425.2338 L1954.47,425.2338 A2.5,2.5 0 0 1 1956.97,427.7338 L1956.97,629.4369 A2.5,2.5 0 0 1 1954.47,631.9369 L1809.85,631.9369 A2.5,2.5 0 0 1 1807.35,629.4369 L1807.35,405.4369 A2.5,2.5 0 0 1 1809.85,402.9369" fill="#E8F4FF" style="stroke:#000000;stroke-width:1.5;"/><line style="stroke:#000000;stroke-width:1.5;" x1="1807.35" x2="1929.9232" y1="425.2338" y2="425.2338"/><text fill="#000000" font-family="sans-serif" font-size="14" font-weight="700" lengthAdjust="spacing" textLength="109.5732" x="1811.35" y="417.932">Bundles (src/)</text></g><!--cluster API Layer--><g class="cluster" data-qualified-name="Symfony Application.API Layer" data-source-line="38" id="ent0014"><path d="M810.25,191.9369 L886.3223,191.9369 A3.75,3.75 0 0 1 888.8223,194.4369 L895.8223,214.2338 L1523.91,214.2338 A2.5,2.5 0 0 1 1526.41,216.7338 L1526.41,484.4369 A2.5,2.5 0 0 1 1523.91,486.9369 L810.25,486.9369 A2.5,2.5 0 0 1 807.75,484.4369 L807.75,194.4369 A2.5,2.5 0 0 1 810.25,191.9369" fill="#DDEEFF" style="stroke:#000000;stroke-width:1.5;"/><line style="stroke:#000000;stroke-width:1.5;" x1="807.75" x2="895.8223" y1="214.2338" y2="214.2338"/><text fill="#000000" font-family="sans-serif" font-size="14" font-weight="700" lengthAdjust="spacing" textLength="75.0723" x="811.75" y="206.932">API Layer</text></g><!--cluster Domain Services--><g class="cluster" data-qualified-name="Symfony Application.Domain Services" data-source-line="45" id="ent0019"><path d="M2213.01,147.9369 L2345.4582,147.9369 A3.75,3.75 0 0 1 2347.9582,150.4369 L2354.9582,170.2338 L2478.35,170.2338 A2.5,2.5 0 0 1 2480.85,172.7338 L2480.85,582.4369 A2.5,2.5 0 0 1 2478.35,584.9369 L2213.01,584.9369 A2.5,2.5 0 0 1 2210.51,582.4369 L2210.51,150.4369 A2.5,2.5 0 0 1 2213.01,147.9369" fill="#DDEEFF" style="stroke:#000000;stroke-width:1.5;"/><line style="stroke:#000000;stroke-width:1.5;" x1="2210.51" x2="2354.9582" y1="170.2338" y2="170.2338"/><text fill="#000000" font-family="sans-serif" font-size="14" font-weight="700" lengthAdjust="spacing" textLength="131.4482" x="2214.51" y="162.932">Domain Services</text></g><!--cluster Plugins (Legacy + Symfony bridges)--><g class="cluster" data-qualified-name="Plugins .Legacy . Symfony bridges." data-source-line="64" id="ent0030"><path d="M1249.63,770.9369 L1536.3038,770.9369 A3.75,3.75 0 0 1 1538.8038,773.4369 L1545.8038,793.2338 L2029.01,793.2338 A2.5,2.5 0 0 1 2031.51,795.7338 L2031.51,1047.4369 A2.5,2.5 0 0 1 2029.01,1049.9369 L1249.63,1049.9369 A2.5,2.5 0 0 1 1247.13,1047.4369 L1247.13,773.4369 A2.5,2.5 0 0 1 1249.63,770.9369" fill="#F3E8FF" style="stroke:#000000;stroke-width:1.5;"/><line style="stroke:#000000;stroke-width:1.5;" x1="1247.13" x2="1545.8038" y1="793.2338" y2="793.2338"/><text fill="#000000" font-family="sans-serif" font-size="14" font-weight="700" lengthAdjust="spacing" textLength="285.6738" x="1251.13" y="785.932">Plugins (Legacy + Symfony bridges)</text></g><!--entity FE_VUE--><g class="entity" data-qualified-name="Frontend.FE_VUE" data-source-line="13" id="ent0002"><rect fill="#F1F1F1" height="52.5938" rx="2.5" ry="2.5" style="stroke:#181818;stroke-width:0.5;" width="95.0518" x="66.87" y="560.6469"/><text fill="#000000" font-family="sans-serif" font-size="14" lengthAdjust="spacing" textLength="71.7773" x="76.87" y="583.642">Vue 3 SPA</text><text fill="#000000" font-family="sans-serif" font-size="14" lengthAdjust="spacing" textLength="75.0518" x="76.87" y="599.9389">assets/vue</text></g><!--entity FE_LEGACY_JS--><g class="entity" data-qualified-name="Frontend.FE_LEGACY_JS" data-source-line="14" id="ent0003"><rect fill="#F1F1F1" height="52.5938" rx="2.5" ry="2.5" style="stroke:#181818;stroke-width:0.5;" width="147.0938" x="40.85" y="648.6469"/><text fill="#000000" font-family="sans-serif" font-size="14" lengthAdjust="spacing" textLength="127.0938" x="50.85" y="671.642">Legacy JS bundles</text><text fill="#000000" font-family="sans-serif" font-size="14" lengthAdjust="spacing" textLength="111.1318" x="50.85" y="687.9389">assets/js/legacy</text></g><!--entity FE_TWIG--><g class="entity" data-qualified-name="Frontend.FE_TWIG" data-source-line="15" id="ent0004"><rect fill="#F1F1F1" height="52.5938" rx="2.5" ry="2.5" style="stroke:#181818;stroke-width:0.5;" width="184.7871" x="22" y="472.6469"/><text fill="#000000" font-family="sans-serif" font-size="14" lengthAdjust="spacing" textLength="110.7832" x="32" y="495.642">Twig Templates</text><text fill="#000000" font-family="sans-serif" font-size="14" lengthAdjust="spacing" textLength="164.7871" x="32" y="511.9389">(src/*/Resources/views)</text></g><!--entity ENTRY_SYMFONY--><g class="entity" data-qualified-name="Web Entry Points.ENTRY_SYMFONY" data-source-line="22" id="ent0006"><rect fill="#F1F1F1" height="52.5938" rx="2.5" ry="2.5" style="stroke:#181818;stroke-width:0.5;" width="151.9678" x="424.79" y="560.6469"/><text fill="#000000" font-family="sans-serif" font-size="14" lengthAdjust="spacing" textLength="116.4844" x="434.79" y="583.642">public/index.php</text><text fill="#000000" font-family="sans-serif" font-size="14" lengthAdjust="spacing" textLength="131.9678" x="434.79" y="599.9389">(Symfony runtime)</text></g><!--entity ENTRY_LEGACY--><g class="entity" data-qualified-name="Web Entry Points.ENTRY_LEGACY" data-source-line="23" id="ent0007"><rect fill="#F1F1F1" height="52.5938" rx="2.5" ry="2.5" style="stroke:#181818;stroke-width:0.5;" width="150.9014" x="425.32" y="648.6469"/><text fill="#000000" font-family="sans-serif" font-size="14" lengthAdjust="spacing" textLength="93.5361" x="435.32" y="671.642">public/main/*</text><text fill="#000000" font-family="sans-serif" font-size="14" lengthAdjust="spacing" textLength="130.9014" x="435.32" y="687.9389">(Legacy PHP tools)</text></g><!--entity ENTRY_PLUGIN--><g class="entity" data-qualified-name="Web Entry Points.ENTRY_PLUGIN" data-source-line="24" id="ent0008"><rect fill="#F1F1F1" height="52.5938" rx="2.5" ry="2.5" style="stroke:#181818;stroke-width:0.5;" width="148.3105" x="426.62" y="736.6469"/><text fill="#000000" font-family="sans-serif" font-size="14" lengthAdjust="spacing" textLength="101.8555" x="436.62" y="759.642">public/plugin/*</text><text fill="#000000" font-family="sans-serif" font-size="14" lengthAdjust="spacing" textLength="128.3105" x="436.62" y="775.9389">(Plugin entry files)</text></g><!--entity ORM--><g class="entity" data-qualified-name="Symfony Application.ORM" data-source-line="53" id="ent0025"><rect fill="#F1F1F1" height="36.2969" rx="2.5" ry="2.5" style="stroke:#181818;stroke-width:0.5;" width="116.9404" x="2287.21" y="603.7969"/><text fill="#000000" font-family="sans-serif" font-size="14" lengthAdjust="spacing" textLength="96.9404" x="2297.21" y="626.792">Doctrine ORM</text></g><!--entity MIGRATIONS--><g class="entity" data-qualified-name="Symfony Application.MIGRATIONS" data-source-line="54" id="ent0026"><rect fill="#F1F1F1" height="36.2969" rx="2.5" ry="2.5" style="stroke:#181818;stroke-width:0.5;" width="157.416" x="843.74" y="139.7969"/><text fill="#000000" font-family="sans-serif" font-size="14" lengthAdjust="spacing" textLength="137.416" x="853.74" y="162.792">Doctrine Migrations</text></g><!--entity FLYSYSTEM--><g class="entity" data-qualified-name="Symfony Application.FLYSYSTEM" data-source-line="55" id="ent0027"><rect fill="#F1F1F1" height="52.5938" rx="2.5" ry="2.5" style="stroke:#181818;stroke-width:0.5;" width="147.1689" x="2591.85" y="182.6469"/><text fill="#000000" font-family="sans-serif" font-size="14" lengthAdjust="spacing" textLength="70.8408" x="2601.85" y="205.642">Flysystem</text><text fill="#000000" font-family="sans-serif" font-size="14" lengthAdjust="spacing" textLength="127.1689" x="2601.85" y="221.9389">(oneup/flysystem)</text></g><!--entity B_CORE--><g class="entity" data-qualified-name="Symfony Application.Bundles .src...B_CORE" data-source-line="33" id="ent0011"><rect fill="#F1F1F1" height="36.2969" rx="2.5" ry="2.5" style="stroke:#181818;stroke-width:0.5;" width="101.4502" x="1831.44" y="508.7969"/><text fill="#000000" font-family="sans-serif" font-size="14" lengthAdjust="spacing" textLength="81.4502" x="1841.44" y="531.792">CoreBundle</text></g><!--entity B_COURSE--><g class="entity" data-qualified-name="Symfony Application.Bundles .src...B_COURSE" data-source-line="34" id="ent0012"><rect fill="#F1F1F1" height="36.2969" rx="2.5" ry="2.5" style="stroke:#181818;stroke-width:0.5;" width="117.6172" x="1823.35" y="437.7969"/><text fill="#000000" font-family="sans-serif" font-size="14" lengthAdjust="spacing" textLength="97.6172" x="1833.35" y="460.792">CourseBundle</text></g><!--entity B_LTI--><g class="entity" data-qualified-name="Symfony Application.Bundles .src...B_LTI" data-source-line="35" id="ent0013"><rect fill="#F1F1F1" height="36.2969" rx="2.5" ry="2.5" style="stroke:#181818;stroke-width:0.5;" width="85.9189" x="1839.2" y="579.7969"/><text fill="#000000" font-family="sans-serif" font-size="14" lengthAdjust="spacing" textLength="65.9189" x="1849.2" y="602.792">LtiBundle</text></g><!--entity API_PLATFORM--><g class="entity" data-qualified-name="Symfony Application.API Layer.API_PLATFORM" data-source-line="39" id="ent0015"><rect fill="#F1F1F1" height="52.5938" rx="2.5" ry="2.5" style="stroke:#181818;stroke-width:0.5;" width="197.3789" x="823.75" y="367.6469"/><text fill="#000000" font-family="sans-serif" font-size="14" lengthAdjust="spacing" textLength="85.8867" x="833.75" y="390.642">API Platform</text><text fill="#000000" font-family="sans-serif" font-size="14" lengthAdjust="spacing" textLength="177.3789" x="833.75" y="406.9389">(ApiResource operations)</text></g><!--entity API_CONTROLLERS--><g class="entity" data-qualified-name="Symfony Application.API Layer.API_CONTROLLERS" data-source-line="40" id="ent0016"><rect fill="#F1F1F1" height="52.5938" rx="2.5" ry="2.5" style="stroke:#181818;stroke-width:0.5;" width="227.874" x="1282.54" y="418.6469"/><text fill="#000000" font-family="sans-serif" font-size="14" lengthAdjust="spacing" textLength="161.1504" x="1292.54" y="441.642">Custom API Controllers</text><text fill="#000000" font-family="sans-serif" font-size="14" lengthAdjust="spacing" textLength="207.874" x="1292.54" y="457.9389">src/CoreBundle/Controller/Api</text></g><!--entity API_STATE--><g class="entity" data-qualified-name="Symfony Application.API Layer.API_STATE" data-source-line="41" id="ent0017"><rect fill="#F1F1F1" height="52.5938" rx="2.5" ry="2.5" style="stroke:#181818;stroke-width:0.5;" width="206.9902" x="1292.98" y="330.6469"/><text fill="#000000" font-family="sans-serif" font-size="14" lengthAdjust="spacing" textLength="186.9902" x="1302.98" y="353.642">State Providers/Processors</text><text fill="#000000" font-family="sans-serif" font-size="14" lengthAdjust="spacing" textLength="148.6885" x="1302.98" y="369.9389">src/CoreBundle/State</text></g><!--entity API_SECURITY--><g class="entity" data-qualified-name="Symfony Application.API Layer.API_SECURITY" data-source-line="42" id="ent0018"><rect fill="#F1F1F1" height="68.8906" rx="2.5" ry="2.5" style="stroke:#181818;stroke-width:0.5;" width="145.5215" x="1323.71" y="226.4969"/><text fill="#000000" font-family="sans-serif" font-size="14" lengthAdjust="spacing" textLength="100.9736" x="1333.71" y="249.492">Security Layer</text><text fill="#000000" font-family="sans-serif" font-size="14" lengthAdjust="spacing" textLength="125.5215" x="1333.71" y="265.7889">(Firewalls, Voters,</text><text fill="#000000" font-family="sans-serif" font-size="14" lengthAdjust="spacing" textLength="107.0303" x="1333.71" y="282.0857">Role hierarchy)</text></g><!--entity S_SETTINGS--><g class="entity" data-qualified-name="Symfony Application.Domain Services.S_SETTINGS" data-source-line="46" id="ent0020"><rect fill="#F1F1F1" height="52.5938" rx="2.5" ry="2.5" style="stroke:#181818;stroke-width:0.5;" width="238.3398" x="2226.51" y="428.6469"/><text fill="#000000" font-family="sans-serif" font-size="14" lengthAdjust="spacing" textLength="114.0781" x="2236.51" y="451.642">Settings System</text><text fill="#000000" font-family="sans-serif" font-size="14" lengthAdjust="spacing" textLength="218.3398" x="2236.51" y="467.9389">(Settings schemas + manager)</text></g><!--entity S_RESOURCES--><g class="entity" data-qualified-name="Symfony Application.Domain Services.S_RESOURCES" data-source-line="47" id="ent0021"><rect fill="#F1F1F1" height="52.5938" rx="2.5" ry="2.5" style="stroke:#181818;stroke-width:0.5;" width="195.1504" x="2248.11" y="182.6469"/><text fill="#000000" font-family="sans-serif" font-size="14" lengthAdjust="spacing" textLength="121.7959" x="2258.11" y="205.642">Resource System</text><text fill="#000000" font-family="sans-serif" font-size="14" lengthAdjust="spacing" textLength="175.1504" x="2258.11" y="221.9389">(ResourceNode/File/Link)</text></g><!--entity S_COURSES--><g class="entity" data-qualified-name="Symfony Application.Domain Services.S_COURSES" data-source-line="48" id="ent0022"><rect fill="#F1F1F1" height="36.2969" rx="2.5" ry="2.5" style="stroke:#181818;stroke-width:0.5;" width="183.3994" x="2253.98" y="357.7969"/><text fill="#000000" font-family="sans-serif" font-size="14" lengthAdjust="spacing" textLength="163.3994" x="2263.98" y="380.792">Course &amp; Session Logic</text></g><!--entity S_PLUGIN_HELPER--><g class="entity" data-qualified-name="Symfony Application.Domain Services.S_PLUGIN_HELPER" data-source-line="49" id="ent0023"><rect fill="#F1F1F1" height="52.5938" rx="2.5" ry="2.5" style="stroke:#181818;stroke-width:0.5;" width="222.8428" x="2234.26" y="516.6469"/><text fill="#000000" font-family="sans-serif" font-size="14" lengthAdjust="spacing" textLength="93.5908" x="2244.26" y="539.642">Plugin Helper</text><text fill="#000000" font-family="sans-serif" font-size="14" lengthAdjust="spacing" textLength="202.8428" x="2244.26" y="555.9389">(Plugin enablement/settings)</text></g><!--entity S_INTEGRATIONS--><g class="entity" data-qualified-name="Symfony Application.Domain Services.S_INTEGRATIONS" data-source-line="50" id="ent0024"><rect fill="#F1F1F1" height="52.5938" rx="2.5" ry="2.5" style="stroke:#181818;stroke-width:0.5;" width="220.4229" x="2235.47" y="270.6469"/><text fill="#000000" font-family="sans-serif" font-size="14" lengthAdjust="spacing" textLength="84.4375" x="2245.47" y="293.642">Integrations</text><text fill="#000000" font-family="sans-serif" font-size="14" lengthAdjust="spacing" textLength="200.4229" x="2245.47" y="309.9389">(BBB, Zoom, OnlyOffice, LTI)</text></g><!--entity PL_BASE--><g class="entity" data-qualified-name="Plugins .Legacy . Symfony bridges..PL_BASE" data-source-line="65" id="ent0031"><rect fill="#F1F1F1" height="52.5938" rx="2.5" ry="2.5" style="stroke:#181818;stroke-width:0.5;" width="266.6953" x="1748.82" y="888.6469"/><text fill="#000000" font-family="sans-serif" font-size="14" lengthAdjust="spacing" textLength="119.8818" x="1758.82" y="911.642">Plugin base class</text><text fill="#000000" font-family="sans-serif" font-size="14" lengthAdjust="spacing" textLength="246.6953" x="1758.82" y="927.9389">public/main/inc/lib/plugin.class.php</text></g><!--entity PL_MGR--><g class="entity" data-qualified-name="Plugins .Legacy . Symfony bridges..PL_MGR" data-source-line="66" id="ent0032"><rect fill="#F1F1F1" height="52.5938" rx="2.5" ry="2.5" style="stroke:#181818;stroke-width:0.5;" width="248.6074" x="1272.17" y="981.6469"/><text fill="#000000" font-family="sans-serif" font-size="14" lengthAdjust="spacing" textLength="108.6709" x="1282.17" y="1004.642">Plugin Manager</text><text fill="#000000" font-family="sans-serif" font-size="14" lengthAdjust="spacing" textLength="228.6074" x="1282.17" y="1020.9389">public/main/inc/lib/plugin.lib.php</text></g><!--entity PL_SUBS--><g class="entity" data-qualified-name="Plugins .Legacy . Symfony bridges..PL_SUBS" data-source-line="67" id="ent0033"><rect fill="#F1F1F1" height="52.5938" rx="2.5" ry="2.5" style="stroke:#181818;stroke-width:0.5;" width="266.6816" x="1263.13" y="805.6469"/><text fill="#000000" font-family="sans-serif" font-size="14" lengthAdjust="spacing" textLength="173.6943" x="1273.13" y="828.642">Plugin Event Subscribers</text><text fill="#000000" font-family="sans-serif" font-size="14" lengthAdjust="spacing" textLength="246.6816" x="1273.13" y="844.9389">public/plugin/*/src/EventSubscriber</text></g><!--entity PL_ENT--><g class="entity" data-qualified-name="Plugins .Legacy . Symfony bridges..PL_ENT" data-source-line="68" id="ent0034"><rect fill="#F1F1F1" height="52.5938" rx="2.5" ry="2.5" style="stroke:#181818;stroke-width:0.5;" width="192.9082" x="1300.02" y="893.6469"/><text fill="#000000" font-family="sans-serif" font-size="14" lengthAdjust="spacing" textLength="99.6885" x="1310.02" y="916.642">Plugin Entities</text><text fill="#000000" font-family="sans-serif" font-size="14" lengthAdjust="spacing" textLength="172.9082" x="1310.02" y="932.9389">public/plugin/*/src/Entity</text></g><!--entity DB--><g class="entity" data-qualified-name="DB" data-source-line="58" id="ent0028"><path d="M2599.41,53.2969 C2599.41,43.2969 2665.4373,43.2969 2665.4373,43.2969 C2665.4373,43.2969 2731.4647,43.2969 2731.4647,53.2969 L2731.4647,78.5938 C2731.4647,88.5938 2665.4373,88.5938 2665.4373,88.5938 C2665.4373,88.5938 2599.41,88.5938 2599.41,78.5938 L2599.41,53.2969" fill="#F2F2F2" style="stroke:#181818;stroke-width:0.5;"/><path d="M2599.41,53.2969 C2599.41,63.2969 2665.4373,63.2969 2665.4373,63.2969 C2665.4373,63.2969 2731.4647,63.2969 2731.4647,53.2969" fill="none" style="stroke:#181818;stroke-width:0.5;"/><text fill="#000000" font-family="sans-serif" font-size="14" lengthAdjust="spacing" textLength="112.0547" x="2609.41" y="80.292">MySQL/MariaDB</text></g><!--entity OBJ--><g class="entity" data-qualified-name="OBJ" data-source-line="59" id="ent0029"><path d="M2958.2458,179.1143 C2961.2175,172.7132 2965.3734,171.8635 2970.4315,176.8895 C2974.0808,170.4679 2980.0246,168.9186 2984.2706,176.2909 C2988.1461,170.5809 2992.2407,171.0324 2996.4412,175.9175 C2998.0721,170.9435 3002.6101,169.0073 3006.7521,173.0442 C3011.5109,167.475 3016.6311,166.4255 3020.9499,173.5368 C3024.9771,168.7795 3028.3305,169.1032 3031.3935,174.5259 C3034.6238,168.8266 3041.1481,167.7106 3044.663,174.2165 C3050.0897,168.5675 3054.196,170.2517 3057.3045,176.6492 C3061.0116,171.9343 3064.5003,171.8272 3068.3343,176.5001 C3073.1262,171.5988 3078.5101,172.7726 3080.2485,179.6015 C3089.6987,181.6939 3091.1931,188.1027 3085.1698,195.1065 C3092.4578,197.114 3096.1505,203.3221 3089.6775,209.6073 C3096.2959,216.5453 3092.8488,224.7373 3084.0877,226.6228 C3089.7739,233.0392 3088.717,238.5014 3079.9303,240.6186 C3078.6669,246.5219 3073.5818,248.2897 3069.0586,244.1461 C3066.3265,249.5916 3060.927,251.7273 3056.6556,245.829 C3053.2391,251.0776 3048.8547,251.7016 3045.0506,246.2494 C3041.4221,253.408 3036.4818,253.4552 3031.3951,247.804 C3028.878,253.7452 3023.9713,255.5105 3019.5627,249.7101 C3015.8081,256.4243 3010.0247,255.9991 3006.8428,249.1722 C3001.9461,254.3535 2997.1469,251.826 2994.9881,246.1758 C2991.222,251.6237 2985.3628,251.126 2982.6772,245.0241 C2979.0069,249.4806 2974.2655,248.7835 2971.8326,243.6281 C2967.4445,249.3389 2961.7621,248.1671 2958.9974,241.8898 C2950.5041,239.019 2948.0532,231.615 2955.7972,225.5618 C2946.5329,223.3906 2943.4828,217.489 2950.3682,209.7668 C2944.377,201.6941 2945.7253,196.2937 2955.8322,193.6932 C2949.4809,187.4058 2950.1777,183.0146 2958.2458,179.1143" fill="#F9F9F9" style="stroke:#181818;stroke-width:0.5;"/><text fill="#000000" font-family="sans-serif" font-size="14" lengthAdjust="spacing" textLength="104.8223" x="2965.02" y="197.492">Object Storage</text><text fill="#000000" font-family="sans-serif" font-size="14" lengthAdjust="spacing" textLength="107.8301" x="2965.02" y="213.7889">(S3/Azure/GCS)</text><text fill="#000000" font-family="sans-serif" font-size="14" lengthAdjust="spacing" textLength="67.6621" x="2965.02" y="230.0857">(optional)</text></g><!--link FE_VUE to ENTRY_SYMFONY--><g class="link" data-entity-1="ent0002" data-entity-2="ent0006" data-link-type="dependency" data-source-line="76" id="lnk35"><path d="M162.14,586.9369 C227.37,586.9369 341.41,586.9369 419.29,586.9369" fill="none" id="FE_VUE-to-ENTRY_SYMFONY" style="stroke:#181818;stroke-width:1;"/><polygon fill="#181818" points="424.29,586.9369,415.29,582.9369,419.29,586.9369,415.29,590.9369,424.29,586.9369" style="stroke:#181818;stroke-width:1;stroke-linejoin:miter;stroke-miterlimit:10;"/><text fill="#000000" font-family="sans-serif" font-size="13" lengthAdjust="spacing" textLength="98.0396" x="266.79" y="568.0038">loads SPA shell</text><text fill="#000000" font-family="sans-serif" font-size="13" lengthAdjust="spacing" textLength="53.8091" x="266.79" y="583.1366">calls API</text></g><!--link FE_LEGACY_JS to ENTRY_LEGACY--><g class="link" data-entity-1="ent0003" data-entity-2="ent0007" data-link-type="dependency" data-source-line="77" id="lnk36"><path d="M188.14,674.9369 C255.94,674.9369 351.59,674.9369 420.02,674.9369" fill="none" id="FE_LEGACY_JS-to-ENTRY_LEGACY" style="stroke:#181818;stroke-width:1;"/><polygon fill="#181818" points="425.02,674.9369,416.02,670.9369,420.02,674.9369,416.02,678.9369,425.02,674.9369" style="stroke:#181818;stroke-width:1;stroke-linejoin:miter;stroke-miterlimit:10;"/><text fill="#000000" font-family="sans-serif" font-size="13" lengthAdjust="spacing" textLength="146.8594" x="242.79" y="671.0038">supports legacy pages</text></g><!--link FE_TWIG to ENTRY_SYMFONY--><g class="link" data-entity-1="ent0004" data-entity-2="ent0006" data-link-type="dependency" data-source-line="78" id="lnk37"><path d="M207.22,510.4369 C261.7,518.3469 331.82,530.4269 392.79,546.9369 C406.38,550.6269 415.9584,553.6354 429.4984,558.5354" fill="none" id="FE_TWIG-to-ENTRY_SYMFONY" style="stroke:#181818;stroke-width:1;"/><polygon fill="#181818" points="434.2,560.2369,427.0983,553.413,429.4984,558.5354,424.376,560.9355,434.2,560.2369" style="stroke:#181818;stroke-width:1;stroke-linejoin:miter;stroke-miterlimit:10;"/><text fill="#000000" font-family="sans-serif" font-size="13" lengthAdjust="spacing" textLength="152.7119" x="239.79" y="497.0038">rendered by controllers</text><text fill="#000000" font-family="sans-serif" font-size="13" lengthAdjust="spacing" textLength="151.5503" x="239.79" y="512.1366">(layout + mount #app)</text></g><!--link ENTRY_SYMFONY to API_PLATFORM--><g class="link" data-entity-1="ent0006" data-entity-2="ent0015" data-link-type="dependency" data-source-line="81" id="lnk38"><path d="M527.83,560.4469 C548.3,540.8969 578.35,514.8469 608.75,497.9369 C676.38,460.3369 754.9994,434.7274 818.6694,417.7174" fill="none" id="ENTRY_SYMFONY-to-API_PLATFORM" style="stroke:#181818;stroke-width:1;"/><polygon fill="#181818" points="823.5,416.4269,813.7725,414.8854,818.6694,417.7174,815.8374,422.6143,823.5,416.4269" style="stroke:#181818;stroke-width:1;stroke-linejoin:miter;stroke-miterlimit:10;"/><text fill="#000000" font-family="sans-serif" font-size="13" lengthAdjust="spacing" textLength="157.9805" x="609.75" y="430.0038">routes /api + controllers</text></g><!--link ENTRY_SYMFONY to B_CORE--><g class="link" data-entity-1="ent0006" data-entity-2="ent0011" data-link-type="dependency" data-source-line="82" id="lnk39"><path d="M577.07,587.5369 C768.26,588.4169 1287.84,586.9069 1718.82,549.9369 C1756.68,546.6969 1794.2624,541.3646 1826.2924,536.2546" fill="none" id="ENTRY_SYMFONY-to-B_CORE" style="stroke:#181818;stroke-width:1;"/><polygon fill="#181818" points="1831.23,535.4669,1821.7122,532.9347,1826.2924,536.2546,1822.9726,540.8348,1831.23,535.4669" style="stroke:#181818;stroke-width:1;stroke-linejoin:miter;stroke-miterlimit:10;"/></g><!--link ENTRY_SYMFONY to B_COURSE--><g class="link" data-entity-1="ent0006" data-entity-2="ent0012" data-link-type="dependency" data-source-line="83" id="lnk40"><path d="M577.18,567.8469 C587.74,565.6069 598.48,563.5469 608.75,561.9369 C1016.54,498.1369 1123.15,521.9869 1534.41,486.9369 C1635.89,478.2969 1749.0208,468.0522 1817.9108,461.7522" fill="none" id="ENTRY_SYMFONY-to-B_COURSE" style="stroke:#181818;stroke-width:1;"/><polygon fill="#181818" points="1822.89,461.2969,1813.5631,458.1331,1817.9108,461.7522,1814.2917,466.0999,1822.89,461.2969" style="stroke:#181818;stroke-width:1;stroke-linejoin:miter;stroke-miterlimit:10;"/></g><!--link ENTRY_SYMFONY to B_LTI--><g class="link" data-entity-1="ent0006" data-entity-2="ent0013" data-link-type="dependency" data-source-line="84" id="lnk41"><path d="M577.16,612.0469 C587.71,615.2269 598.47,618.2969 608.75,620.9369 C802.89,670.9369 851.75,688.1169 1051.13,708.9369 C1276.01,732.4269 1333.72,713.6069 1559.82,714.9369 C1630.48,715.3569 1654.61,744.4669 1718.82,714.9369 C1737.43,706.3769 1733.26,693.2669 1748.82,679.9369 C1778.58,654.4369 1812.685,633.9009 1840.485,618.8209" fill="none" id="ENTRY_SYMFONY-to-B_LTI" style="stroke:#181818;stroke-width:1;"/><polygon fill="#181818" points="1844.88,616.4369,1835.0617,617.2122,1840.485,618.8209,1838.8762,624.2442,1844.88,616.4369" style="stroke:#181818;stroke-width:1;stroke-linejoin:miter;stroke-miterlimit:10;"/></g><!--link ENTRY_LEGACY to B_CORE--><g class="link" data-entity-1="ent0007" data-entity-2="ent0011" data-link-type="dependency" data-source-line="86" id="lnk42"><path d="M576.56,673.6469 C768.13,669.2069 1291.51,650.0969 1718.82,569.9369 C1732.38,567.3969 1735.48,565.4869 1748.82,561.9369 C1776.04,554.7169 1801.576,547.9546 1826.356,541.4046" fill="none" id="ENTRY_LEGACY-to-B_CORE" style="stroke:#181818;stroke-width:1;"/><polygon fill="#181818" points="1831.19,540.1269,1821.4666,538.5596,1826.356,541.4046,1823.511,546.294,1831.19,540.1269" style="stroke:#181818;stroke-width:1;stroke-linejoin:miter;stroke-miterlimit:10;"/><text fill="#000000" font-family="sans-serif" font-size="13" lengthAdjust="spacing" textLength="109.4907" x="1076.13" y="618.0038">legacy bootstrap</text><text fill="#000000" font-family="sans-serif" font-size="13" lengthAdjust="spacing" textLength="130.3047" x="1076.13" y="633.1366">(global.inc.php etc.)</text></g><!--link ENTRY_PLUGIN to PL_MGR--><g class="link" data-entity-1="ent0008" data-entity-2="ent0032" data-link-type="dependency" data-source-line="87" id="lnk43"><path d="M575.29,783.0969 C735.73,827.0769 1112.4879,930.365 1292.9179,979.825" fill="none" id="ENTRY_PLUGIN-to-PL_MGR" style="stroke:#181818;stroke-width:1;"/><polygon fill="#181818" points="1297.74,981.1469,1290.1177,974.9099,1292.9179,979.825,1288.0027,982.6252,1297.74,981.1469" style="stroke:#181818;stroke-width:1;stroke-linejoin:miter;stroke-miterlimit:10;"/><text fill="#000000" font-family="sans-serif" font-size="13" lengthAdjust="spacing" textLength="99.6772" x="872.94" y="838.0038">plugin dispatch</text></g><!--link API_PLATFORM to API_STATE--><g class="link" data-entity-1="ent0015" data-entity-2="ent0017" data-link-type="dependency" data-source-line="90" id="lnk44"><path d="M1021.54,386.2569 C1100.82,380.0369 1207.0953,371.7075 1287.6253,365.3975" fill="none" id="API_PLATFORM-to-API_STATE" style="stroke:#181818;stroke-width:1;"/><polygon fill="#181818" points="1292.61,365.0069,1283.325,361.7221,1287.6253,365.3975,1283.95,369.6977,1292.61,365.0069" style="stroke:#181818;stroke-width:1;stroke-linejoin:miter;stroke-miterlimit:10;"/><text fill="#000000" font-family="sans-serif" font-size="13" lengthAdjust="spacing" textLength="178.0771" x="1052.13" y="367.0038">provider/processor pipeline</text></g><!--link API_PLATFORM to API_CONTROLLERS--><g class="link" data-entity-1="ent0015" data-entity-2="ent0016" data-link-type="dependency" data-source-line="91" id="lnk45"><path d="M1021.38,405.5769 C1031.43,406.7269 1041.48,407.8669 1051.13,408.9369 C1128.2,417.4969 1210.0562,426.0561 1277.2462,432.9561" fill="none" id="API_PLATFORM-to-API_CONTROLLERS" style="stroke:#181818;stroke-width:1;"/><polygon fill="#181818" points="1282.22,433.4669,1273.6757,428.5684,1277.2462,432.9561,1272.8585,436.5265,1282.22,433.4669" style="stroke:#181818;stroke-width:1;stroke-linejoin:miter;stroke-miterlimit:10;"/><text fill="#000000" font-family="sans-serif" font-size="13" lengthAdjust="spacing" textLength="98.7949" x="1092.13" y="405.0038">custom actions</text></g><!--link API_PLATFORM to API_SECURITY--><g class="link" data-entity-1="ent0015" data-entity-2="ent0018" data-link-type="dependency" data-source-line="92" id="lnk46"><path d="M1013.45,367.2169 C1016.06,366.1569 1018.62,365.0569 1021.13,363.9369 C1035.34,357.6169 1036.76,351.8669 1051.13,345.9369 C1141.5,308.6669 1247.2874,285.8131 1318.3574,273.1631" fill="none" id="API_PLATFORM-to-API_SECURITY" style="stroke:#181818;stroke-width:1;"/><polygon fill="#181818" points="1323.28,272.2869,1313.7183,269.9259,1318.3574,273.1631,1315.1202,277.8021,1323.28,272.2869" style="stroke:#181818;stroke-width:1;stroke-linejoin:miter;stroke-miterlimit:10;"/><text fill="#000000" font-family="sans-serif" font-size="13" lengthAdjust="spacing" textLength="133.4468" x="1074.63" y="274.0038">security expressions</text><text fill="#000000" font-family="sans-serif" font-size="13" lengthAdjust="spacing" textLength="76.9209" x="1074.63" y="289.1366">voters/roles</text></g><!--link API_SECURITY to B_CORE--><g class="link" data-entity-1="ent0018" data-entity-2="ent0011" data-link-type="dependency" data-source-line="93" id="lnk47"><path d="M1469.56,283.2069 C1491.11,291.1969 1514.33,301.1969 1534.41,312.9369 C1641.56,375.6169 1638.54,434.9369 1748.82,491.9369 C1774.47,505.1969 1800.6848,512.7385 1826.3048,518.0685" fill="none" id="API_SECURITY-to-B_CORE" style="stroke:#181818;stroke-width:1;"/><polygon fill="#181818" points="1831.2,519.0869,1823.2034,513.3376,1826.3048,518.0685,1821.5739,521.1699,1831.2,519.0869" style="stroke:#181818;stroke-width:1;stroke-linejoin:miter;stroke-miterlimit:10;"/></g><!--link B_CORE to ORM--><g class="link" data-entity-1="ent0011" data-entity-2="ent0025" data-link-type="dependency" data-source-line="96" id="lnk48"><path d="M1933.26,536.3169 C1964.16,542.5469 2004.46,551.4969 2039.51,561.9369 C2043.15,563.0269 2043.86,563.9169 2047.51,564.9369 C2129.31,587.9469 2221.4367,603.8861 2281.8167,613.0561" fill="none" id="B_CORE-to-ORM" style="stroke:#181818;stroke-width:1;"/><polygon fill="#181818" points="2286.76,613.8069,2278.4626,608.5009,2281.8167,613.0561,2277.2614,616.4102,2286.76,613.8069" style="stroke:#181818;stroke-width:1;stroke-linejoin:miter;stroke-miterlimit:10;"/></g><!--link B_COURSE to ORM--><g class="link" data-entity-1="ent0012" data-entity-2="ent0025" data-link-type="dependency" data-source-line="97" id="lnk49"><path d="M1941.4,465.1569 C1971.28,470.8369 2007.93,479.2969 2039.51,490.9369 C2112.63,517.9169 2136.68,520.6969 2194.51,572.9369 C2199.27,577.2369 2197.29,581.2269 2202.51,584.9369 C2227.13,602.4669 2254.4959,610.8292 2282.0759,615.6892" fill="none" id="B_COURSE-to-ORM" style="stroke:#181818;stroke-width:1;"/><polygon fill="#181818" points="2287,616.5569,2278.8307,611.0557,2282.0759,615.6892,2277.4424,618.9343,2287,616.5569" style="stroke:#181818;stroke-width:1;stroke-linejoin:miter;stroke-miterlimit:10;"/></g><!--link B_LTI to ORM--><g class="link" data-entity-1="ent0013" data-entity-2="ent0025" data-link-type="dependency" data-source-line="98" id="lnk50"><path d="M1925.34,600.1369 C2008.23,604.4469 2187.4767,613.7673 2281.7267,618.6673" fill="none" id="B_LTI-to-ORM" style="stroke:#181818;stroke-width:1;"/><polygon fill="#181818" points="2286.72,618.9269,2277.9398,614.465,2281.7267,618.6673,2277.5245,622.4542,2286.72,618.9269" style="stroke:#181818;stroke-width:1;stroke-linejoin:miter;stroke-miterlimit:10;"/></g><!--link B_CORE to S_SETTINGS--><g class="link" data-entity-1="ent0011" data-entity-2="ent0020" data-link-type="dependency" data-source-line="100" id="lnk51"><path d="M1932.99,519.1669 C2002.68,508.2969 2126.4397,488.9874 2221.4597,474.1674" fill="none" id="B_CORE-to-S_SETTINGS" style="stroke:#181818;stroke-width:1;"/><polygon fill="#181818" points="2226.4,473.3969,2216.8911,470.8316,2221.4597,474.1674,2218.1239,478.736,2226.4,473.3969" style="stroke:#181818;stroke-width:1;stroke-linejoin:miter;stroke-miterlimit:10;"/></g><!--link B_CORE to S_RESOURCES--><g class="link" data-entity-1="ent0011" data-entity-2="ent0021" data-link-type="dependency" data-source-line="101" id="lnk52"><path d="M1933.11,529.9969 C1968.27,529.2069 2013.53,521.6969 2039.51,491.9369 C2053.3,476.1469 2034.64,414.4869 2047.51,397.9369 C2089.96,343.3469 2152.06,401.5369 2194.51,346.9369 C2207.38,330.3869 2189.36,269.2669 2202.51,252.9369 C2214.1,238.5469 2225.6297,230.5526 2242.9697,223.9226" fill="none" id="B_CORE-to-S_RESOURCES" style="stroke:#181818;stroke-width:1;"/><polygon fill="#181818" points="2247.64,222.1369,2237.805,221.6149,2242.9697,223.9226,2240.6621,229.0873,2247.64,222.1369" style="stroke:#181818;stroke-width:1;stroke-linejoin:miter;stroke-miterlimit:10;"/></g><!--link B_CORE to S_PLUGIN_HELPER--><g class="link" data-entity-1="ent0011" data-entity-2="ent0023" data-link-type="dependency" data-source-line="102" id="lnk53"><path d="M1932.99,528.6669 C2004.55,531.1469 2133.313,535.6134 2228.953,538.9334" fill="none" id="B_CORE-to-S_PLUGIN_HELPER" style="stroke:#181818;stroke-width:1;"/><polygon fill="#181818" points="2233.95,539.1069,2225.0942,534.797,2228.953,538.9334,2224.8166,542.7922,2233.95,539.1069" style="stroke:#181818;stroke-width:1;stroke-linejoin:miter;stroke-miterlimit:10;"/></g><!--link B_CORE to S_INTEGRATIONS--><g class="link" data-entity-1="ent0011" data-entity-2="ent0024" data-link-type="dependency" data-source-line="103" id="lnk54"><path d="M1933.03,529.9369 C1968.15,529.1069 2013.4,521.5769 2039.51,491.9369 C2052.05,477.7069 2033.92,420.1769 2047.51,406.9369 C2070.96,384.0869 2170.55,419.2469 2194.51,396.9369 C2213.23,379.5069 2185.87,359.3669 2202.51,339.9369 C2211.4,329.5569 2218.2091,323.835 2230.5491,317.795" fill="none" id="B_CORE-to-S_INTEGRATIONS" style="stroke:#181818;stroke-width:1;"/><polygon fill="#181818" points="2235.04,315.5969,2225.1979,315.9608,2230.5491,317.795,2228.7149,323.1462,2235.04,315.5969" style="stroke:#181818;stroke-width:1;stroke-linejoin:miter;stroke-miterlimit:10;"/></g><!--link B_COURSE to S_RESOURCES--><g class="link" data-entity-1="ent0012" data-entity-2="ent0021" data-link-type="dependency" data-source-line="104" id="lnk55"><path d="M1907.12,437.5169 C1958.62,398.6569 2084.75,307.4069 2202.51,252.9369 C2216.82,246.3269 2227.6474,241.9802 2243.0474,236.7302" fill="none" id="B_COURSE-to-S_RESOURCES" style="stroke:#181818;stroke-width:1;"/><polygon fill="#181818" points="2247.78,235.1169,2237.9707,234.2349,2243.0474,236.7302,2240.5521,241.807,2247.78,235.1169" style="stroke:#181818;stroke-width:1;stroke-linejoin:miter;stroke-miterlimit:10;"/><text fill="#000000" font-family="sans-serif" font-size="13" lengthAdjust="spacing" textLength="97.3604" x="2048.51" y="239.0038">course content</text><text fill="#000000" font-family="sans-serif" font-size="13" lengthAdjust="spacing" textLength="145.4946" x="2048.51" y="254.1366">links to ResourceNode</text></g><!--link B_LTI to S_INTEGRATIONS--><g class="link" data-entity-1="ent0013" data-entity-2="ent0024" data-link-type="dependency" data-source-line="105" id="lnk56"><path d="M1925.37,601.2769 C1961.53,601.5769 2012,595.4169 2039.51,562.9369 C2060.37,538.3169 2024.84,440.9069 2047.51,417.9369 C2070.51,394.6369 2170.8,430.5169 2194.51,407.9369 C2216.55,386.9569 2182.97,363.2769 2202.51,339.9369 C2211.37,329.3669 2218.2393,323.5253 2230.6793,317.4353" fill="none" id="B_LTI-to-S_INTEGRATIONS" style="stroke:#181818;stroke-width:1;"/><polygon fill="#181818" points="2235.17,315.2369,2225.3279,315.6015,2230.6793,317.4353,2228.8454,322.7867,2235.17,315.2369" style="stroke:#181818;stroke-width:1;stroke-linejoin:miter;stroke-miterlimit:10;"/></g><!--link ORM to DB--><g class="link" data-entity-1="ent0025" data-entity-2="ent0028" data-link-type="dependency" data-source-line="108" id="lnk57"><path d="M2404.39,622.4869 C2434.47,619.4469 2469.02,610.0669 2488.85,584.9369 C2502.65,567.4469 2486.39,203.6169 2496.85,183.9369 C2510.84,157.6269 2573.9488,117.7423 2618.8888,91.5823" fill="none" id="ORM-to-DB" style="stroke:#181818;stroke-width:1;"/><polygon fill="#181818" points="2623.21,89.0669,2613.4195,90.1377,2618.8888,91.5823,2617.4442,97.0516,2623.21,89.0669" style="stroke:#181818;stroke-width:1;stroke-linejoin:miter;stroke-miterlimit:10;"/></g><!--link MIGRATIONS to DB--><g class="link" data-entity-1="ent0026" data-entity-2="ent0028" data-link-type="dependency" data-source-line="109" id="lnk58"><path d="M1001.46,139.7169 C1094.66,119.5769 1255.55,89.9369 1395.47,89.9369 C1395.47,89.9369 1395.47,89.9369 2346.68,89.9369 C2434.23,89.9369 2529.9895,81.3092 2594.1495,74.3092" fill="none" id="MIGRATIONS-to-DB" style="stroke:#181818;stroke-width:1;"/><polygon fill="#181818" points="2599.12,73.7669,2589.7393,70.7666,2594.1495,74.3092,2590.6069,78.7194,2599.12,73.7669" style="stroke:#181818;stroke-width:1;stroke-linejoin:miter;stroke-miterlimit:10;"/></g><!--link S_RESOURCES to FLYSYSTEM--><g class="link" data-entity-1="ent0021" data-entity-2="ent0027" data-link-type="dependency" data-source-line="110" id="lnk59"><path d="M2443.74,208.9369 C2491.29,208.9369 2542.58,208.9369 2586.41,208.9369" fill="none" id="S_RESOURCES-to-FLYSYSTEM" style="stroke:#181818;stroke-width:1;"/><polygon fill="#181818" points="2591.41,208.9369,2582.41,204.9369,2586.41,208.9369,2582.41,212.9369,2591.41,208.9369" style="stroke:#181818;stroke-width:1;stroke-linejoin:miter;stroke-miterlimit:10;"/><text fill="#000000" font-family="sans-serif" font-size="13" lengthAdjust="spacing" textLength="63.8701" x="2497.85" y="205.0038">store files</text></g><!--link FLYSYSTEM to OBJ--><g class="link" data-entity-1="ent0027" data-entity-2="ent0029" data-link-type="dependency" data-source-line="111" id="lnk60"><path d="M2739.27,208.9369 C2801.1,208.9369 2884.18,208.9369 2944.67,208.9369" fill="none" id="FLYSYSTEM-to-OBJ" style="stroke:#181818;stroke-width:1;"/><polygon fill="#181818" points="2949.67,208.9369,2940.67,204.9369,2944.67,208.9369,2940.67,212.9369,2949.67,208.9369" style="stroke:#181818;stroke-width:1;stroke-linejoin:miter;stroke-miterlimit:10;"/><text fill="#000000" font-family="sans-serif" font-size="13" lengthAdjust="spacing" textLength="147.0308" x="2772.02" y="205.0038">optional cloud adapter</text></g><!--link PL_MGR to PL_BASE--><g class="link" data-entity-1="ent0032" data-entity-2="ent0031" data-link-type="dependency" data-source-line="114" id="lnk61"><path d="M1521.09,984.1769 C1590.65,970.7969 1672.6,955.0411 1743.58,941.3911" fill="none" id="PL_MGR-to-PL_BASE" style="stroke:#181818;stroke-width:1;"/><polygon fill="#181818" points="1748.49,940.4469,1738.8966,938.2185,1743.58,941.3911,1740.4073,946.0745,1748.49,940.4469" style="stroke:#181818;stroke-width:1;stroke-linejoin:miter;stroke-miterlimit:10;"/></g><!--link PL_SUBS to B_CORE--><g class="link" data-entity-1="ent0033" data-entity-2="ent0011" data-link-type="dependency" data-source-line="115" id="lnk62"><path d="M1512.27,805.2069 C1581.71,783.2769 1666.63,745.2369 1718.82,681.9369 C1753.79,639.5269 1710.21,601.0769 1748.82,561.9369 C1770.18,540.2869 1798.3059,532.1346 1826.0459,528.7946" fill="none" id="PL_SUBS-to-B_CORE" style="stroke:#181818;stroke-width:1;"/><polygon fill="#181818" points="1831.01,528.1969,1821.5964,525.3014,1826.0459,528.7946,1822.5527,533.2441,1831.01,528.1969" style="stroke:#181818;stroke-width:1;stroke-linejoin:miter;stroke-miterlimit:10;"/><text fill="#000000" font-family="sans-serif" font-size="13" lengthAdjust="spacing" textLength="157.7012" x="1560.82" y="678.0038">listen to Chamilo events</text></g><!--link PL_ENT to ORM--><g class="link" data-entity-1="ent0034" data-entity-2="ent0025" data-link-type="dependency" data-source-line="116" id="lnk63"><path d="M1482.37,893.2369 C1671.95,833.5869 2120.9505,692.3275 2282.0005,641.6575" fill="none" id="PL_ENT-to-ORM" style="stroke:#181818;stroke-width:1;"/><polygon fill="#181818" points="2286.77,640.1569,2276.9844,639.0423,2282.0005,641.6575,2279.3854,646.6736,2286.77,640.1569" style="stroke:#181818;stroke-width:1;stroke-linejoin:miter;stroke-miterlimit:10;"/><text fill="#000000" font-family="sans-serif" font-size="13" lengthAdjust="spacing" textLength="123.5825" x="1820.66" y="701.0038">entities discovered</text><text fill="#000000" font-family="sans-serif" font-size="13" lengthAdjust="spacing" textLength="97.5063" x="1820.66" y="716.1366">via plugin pass</text></g><!--link S_PLUGIN_HELPER to PL_MGR--><g class="link" data-entity-1="ent0023" data-entity-2="ent0032" data-link-type="dependency" data-source-line="117" id="lnk64"><path d="M2233.92,554.6569 C2222.51,559.1569 2211.74,565.1069 2202.51,572.9369 C2050.45,701.9269 2202.64,876.2669 2039.51,990.9369 C1875.09,1106.5269 1628.765,1068.9724 1494.515,1035.9124" fill="none" id="S_PLUGIN_HELPER-to-PL_MGR" style="stroke:#181818;stroke-width:1;"/><polygon fill="#181818" points="1489.66,1034.7169,1497.4425,1040.7529,1494.515,1035.9124,1499.3554,1032.9849,1489.66,1034.7169" style="stroke:#181818;stroke-width:1;stroke-linejoin:miter;stroke-miterlimit:10;"/><text fill="#000000" font-family="sans-serif" font-size="13" lengthAdjust="spacing" textLength="150.7314" x="1807.16" y="972.0038">check enabled/settings</text><text fill="#000000" font-family="sans-serif" font-size="13" lengthAdjust="spacing" textLength="99.4551" x="1807.16" y="987.1366">per access URL</text></g><?plantuml-src ZLV_Rjis4FvVJt58WIrkqsXeY_qei07-8ISkvDYpd1HPCWIqHDjiQ54WgQJQK60FiIVSa-oE4cqvJPiwGE2GTqVUTyVlkrXX9OV-ccs4L12F4tXr_0Fyzy-_q5URGkKyjp0GRANP1WvZjH8fat0X-7qd2Cojo0j6EmkMtgwqAlEihwJIy6pfFYqBisQPkXVv2fPC6jxQIVqvYQtmAfgdbkKhsJR9-9ALqixvHzkLOfLlw5QIBsr0ly0gq6Arjf09yXOg3uBluTSlVN1lg5LkUPvzrQp0fDYAmu6tFe1dKNVuKzI5lmE0gukImsj8fjthd1d3hGdlIludC0F3wERYF2ARcAzOMi6x11O8ZkHcQ_l1XD9jUeyuEkdsBs_U9UGtlnShcFDD8PabfqEZq_1vEED6bJhbU1IMm7Iyx_pzw2Juz5JM0ox57TSLXF2UBm11r5MXH6xDj-50JX4vmTHv8Hx3uV1Dz6EDHr4kf4X3aMVyut6nBl3MIRLPghm2NUPMR7Xzt-XiFhkyIIx7mydPPSjnmqGUFaUl1hJfwHHBgwHfkzKejRmAMQuQlwdxMkS5Iu5ejpsdyVd9wEnfb7gOBXOR-rzpy1bqlWqXds-tAF1kZ5gHckRduPlX4472QszDUtK_WAjifsq5-BcYqsiJbqBlfZ-PHNwhrERXvlaiQRPZA_Rsula8Dpxj7TwTZY1c5TTuxc0GHRjpQMUAJRTKUeEGTWlXUmvKmRLBgO4LJH7KxdmucOsRcvN6gWrj87fO1IKbrzYzbE8keN2t5sByRQp-1EiqYUDebjJX4elD3rEjxaI6SKByXgrlr2CXdUasKZBlpXiq4fwMMjYgJXSp6Y97t3CfpH5SA8jXZwxpcKBYMGjCJwVhQfTT4lNFPwFvvMVu3HGrAoHStmcyqcSe9jnQv3e3IMKi9o2tAoPTymt6Vm4RbcCmNH-Nu67p-UZifCbzY_esWbyvKnaFXzZTOIpoM-yzYnBiWNwKj7i4liCh6eCb0qVTZMtTBOrbysXEkImSFjj7n1QI4z66fhcwFwf-I3UdKJoDPdMG4VBZgcaEZD7hzOxW3wKsHp39PJLPBX6b8y1Ez356P_FePDQTZoPdYKVtQg1IgqNE0HlAsTMDjLiV2t-8snwFMY6kXh8o7YlKax88btwbuSduChbCvj6OE21ZbYqOGdGmhfBVut3Cj623tW4P3df8RA_e9qYbAZCuc2m-eB10OfN6ab4vNuVTlqhDmvD-qg432xeManqNOD9xXn5-eP-dsAQ1-rvfcS5XhGWl3IdXDr9E7G1vf67D5-19QA55ja8E99f-ZUnITwSlk4i-bQX6rtcRW4MUXb8i6buzTXR4vWx2QNpJwpgYyM76THD_DGP-RKSOdynQ0Q8x4lEaN9XKYuMZYmVC7j9RTsOxAnyhEUybxM0eCrRmByMWtSgxeYeyBGOpBkk6Mui2CHxm0gM1vocUyVNwj8OCca_QMbjF1_3ovM_xKWXlGIgM6HefS5xYKbxdAJ4LSL7GdX1QllKQkfgoA9Is1keUGgx2sWVDRF3eOPfIqJo3HOL3M8kk3oMhL6c9ed2ai_2C5KM7CefsML1IYrefW_t0T5HR6kWaZ8PI5x92OD3MMO-uDaht-8PJkSUsIEI2FKHsiGZN6fE5KjPOpMWqMKcrOF8OMvLw4xXDZpj1Ur9m4UfsnGXr8-64QGfcqpMXGJ8dILLmFjsrHR2NkmV3AHA5QSGiBBoMGI4AdCjo_hXZInJHFQq5bhaXzqj7DQ95FU75ZtyiT2q4MDux9tiXbg2vxTQZXJyDGavQzvDh42L38cTVazO2LcBxLzky9N1xgplXsblU5vczhJtjsBj1Ang1LMjWwbwXlSuHv5lNjsqbRTtuGMGYPyH9e83aAKcfgTa_y60FUi5EWVnA-mgqj1KTAeUbaT8Dfi5ktO65Wl4Ml8X0hJeiOmLMAjYgX0cQTcmwqr5nGu8F-jtTcdBr_zbnuayN07lS5mWjUSEOrDcfkYC-m0uHp3TyWVGVF2Z7_il0UIQzRUQ5R3ii80FZms0fDJcSp-B_0G00?></g></svg>