<svg xmlns="http://www.w3.org/2000/svg" xmlns:xlink="http://www.w3.org/1999/xlink" contentStyleType="text/css" data-diagram-type="DESCRIPTION" height="853px" preserveAspectRatio="none" style="width:2172px;height:853px;background:#FFFFFF;" version="1.1" viewBox="0 0 2172 853" width="2172px" zoomAndPan="magnify"><?plantuml 1.2026.5?><defs/><g><g class="title" data-source-line="1"><text fill="#000000" font-family="sans-serif" font-size="14" font-weight="700" lengthAdjust="spacing" textLength="396.1973" x="884.6814" y="22.9951">Chamilo LMS 2.0 &#8212; System Context (Logical View)</text></g><!--cluster EXT--><g class="cluster" data-qualified-name="EXT" data-source-line="22" id="ent0006"><rect fill="#F9F9F9" height="701" rx="5" ry="5" style="stroke:#181818;stroke-width:1;" width="224.02" x="1934.54" y="138.9469"/><text fill="#000000" font-family="sans-serif" font-size="14" font-weight="700" lengthAdjust="spacing" textLength="137.4229" x="1977.8386" y="153.942">External Systems</text></g><!--cluster CHAMILO--><g class="cluster" data-qualified-name="CHAMILO" data-source-line="33" id="ent0014"><rect fill="#E8F4FF" height="271" rx="5" ry="5" style="stroke:#181818;stroke-width:1;" width="1355.07" x="378.47" y="151.9469"/><text fill="#000000" font-family="sans-serif" font-size="14" font-weight="700" lengthAdjust="spacing" textLength="257.8857" x="927.0621" y="166.942">Chamilo LMS (System Boundary)</text></g><!--entity BBB--><g class="entity" data-qualified-name="EXT.BBB" data-source-line="23" id="ent0007"><path d="M1991.4419,182.4782 C1994.6162,177.415 1998.7823,177.1493 2002.7175,181.574 C2006.5303,176.4729 2009.6581,177.7144 2012.6251,182.4278 C2016.2141,175.2241 2020.4128,175.9734 2025.5602,180.7443 C2029.3178,175.9169 2033.3475,176.9751 2035.6199,182.2266 C2038.9212,176.8682 2045.2465,176.5513 2048.6414,182.115 C2052.091,176.6928 2056.0209,176.6397 2059.6685,181.911 C2063.089,176.2038 2068.5352,177.3637 2071.5672,182.3436 C2073.9701,177.5162 2079.3916,177.2617 2082.4868,181.5109 C2086.7077,176.5918 2090.1495,176.9873 2093.5354,182.4035 C2096.7223,176.2263 2102.2059,176.6068 2105.1556,182.6295 C2111.3747,185.4197 2110.7813,189.3475 2106.8524,193.6939 C2113.236,197.0733 2113.2296,201.4755 2107.5833,205.5936 C2112.4981,210.0881 2110.9622,213.9024 2105.6928,216.6565 C2112.1737,220.5763 2110.9702,226.5158 2105.2826,230.0633 C2102.2999,236.0034 2097.8692,236.6856 2094.1369,230.7679 C2091.1176,238.0511 2085.3199,237.3331 2081.1988,231.8878 C2079.296,236.6762 2074.26,237.6777 2070.893,233.5873 C2066.5349,240.125 2062.1826,240.2905 2058.2234,233.2161 C2056.5736,238.5039 2052.2497,240.3946 2047.9199,236.0968 C2042.4194,241.7835 2038.1289,240.9303 2035.1802,233.5995 C2032.2416,237.5608 2027.9138,238.0939 2025.4935,233.0425 C2021.122,238.2436 2015.4127,237.7091 2012.8373,231.1151 C2008.6887,235.4859 2004.4967,235.2556 2001.6731,229.6345 C1997.8972,234.7517 1992.0757,234.8513 1989.4382,228.4276 C1983.1085,227.2727 1981.9739,222.2925 1986.626,218.1365 C1981.5782,215.208 1980.504,211.0763 1985.0583,206.8178 C1980.6001,202.4286 1981.6861,197.3575 1987.3254,194.887 C1982.2035,189.6674 1983.6022,183.398 1991.4419,182.4782" fill="#F1F1F1" style="stroke:#181818;stroke-width:0.5;"/><text fill="#000000" font-family="sans-serif" font-size="14" lengthAdjust="spacing" textLength="100.2559" x="1996.42" y="201.642">BigBlueButton</text><text fill="#000000" font-family="sans-serif" font-size="14" lengthAdjust="spacing" textLength="84.9707" x="2004.0626" y="217.9389">(Video conf)</text></g><!--entity ZOOM--><g class="entity" data-qualified-name="EXT.ZOOM" data-source-line="24" id="ent0008"><path d="M1998.788,475.6548 C2002.1972,470.3865 2007.0281,470.1163 2010.1044,475.9928 C2014.8171,470.6824 2019.7199,469.2796 2023.7085,476.7627 C2026.4069,471.8943 2030.9139,471.6972 2034.197,476.1014 C2037.7323,470.4035 2044.0197,470.2476 2047.493,476.1724 C2050.7747,470.8495 2056.7707,470.309 2059.9338,476.3027 C2062.9989,470.1498 2068.9134,470.5666 2072.5623,475.6465 C2075.6402,469.1758 2081.0233,470.3027 2084.3186,475.426 C2088.0993,468.9509 2094.4689,470.0659 2097.7665,475.9516 C2103.961,479.311 2104.8565,484.6353 2099.0913,489.1914 C2104.4038,491.9212 2104.6179,496.8096 2099.6932,500.1041 C2104.6265,504.3274 2105.4901,508.7839 2098.6566,511.98 C2103.4919,516.6049 2103.1465,519.9907 2096.7554,522.6071 C2094.5709,528.9379 2089.1721,530.7476 2084.0662,525.9334 C2082.1907,531.9004 2076.8138,533.8169 2072.4806,528.4443 C2068.9722,534.6633 2063.9086,535.8316 2058.9312,530.1113 C2057.2551,536.938 2051.7384,537.6598 2047.5373,532.5145 C2042.5754,537.5606 2038.0439,536.0107 2035.554,529.8672 C2030.7816,534.7792 2026.1656,533.0687 2023.8318,527.2125 C2019.4303,532.4398 2014.9485,532.4366 2011.6148,526.0858 C2005.8396,532.6827 2000.4463,531.1332 1997.8681,523.0849 C1991.3658,520.5306 1990.2908,516.8376 1993.8794,510.9629 C1986.9512,510.1419 1985.6456,505.8007 1989.3137,500.3996 C1986.0722,495.4305 1988.0001,490.6368 1993.7389,489.2235 C1988.5978,482.2964 1989.7704,477.3132 1998.788,475.6548" fill="#F1F1F1" style="stroke:#181818;stroke-width:0.5;"/><text fill="#000000" font-family="sans-serif" font-size="14" lengthAdjust="spacing" textLength="40.3594" x="2026.3757" y="495.642">Zoom</text><text fill="#000000" font-family="sans-serif" font-size="14" lengthAdjust="spacing" textLength="84.9707" x="2004.07" y="511.9389">(Video conf)</text></g><!--entity OO--><g class="entity" data-qualified-name="EXT.OO" data-source-line="25" id="ent0009"><path d="M1994.344,573.9641 C1998.0062,567.1374 2004.901,565.5411 2009.1033,573.4221 C2011.7851,567.3182 2017.5684,567.1266 2020.7729,572.9089 C2026.1373,565.4098 2031.5339,567.6581 2035.4495,574.4018 C2037.9848,568.5588 2043.1722,567.1314 2047.472,572.5117 C2052.0239,565.5918 2057.3365,565.0563 2061.6398,572.7527 C2065.6728,566.8904 2071.1627,567.2991 2073.9795,573.9519 C2078.6058,567.6945 2083.0124,566.8619 2087.903,573.6702 C2092.6417,568.9948 2097.458,569.4917 2100.6077,575.5508 C2105.6964,578.1701 2106.5055,583.3386 2101.0525,586.3906 C2107.6253,587.351 2107.8648,593.1224 2104.3727,597.18 C2108.2289,602.4563 2108.5742,606.3577 2101.5967,609.1138 C2105.9234,612.6554 2106.7242,617.9712 2100.379,620.357 C2098.8807,627.8466 2091.9667,629.1159 2086.8402,624.3726 C2082.9446,631.5535 2078.4885,631.1744 2073.8059,625.1494 C2070.3697,632.5249 2066.0651,633.2773 2059.7537,628.4641 C2056.7107,633.6881 2051.5123,635.3662 2047.6926,629.2933 C2043.3442,634.5455 2037.2012,633.5332 2034.3513,627.5189 C2030.2327,632.8626 2025.262,632.1232 2021.7118,626.8428 C2015.3632,632.5066 2011.0794,630.5711 2008.7883,622.9082 C2004.0688,630.4893 1998.5786,628.3598 1994.3272,622.4079 C1987.584,619.1814 1986.9027,613.5825 1992.612,608.7878 C1986.3919,606.7349 1985.0476,603.4383 1989.7365,598.3734 C1984.0677,592.8448 1985.7733,588.3655 1992.7057,585.8166 C1986.6405,581.6405 1987.4231,576.3453 1994.344,573.9641" fill="#F1F1F1" style="stroke:#181818;stroke-width:0.5;"/><text fill="#000000" font-family="sans-serif" font-size="14" lengthAdjust="spacing" textLength="73.1445" x="2009.9804" y="593.642">OnlyOffice</text><text fill="#000000" font-family="sans-serif" font-size="14" lengthAdjust="spacing" textLength="90.9453" x="2001.08" y="609.9389">(Doc editing)</text></g><!--entity LTI--><g class="entity" data-qualified-name="EXT.LTI" data-source-line="26" id="ent0010"><path d="M1959.3783,672.7486 C1964.2839,665.6438 1969.0797,666.6627 1973.4161,673.3288 C1976.3003,667.1745 1981.0896,665.2235 1985.9114,671.3587 C1989.6251,664.9612 1995.2131,666.1331 1998.0655,672.1986 C2000.7704,667.3618 2006.1963,666.5583 2008.956,672.1414 C2012.4631,665.6034 2019.4663,664.6094 2023.0015,672.1132 C2026.4416,666.8509 2031.0846,667.3574 2034.1903,672.4737 C2037.9728,666.6399 2042.9747,664.672 2047.4835,671.7245 C2050.7119,664.7833 2057.1159,666.1429 2060.3227,671.7466 C2063.116,664.4823 2069.223,665.6669 2073.1897,670.4984 C2077.4341,665.3838 2081.4948,666.3015 2084.6628,671.6759 C2088.2632,666.0699 2093.6493,666.5791 2096.9176,672.0436 C2101.2998,665.8499 2106.1751,667.45 2109.8053,672.8775 C2113.5667,666.759 2119.6934,666.9658 2123.2928,673.0563 C2126.5148,667.2363 2132.5156,665.2753 2136.6507,672.0911 C2143.4023,673.9702 2145.3118,678.769 2140.093,684.0841 C2146.1247,685.388 2148.1798,689.9796 2144.3263,695.0868 C2149.8071,700.1448 2148.1351,704.3995 2141.6894,706.7645 C2144.8871,712.4791 2141.6442,718.2731 2134.9997,718.2605 C2131.8001,723.2577 2128.5833,724.7001 2124.096,719.6593 C2121.0202,726.7507 2116.0218,726.1011 2111.5244,721.1424 C2108.724,729.429 2103.2306,729.8828 2097.5197,724.024 C2092.8973,730.4806 2088.7701,730.5903 2084.6108,723.5801 C2082.3203,730.4267 2078.2375,731.3351 2073.0295,726.4635 C2069.1184,732.3954 2064.8137,732.6783 2061.137,726.2382 C2057.8297,734.1534 2051.8082,734.3658 2046.9073,727.8046 C2043.8317,732.3592 2038.5194,732.0108 2036.2702,726.8956 C2032.3459,732.5081 2025.8608,733.0795 2022.5143,726.2563 C2017.5014,731.5009 2012.0583,730.9487 2009.1543,723.9543 C2005.456,729.4491 1999.9556,728.4659 1997.619,722.5747 C1994.3982,728.6922 1988.6703,729.1491 1985.1069,722.922 C1979.1778,728.1543 1975.4348,726.8766 1972.6008,719.7819 C1968.0685,725.5439 1962.1856,725.3741 1958.7992,718.5275 C1947.4825,712.4076 1946.8334,703.537 1957.1151,695.8155 C1947.1988,687.0254 1948.2263,679.4717 1959.3783,672.7486" fill="#F1F1F1" style="stroke:#181818;stroke-width:0.5;"/><text fill="#000000" font-family="sans-serif" font-size="14" lengthAdjust="spacing" textLength="143.8623" x="1974.6215" y="691.642">LTI 1.3 Tool Provider</text><text fill="#000000" font-family="sans-serif" font-size="14" lengthAdjust="spacing" textLength="162.0254" x="1965.54" y="707.9389">(External learning tool)</text></g><!--entity HR--><g class="entity" data-qualified-name="EXT.HR" data-source-line="27" id="ent0011"><path d="M1968.4834,771.3972 C1971.2131,764.8694 1975.5641,764.9731 1979.9434,769.7206 C1983.4111,765.0289 1987.2001,763.6709 1991.0791,769.2757 C1994.6498,763.7495 1999.8006,764.9138 2002.743,769.9684 C2005.641,765.19 2009.1497,764.9405 2012.939,768.9323 C2016.5787,763.2567 2021.6411,762.0079 2025.6108,768.5913 C2028.4163,763.684 2033.4748,763.5484 2035.9224,768.9493 C2039.3259,764.0177 2043.9817,765.0235 2046.8032,769.6143 C2050.1733,763.3148 2054.6745,762.3703 2059.1958,768.4632 C2062.6175,764.1884 2067.1522,763.4216 2069.8903,769.191 C2074.6131,762.8887 2078.9794,764.5809 2082.5604,770.3859 C2085.3946,764.8018 2090.5134,765.8343 2093.1202,770.6175 C2097.0345,765.3604 2100.8365,765.2248 2104.5851,770.793 C2108.0597,764.826 2112.7237,765.3259 2115.9348,771.0488 C2119.1042,765.5093 2124.3655,764.4691 2128.0749,770.4813 C2135.3909,773.0416 2135.6927,777.1869 2130.7097,782.4538 C2136.329,785.1243 2138.5828,790.4673 2132.7799,795.0196 C2136.922,800.1137 2135.5902,804.301 2129.3113,806.1465 C2132.8517,810.9327 2133.1837,814.9764 2126.3296,816.8733 C2123.4459,821.9327 2119.4822,822.3003 2115.5741,818.0578 C2112.4741,823.8621 2106.8809,823.4534 2103.8963,817.9387 C2101.2045,823.7993 2097.1067,825.1101 2092.6124,819.7518 C2089.4252,823.9488 2085.7148,824.8625 2082.7361,819.5356 C2078.4831,826.6013 2074.6018,825.8936 2070.0141,819.8607 C2066.839,826.4104 2062.6385,825.3106 2058.4251,820.965 C2055.5128,825.8581 2051.0731,826.2236 2048.4053,820.7292 C2044.9282,826.9317 2039.2548,826.6943 2036.0963,820.4151 C2032.6215,826.818 2027.5851,825.8987 2024.3126,820.2178 C2020.9822,824.6152 2015.9909,824.9383 2013.9134,818.9618 C2010.5525,825.3309 2004.8476,825.2562 2001.6851,818.773 C1997.9565,824.5437 1993.7203,823.0509 1990.7148,818.0373 C1987.2326,823.7649 1983.623,823.1612 1979.6963,818.5091 C1975.4097,823.8039 1970.1088,823.2189 1967.5462,816.7314 C1961.5663,814.1958 1959.4623,810.332 1964.9494,805.2116 C1958.5804,803.456 1956.6446,798.5578 1960.7819,793.1669 C1956.8678,788.1052 1957.3857,784.2228 1963.3613,781.313 C1960.8382,775.9568 1961.6391,771.9145 1968.4834,771.3972" fill="#F1F1F1" style="stroke:#181818;stroke-width:0.5;"/><text fill="#000000" font-family="sans-serif" font-size="14" lengthAdjust="spacing" textLength="96.4072" x="1998.3453" y="789.642">HR / SIS / ERP</text><text fill="#000000" font-family="sans-serif" font-size="14" lengthAdjust="spacing" textLength="145.2979" x="1973.9" y="805.9389">(Enterprise systems)</text></g><!--entity NOTIFY--><g class="entity" data-qualified-name="EXT.NOTIFY" data-source-line="28" id="ent0012"><path d="M1972.8824,379.6543 C1977.0115,374.0884 1980.7707,372.6004 1985.673,378.8148 C1988.9745,372.7956 1992.5927,373.2007 1996.8002,377.8717 C1999.9742,371.5212 2006.6153,370.809 2010.6658,376.8945 C2014.7418,371.8621 2019.4081,372.6591 2021.853,378.5629 C2024.9017,370.9372 2031.5131,370.1703 2035.9241,377.2604 C2039.3996,372.0919 2043.7717,371.6308 2047.552,376.9216 C2051.5596,370.3673 2057.0155,370.2888 2060.4928,377.4229 C2064.158,370.9831 2069.5954,371.2408 2073.3246,377.3576 C2077.476,371.2243 2081.9566,371.6206 2085.4369,378.007 C2089.4098,372.2425 2093.6865,372.4342 2096.9332,378.701 C2100.5294,371.8401 2105.8009,371.2111 2110.5018,377.5669 C2114.8019,371.8261 2119.6887,371.4858 2123.1437,378.4104 C2130.13,380.412 2130.9375,384.5449 2126.3154,389.7837 C2131.3772,391.8323 2133.4001,397.0433 2128.4094,400.9731 C2135.147,405.8519 2132.3567,412.1173 2125.9672,414.6525 C2129.0513,418.876 2127.1156,423.3516 2122.1687,424.4668 C2119.6154,431.0934 2114.1324,432.2542 2109.8138,426.1847 C2106.8727,433.4247 2101.367,432.5406 2097.2254,427.406 C2093.8061,433.7184 2090.0676,434.0643 2085.8073,428.1942 C2082.4151,434.8023 2077.5444,433.5187 2073.6949,428.6779 C2069.1688,435.0024 2064.5458,434.7546 2060.517,428.1703 C2056.3721,435.2907 2051.3807,435.4872 2046.5851,428.8282 C2042.6767,434.0736 2038.4098,432.5216 2035.5505,427.6805 C2032.4873,433.6341 2026.836,433.9947 2023.4573,427.9997 C2019.1149,433.3036 2014.8664,433.8043 2010.5965,427.9163 C2006.3711,433.5619 2001.8071,434.0003 1998.2017,427.2942 C1994.333,433.9404 1988.2093,432.7255 1984.7004,426.9045 C1980.6409,431.8691 1976.6429,432.0359 1973.6709,425.8306 C1966.34,422.9464 1965.0468,418.0931 1971.4344,412.846 C1966.9392,409.1289 1966.739,406.1738 1972.0861,403.116 C1966.4986,399.4699 1966.8315,394.665 1972.4651,391.3812 C1967.2869,387.4928 1966.6959,383.1383 1972.8824,379.6543" fill="#F1F1F1" style="stroke:#181818;stroke-width:0.5;"/><text fill="#000000" font-family="sans-serif" font-size="14" lengthAdjust="spacing" textLength="136.0557" x="1978.52" y="397.642">Email/SMS Provider</text><text fill="#000000" font-family="sans-serif" font-size="14" lengthAdjust="spacing" textLength="110.0518" x="1991.522" y="413.9389">(Mailer/Notifier)</text></g><!--entity OBJ--><g class="entity" data-qualified-name="EXT.OBJ" data-source-line="29" id="ent0013"><path d="M1986.5809,279.8422 C1989.5515,273.5718 1995.2636,274.7363 1998.2579,279.8179 C2001.7359,274.4879 2006.9495,274.1755 2010.4011,279.847 C2013.4293,272.5204 2020.0307,272.2581 2023.7556,279.1946 C2027.361,273.2046 2030.8492,272.8698 2034.8421,278.8352 C2038.9385,273.029 2043.8454,272.8304 2047.8914,278.8906 C2051.7284,274.4556 2055.7332,273.3113 2059.2224,279.2698 C2062.7723,272.9252 2068.5779,274.1883 2071.809,279.6107 C2075.1192,273.5721 2080.2527,273.3546 2083.8747,279.2967 C2089.0082,273.8451 2092.8823,274.2576 2096.7709,280.6519 C2100.1658,275.3975 2105.7838,276.053 2108.4578,281.4433 C2113.3573,283.8158 2113.9288,287.7965 2109.9603,291.4946 C2115.5761,294.4867 2115.877,299.8128 2110.6758,303.4521 C2116.9573,307.8407 2116.5531,311.7838 2110.0094,315.4608 C2115.1931,320.804 2114.402,324.6608 2107.7283,327.8146 C2105.4313,332.8351 2100.5779,332.8748 2097.2913,328.972 C2092.9532,335.0336 2089.1895,334.1911 2084.8152,329.0122 C2080.9722,334.864 2075.9493,335.7982 2071.7352,329.4088 C2069.3455,335.0382 2063.5753,337.6767 2059.1523,331.5931 C2056.3452,337.674 2052.5895,338.5915 2048.1519,333.1496 C2043.5897,338.931 2038.4368,338.7145 2035.7015,331.4111 C2031.7242,338.4703 2026.6592,337.0332 2022.6703,331.4231 C2018.6878,337.0222 2013.1986,336.6182 2010.3094,330.29 C2006.1853,334.046 2002.3906,333.8891 1999.7113,328.5976 C1995.3615,334.157 1988.9476,334.1611 1986.0209,327.0589 C1978.8645,324.6571 1978.8292,319.8292 1983.3922,314.8948 C1977.7327,312.8609 1976.3714,309.3204 1979.8923,304.2641 C1975.7827,299.9982 1976.7483,294.158 1983.088,292.8067 C1977.4764,286.5533 1979.4747,282.6692 1986.5809,279.8422" fill="#F1F1F1" style="stroke:#181818;stroke-width:0.5;"/><text fill="#000000" font-family="sans-serif" font-size="14" lengthAdjust="spacing" textLength="104.8223" x="1994.1439" y="299.642">Object Storage</text><text fill="#000000" font-family="sans-serif" font-size="14" lengthAdjust="spacing" textLength="107.8301" x="1992.64" y="315.9389">(S3/Azure/GCS)</text></g><!--entity WEB--><g class="entity" data-qualified-name="CHAMILO.WEB" data-source-line="34" id="ent0015"><rect fill="#F1F1F1" height="52.5938" rx="5" ry="5" style="stroke:#181818;stroke-width:0.5;" width="166.0566" x="762.16" y="214.6469"/><text fill="#000000" font-family="sans-serif" font-size="14" lengthAdjust="spacing" textLength="50.1689" x="820.1038" y="237.642">Web UI</text><text fill="#000000" font-family="sans-serif" font-size="14" lengthAdjust="spacing" textLength="146.0566" x="772.16" y="253.9389">(Twig + Legacy PHP)</text></g><!--entity VUE--><g class="entity" data-qualified-name="CHAMILO.VUE" data-source-line="35" id="ent0016"><rect fill="#F1F1F1" height="52.5938" rx="5" ry="5" style="stroke:#181818;stroke-width:0.5;" width="159.3779" x="402.47" y="214.6469"/><text fill="#000000" font-family="sans-serif" font-size="14" lengthAdjust="spacing" textLength="45.7324" x="459.2928" y="237.642">SPA UI</text><text fill="#000000" font-family="sans-serif" font-size="14" lengthAdjust="spacing" textLength="139.3779" x="412.47" y="253.9389">(Vue 3 + PrimeVue)</text></g><!--entity API--><g class="entity" data-qualified-name="CHAMILO.API" data-source-line="36" id="ent0017"><rect fill="#F1F1F1" height="52.5938" rx="5" ry="5" style="stroke:#181818;stroke-width:0.5;" width="116.8105" x="786.78" y="325.6469"/><text fill="#000000" font-family="sans-serif" font-size="14" lengthAdjust="spacing" textLength="62.6104" x="813.8801" y="348.642">REST API</text><text fill="#000000" font-family="sans-serif" font-size="14" lengthAdjust="spacing" textLength="96.8105" x="796.78" y="364.9389">(API Platform)</text></g><!--entity AUTH--><g class="entity" data-qualified-name="CHAMILO.AUTH" data-source-line="37" id="ent0018"><rect fill="#F1F1F1" height="52.5938" rx="5" ry="5" style="stroke:#181818;stroke-width:0.5;" width="197.4199" x="1143.02" y="222.6469"/><text fill="#000000" font-family="sans-serif" font-size="14" lengthAdjust="spacing" textLength="90.7197" x="1196.3701" y="245.642">Auth &amp; Roles</text><text fill="#000000" font-family="sans-serif" font-size="14" lengthAdjust="spacing" textLength="177.4199" x="1153.02" y="261.9389">(Session + JWT + Voters)</text></g><!--entity CORE--><g class="entity" data-qualified-name="CHAMILO.CORE" data-source-line="38" id="ent0019"><rect fill="#F1F1F1" height="68.8906" rx="5" ry="5" style="stroke:#181818;stroke-width:0.5;" width="237.0273" x="1123.21" y="330.4969"/><text fill="#000000" font-family="sans-serif" font-size="14" lengthAdjust="spacing" textLength="96.1953" x="1193.626" y="353.492">Core Services</text><text fill="#000000" font-family="sans-serif" font-size="14" lengthAdjust="spacing" textLength="217.0273" x="1133.21" y="369.7889">(Courses, Sessions, Resources,</text><text fill="#000000" font-family="sans-serif" font-size="14" lengthAdjust="spacing" textLength="191.1738" x="1146.1368" y="386.0857">Tracking, Settings, Plugins)</text></g><!--entity DB--><g class="entity" data-qualified-name="CHAMILO.DB" data-source-line="39" id="ent0020"><path d="M1553.9,300.1469 C1553.9,290.1469 1625.3893,290.1469 1625.3893,290.1469 C1625.3893,290.1469 1696.8785,290.1469 1696.8785,300.1469 L1696.8785,341.7406 C1696.8785,351.7406 1625.3893,351.7406 1625.3893,351.7406 C1625.3893,351.7406 1553.9,351.7406 1553.9,341.7406 L1553.9,300.1469" fill="#F1F1F1" style="stroke:#181818;stroke-width:0.5;"/><path d="M1553.9,300.1469 C1553.9,310.1469 1625.3893,310.1469 1625.3893,310.1469 C1625.3893,310.1469 1696.8785,310.1469 1696.8785,300.1469" fill="none" style="stroke:#181818;stroke-width:0.5;"/><text fill="#000000" font-family="sans-serif" font-size="14" lengthAdjust="spacing" textLength="66.8008" x="1591.9889" y="327.142">Database</text><text fill="#000000" font-family="sans-serif" font-size="14" lengthAdjust="spacing" textLength="122.9785" x="1563.9" y="343.4389">(MySQL/MariaDB)</text></g><!--entity FS--><g class="entity" data-qualified-name="CHAMILO.FS" data-source-line="40" id="ent0021"><rect fill="#F1F1F1" height="52.5938" rx="5" ry="5" style="stroke:#181818;stroke-width:0.5;" width="168.2988" x="1541.24" y="202.6469"/><text fill="#000000" font-family="sans-serif" font-size="14" lengthAdjust="spacing" textLength="83.6719" x="1583.5535" y="225.642">File Storage</text><text fill="#000000" font-family="sans-serif" font-size="14" lengthAdjust="spacing" textLength="148.2988" x="1551.24" y="241.9389">(Flysystem adapters)</text></g><!--entity Admin--><g class="entity" data-qualified-name="Admin" data-source-line="14" id="ent0001"><ellipse cx="61.7321" cy="51.2969" fill="#F1F1F1" rx="8" ry="8" style="stroke:#181818;stroke-width:0.5;"/><path d="M61.7321,59.2969 L61.7321,86.2969 M48.7321,67.2969 L74.7321,67.2969 M61.7321,86.2969 L48.7321,101.2969 M61.7321,86.2969 L74.7321,101.2969" fill="none" style="stroke:#181818;stroke-width:0.5;"/><text fill="#000000" font-family="sans-serif" font-size="14" lengthAdjust="spacing" textLength="44.8643" x="39.3" y="115.792">Admin</text></g><!--entity Teacher--><g class="entity" data-qualified-name="Teacher" data-source-line="15" id="ent0002"><ellipse cx="61.7318" cy="299.2969" fill="#F1F1F1" rx="8" ry="8" style="stroke:#181818;stroke-width:0.5;"/><path d="M61.7318,307.2969 L61.7318,334.2969 M48.7318,315.2969 L74.7318,315.2969 M61.7318,334.2969 L48.7318,349.2969 M61.7318,334.2969 L74.7318,349.2969" fill="none" style="stroke:#181818;stroke-width:0.5;"/><text fill="#000000" font-family="sans-serif" font-size="14" lengthAdjust="spacing" textLength="56.6836" x="33.39" y="363.792">Teacher</text></g><!--entity Student--><g class="entity" data-qualified-name="Student" data-source-line="16" id="ent0003"><ellipse cx="61.7357" cy="411.2969" fill="#F1F1F1" rx="8" ry="8" style="stroke:#181818;stroke-width:0.5;"/><path d="M61.7357,419.2969 L61.7357,446.2969 M48.7357,427.2969 L74.7357,427.2969 M61.7357,446.2969 L48.7357,461.2969 M61.7357,446.2969 L74.7357,461.2969" fill="none" style="stroke:#181818;stroke-width:0.5;"/><text fill="#000000" font-family="sans-serif" font-size="14" lengthAdjust="spacing" textLength="55.1113" x="34.18" y="475.792">Student</text></g><!--entity DevOps--><g class="entity" data-qualified-name="DevOps" data-source-line="18" id="ent0004"><ellipse cx="61.7334" cy="166.1469" fill="#F1F1F1" rx="8" ry="8" style="stroke:#181818;stroke-width:0.5;"/><path d="M61.7334,174.1469 L61.7334,201.1469 M48.7334,182.1469 L74.7334,182.1469 M61.7334,201.1469 L48.7334,216.1469 M61.7334,201.1469 L74.7334,216.1469" fill="none" style="stroke:#181818;stroke-width:0.5;"/><text fill="#000000" font-family="sans-serif" font-size="14" lengthAdjust="spacing" textLength="72.2764" x="25.5952" y="230.642">IT/DevOps</text><text fill="#000000" font-family="sans-serif" font-size="14" lengthAdjust="spacing" textLength="111.4668" x="6" y="246.9389">(Hosting &amp; Ops)</text></g><!--entity ApiDev--><g class="entity" data-qualified-name="ApiDev" data-source-line="19" id="ent0005"><ellipse cx="482.1521" cy="525.1469" fill="#F1F1F1" rx="8" ry="8" style="stroke:#181818;stroke-width:0.5;"/><path d="M482.1521,533.1469 L482.1521,560.1469 M469.1521,541.1469 L495.1521,541.1469 M482.1521,560.1469 L469.1521,575.1469 M482.1521,560.1469 L495.1521,575.1469" fill="none" style="stroke:#181818;stroke-width:0.5;"/><text fill="#000000" font-family="sans-serif" font-size="14" lengthAdjust="spacing" textLength="134.7842" x="414.76" y="589.642">External Developer</text><text fill="#000000" font-family="sans-serif" font-size="14" lengthAdjust="spacing" textLength="108.9102" x="427.697" y="605.9389">(API Consumer)</text></g><!--link Admin to WEB--><g class="link" data-entity-1="ent0001" data-entity-2="ent0015" data-link-type="dependency" data-source-line="44" id="lnk22"><path d="M84.44,81.1669 C133.03,81.9169 254.18,85.1169 354.47,98.9469 C448.46,111.9069 471.77,118.4269 563.16,143.9469 C636.11,164.3269 713.0825,191.4768 769.4925,212.4168" fill="none" id="Admin-to-WEB" style="stroke:#181818;stroke-width:1;"/><polygon fill="#181818" points="774.18,214.1569,767.1346,207.2748,769.4925,212.4168,764.3505,214.7748,774.18,214.1569" style="stroke:#181818;stroke-width:1;stroke-linejoin:miter;stroke-miterlimit:10;"/><text fill="#000000" font-family="sans-serif" font-size="13" lengthAdjust="spacing" textLength="111.2363" x="426.8524" y="82.0138">Manage platform</text><text fill="#000000" font-family="sans-serif" font-size="13" lengthAdjust="spacing" textLength="160.6211" x="402.16" y="97.1466">(users, settings, plugins)</text></g><!--link Admin to VUE--><g class="link" data-entity-1="ent0001" data-entity-2="ent0016" data-link-type="dependency" data-source-line="45" id="lnk23"><path d="M84.44,98.2069 C100.83,110.3569 124.37,125.9969 147.47,134.9469 C234.54,168.6969 287.61,105.7569 354.47,170.9469 C367.45,183.6069 349.97,197.8069 362.47,210.9469 C373.09,222.1169 382.4411,227.8543 397.2311,232.5143" fill="none" id="Admin-to-VUE" style="stroke:#181818;stroke-width:1;"/><polygon fill="#181818" points="402,234.0169,394.6181,227.4971,397.2311,232.5143,392.2139,235.1274,402,234.0169" style="stroke:#181818;stroke-width:1;stroke-linejoin:miter;stroke-miterlimit:10;"/><text fill="#000000" font-family="sans-serif" font-size="13" lengthAdjust="spacing" textLength="114.1499" x="193.97" y="116.0138">Admin SPA pages</text><text fill="#000000" font-family="sans-serif" font-size="13" lengthAdjust="spacing" textLength="78.0762" x="212.0069" y="131.1466">(modern UI)</text></g><!--link Teacher to WEB--><g class="link" data-entity-1="ent0002" data-entity-2="ent0015" data-link-type="dependency" data-source-line="46" id="lnk24"><path d="M90.36,333.4069 C183.43,347.3869 493.16,385.1469 732.16,311.9469 C761.88,302.8469 787.4287,286.6217 808.6987,270.4617" fill="none" id="Teacher-to-WEB" style="stroke:#181818;stroke-width:1;"/><polygon fill="#181818" points="812.68,267.4369,803.0939,269.6965,808.6987,270.4617,807.9335,276.0665,812.68,267.4369" style="stroke:#181818;stroke-width:1;stroke-linejoin:miter;stroke-miterlimit:10;"/><text fill="#000000" font-family="sans-serif" font-size="13" lengthAdjust="spacing" textLength="125.4424" x="419.66" y="329.0138">Legacy tools/pages</text><text fill="#000000" font-family="sans-serif" font-size="13" lengthAdjust="spacing" textLength="107.0723" x="428.8451" y="344.1466">(if not migrated)</text></g><!--link Teacher to VUE--><g class="link" data-entity-1="ent0002" data-entity-2="ent0016" data-link-type="dependency" data-source-line="47" id="lnk25"><path d="M90.56,323.7669 C142.53,314.0069 257.84,291.9869 354.47,270.9469 C369.93,267.5769 381.5319,264.9576 397.3219,261.2576" fill="none" id="Teacher-to-VUE" style="stroke:#181818;stroke-width:1;"/><polygon fill="#181818" points="402.19,260.1169,392.5148,258.2757,397.3219,261.2576,394.3399,266.0647,402.19,260.1169" style="stroke:#181818;stroke-width:1;stroke-linejoin:miter;stroke-miterlimit:10;"/><text fill="#000000" font-family="sans-serif" font-size="13" lengthAdjust="spacing" textLength="98.3887" x="202.1743" y="252.0138">Course tools UI</text><text fill="#000000" font-family="sans-serif" font-size="13" lengthAdjust="spacing" textLength="205.7974" x="148.47" y="267.1466">(documents, assignments, etc.)</text></g><!--link Student to WEB--><g class="link" data-entity-1="ent0003" data-entity-2="ent0015" data-link-type="dependency" data-source-line="48" id="lnk26"><path d="M89.76,445.4269 C186.88,460.0069 523.48,497.0869 732.16,350.9469 C751.24,337.5769 746.31,325.0369 762.16,307.9469 C775.66,293.3869 788.4296,282.2647 803.2296,270.7047" fill="none" id="Student-to-WEB" style="stroke:#181818;stroke-width:1;"/><polygon fill="#181818" points="807.17,267.6269,797.615,270.0146,803.2296,270.7047,802.5394,276.3193,807.17,267.6269" style="stroke:#181818;stroke-width:1;stroke-linejoin:miter;stroke-miterlimit:10;"/><text fill="#000000" font-family="sans-serif" font-size="13" lengthAdjust="spacing" textLength="139.2168" x="412.8895" y="411.0138">Legacy learning tools</text><text fill="#000000" font-family="sans-serif" font-size="13" lengthAdjust="spacing" textLength="157.6758" x="403.66" y="426.1466">(LP/exercise player etc.)</text></g><!--link Student to VUE--><g class="link" data-entity-1="ent0003" data-entity-2="ent0016" data-link-type="dependency" data-source-line="49" id="lnk27"><path d="M89.62,436.5069 C154.98,425.1569 319.43,393.0569 354.47,351.9469 C371.35,332.1469 346.84,314.7569 362.47,293.9469 C372.56,280.4969 382.3579,272.6329 397.5179,265.0529" fill="none" id="Student-to-VUE" style="stroke:#181818;stroke-width:1;"/><polygon fill="#181818" points="401.99,262.8169,392.1513,263.2641,397.5179,265.0529,395.729,270.4195,401.99,262.8169" style="stroke:#181818;stroke-width:1;stroke-linejoin:miter;stroke-miterlimit:10;"/><text fill="#000000" font-family="sans-serif" font-size="13" lengthAdjust="spacing" textLength="74.3755" x="213.9424" y="333.0138">Learning UI</text><text fill="#000000" font-family="sans-serif" font-size="13" lengthAdjust="spacing" textLength="118.3203" x="191.97" y="348.1466">(modern sections)</text></g><!--link ApiDev to API--><g class="link" data-entity-1="ent0005" data-entity-2="ent0017" data-link-type="dependency" data-source-line="51" id="lnk28"><path d="M549.99,559.9669 C603.19,554.7869 677.53,541.0369 732.16,504.9469 C780.23,473.1869 812.7151,417.8396 829.8551,383.1496" fill="none" id="ApiDev-to-API" style="stroke:#181818;stroke-width:1;"/><polygon fill="#181818" points="832.07,378.6669,824.4971,384.9638,829.8551,383.1496,831.6694,388.5076,832.07,378.6669" style="stroke:#181818;stroke-width:1;stroke-linejoin:miter;stroke-miterlimit:10;"/><text fill="#000000" font-family="sans-serif" font-size="13" lengthAdjust="spacing" textLength="137.1602" x="594.16" y="486.0138">Calls REST endpoints</text><text fill="#000000" font-family="sans-serif" font-size="13" lengthAdjust="spacing" textLength="100.5532" x="612.4635" y="501.1466">(JSON/JSON-LD)</text></g><!--link DevOps to CHAMILO--><g class="link" data-entity-1="ent0004" data-entity-2="ent0014" data-link-type="dependency" data-source-line="52" id="lnk29"><path d="M117.88,206.1869 C127.73,206.4969 137.9,206.7769 147.47,206.9469 C239.45,208.5769 278.28,258.5269 354.47,206.9469 C362.39,201.5769 354.72,192.5769 362.47,186.9469 C365.1006,185.0337 367.8568,183.3257 370.7131,181.8049 C372.1413,181.0444 373.5945,180.3307 375.0695,179.6616 C375.807,179.327 376.55,179.0036 377.2981,178.691 C377.6721,178.5347 373.4063,180.2412 373.7828,180.0903" fill="none" id="DevOps-to-CHAMILO" style="stroke:#181818;stroke-width:1;"/><polygon fill="#181818" points="378.4239,178.2303,368.5818,177.8655,373.7828,180.0903,371.558,185.2913,378.4239,178.2303" style="stroke:#181818;stroke-width:1;stroke-linejoin:miter;stroke-miterlimit:10;"/><text fill="#000000" font-family="sans-serif" font-size="13" lengthAdjust="spacing" textLength="111.2617" x="195.364" y="188.0138">Deploy/configure</text><text fill="#000000" font-family="sans-serif" font-size="13" lengthAdjust="spacing" textLength="147.0498" x="177.47" y="203.1466">(runtime env, storage)</text></g><!--link WEB to AUTH--><g class="link" data-entity-1="ent0015" data-entity-2="ent0018" data-link-type="dependency" data-source-line="55" id="lnk30"><path d="M928.41,242.6169 C990.74,243.8769 1071.631,245.5153 1137.561,246.8553" fill="none" id="WEB-to-AUTH" style="stroke:#181818;stroke-width:1;"/><polygon fill="#181818" points="1142.56,246.9569,1133.6431,242.7748,1137.561,246.8553,1133.4806,250.7732,1142.56,246.9569" style="stroke:#181818;stroke-width:1;stroke-linejoin:miter;stroke-miterlimit:10;"/><text fill="#000000" font-family="sans-serif" font-size="13" lengthAdjust="spacing" textLength="133.1357" x="959.21" y="240.0138">login/session checks</text></g><!--link VUE to API--><g class="link" data-entity-1="ent0016" data-entity-2="ent0017" data-link-type="dependency" data-source-line="56" id="lnk31"><path d="M561.94,265.1669 C629.58,285.9669 720.7309,313.9871 781.5009,332.6771" fill="none" id="VUE-to-API" style="stroke:#181818;stroke-width:1;"/><polygon fill="#181818" points="786.28,334.1469,778.8535,327.6779,781.5009,332.6771,776.5018,335.3245,786.28,334.1469" style="stroke:#181818;stroke-width:1;stroke-linejoin:miter;stroke-miterlimit:10;"/><text fill="#000000" font-family="sans-serif" font-size="13" lengthAdjust="spacing" textLength="68.1675" x="628.8138" y="258.0138">Axios calls</text><text fill="#000000" font-family="sans-serif" font-size="13" lengthAdjust="spacing" textLength="82.4751" x="621.66" y="273.1466">(Bearer JWT)</text></g><!--link API to AUTH--><g class="link" data-entity-1="ent0017" data-entity-2="ent0018" data-link-type="dependency" data-source-line="57" id="lnk32"><path d="M903.98,336.8569 C966.58,320.5169 1062.7221,295.4198 1137.8021,275.8198" fill="none" id="API-to-AUTH" style="stroke:#181818;stroke-width:1;"/><polygon fill="#181818" points="1142.64,274.5569,1132.9215,272.9599,1137.8021,275.8198,1134.9422,280.7005,1142.64,274.5569" style="stroke:#181818;stroke-width:1;stroke-linejoin:miter;stroke-miterlimit:10;"/><text fill="#000000" font-family="sans-serif" font-size="13" lengthAdjust="spacing" textLength="92.7646" x="979.4703" y="270.0138">JWT validation</text><text fill="#000000" font-family="sans-serif" font-size="13" lengthAdjust="spacing" textLength="93.2852" x="979.21" y="285.1466">access control</text></g><!--link API to CORE--><g class="link" data-entity-1="ent0017" data-entity-2="ent0019" data-link-type="dependency" data-source-line="58" id="lnk33"><path d="M903.89,361.1669 C921.3,363.5469 940.49,365.7669 958.21,366.9469 C1012.17,370.5469 1067.051,370.7675 1117.741,369.7475" fill="none" id="API-to-CORE" style="stroke:#181818;stroke-width:1;"/><polygon fill="#181818" points="1122.74,369.6469,1113.6613,365.8287,1117.741,369.7475,1113.8223,373.8271,1122.74,369.6469" style="stroke:#181818;stroke-width:1;stroke-linejoin:miter;stroke-miterlimit:10;"/><text fill="#000000" font-family="sans-serif" font-size="13" lengthAdjust="spacing" textLength="83.3955" x="984.21" y="348.0138">domain logic</text><text fill="#000000" font-family="sans-serif" font-size="13" lengthAdjust="spacing" textLength="53.3394" x="999.2381" y="363.1466">services</text></g><!--link CORE to DB--><g class="link" data-entity-1="ent0019" data-entity-2="ent0020" data-link-type="dependency" data-source-line="59" id="lnk34"><path d="M1360.61,351.3569 C1423.79,344.0769 1494.553,335.92 1548.633,329.68" fill="none" id="CORE-to-DB" style="stroke:#181818;stroke-width:1;"/><polygon fill="#181818" points="1553.6,329.1069,1544.2008,326.1649,1548.633,329.68,1545.1178,334.1121,1553.6,329.1069" style="stroke:#181818;stroke-width:1;stroke-linejoin:miter;stroke-miterlimit:10;"/><text fill="#000000" font-family="sans-serif" font-size="13" lengthAdjust="spacing" textLength="100.0391" x="1400.74" y="332.0138">read/write data</text></g><!--link CORE to FS--><g class="link" data-entity-1="ent0019" data-entity-2="ent0021" data-link-type="dependency" data-source-line="60" id="lnk35"><path d="M1337.48,330.0369 C1355.01,323.6469 1373.17,317.0569 1390.24,310.9469 C1442.45,292.2469 1496.6477,273.2599 1542.3177,257.3699" fill="none" id="CORE-to-FS" style="stroke:#181818;stroke-width:1;"/><polygon fill="#181818" points="1547.04,255.7269,1537.2254,254.9065,1542.3177,257.3699,1539.8542,262.4622,1547.04,255.7269" style="stroke:#181818;stroke-width:1;stroke-linejoin:miter;stroke-miterlimit:10;"/><text fill="#000000" font-family="sans-serif" font-size="13" lengthAdjust="spacing" textLength="119.3359" x="1391.24" y="267.0138">store/retrieve files</text></g><!--link FS to OBJ--><g class="link" data-entity-1="ent0021" data-entity-2="ent0013" data-link-type="dependency" data-source-line="62" id="lnk36"><path d="M1709.95,243.6969 C1788.41,257.5469 1899.4161,277.1477 1972.4361,290.0377" fill="none" id="FS-to-OBJ" style="stroke:#181818;stroke-width:1;"/><polygon fill="#181818" points="1977.36,290.9069,1969.1924,285.4032,1972.4361,290.0377,1967.8017,293.2814,1977.36,290.9069" style="stroke:#181818;stroke-width:1;stroke-linejoin:miter;stroke-miterlimit:10;"/><text fill="#000000" font-family="sans-serif" font-size="13" lengthAdjust="spacing" textLength="159.6689" x="1758.54" y="234.0138">Optional remote storage</text><text fill="#000000" font-family="sans-serif" font-size="13" lengthAdjust="spacing" textLength="100.1279" x="1788.3105" y="249.1466">(S3/Azure/GCS)</text></g><!--link CORE to BBB--><g class="link" data-entity-1="ent0019" data-entity-2="ent0007" data-link-type="dependency" data-source-line="65" id="lnk37"><path d="M1311.16,330.1869 C1328.32,319.6169 1345.9,307.0269 1360.24,292.9469 C1377.92,275.5869 1371.18,261.7869 1390.24,245.9469 C1445.91,199.6869 1470.19,198.7569 1541.24,184.9469 C1696.92,154.6869 1879.6255,176.4102 1976.2155,192.2002" fill="none" id="CORE-to-BBB" style="stroke:#181818;stroke-width:1;"/><polygon fill="#181818" points="1981.15,193.0069,1972.9132,187.6073,1976.2155,192.2002,1971.6226,195.5025,1981.15,193.0069" style="stroke:#181818;stroke-width:1;stroke-linejoin:miter;stroke-miterlimit:10;"/><text fill="#000000" font-family="sans-serif" font-size="13" lengthAdjust="spacing" textLength="134.1133" x="1558.39" y="152.0138">create/join meetings</text><text fill="#000000" font-family="sans-serif" font-size="13" lengthAdjust="spacing" textLength="132.8374" x="1559.0279" y="167.1466">(webhooks callback)</text></g><!--link CORE to ZOOM--><g class="link" data-entity-1="ent0019" data-entity-2="ent0008" data-link-type="dependency" data-source-line="66" id="lnk38"><path d="M1360.38,399.7269 C1370.44,402.3169 1380.5,404.7569 1390.24,406.9469 C1608.83,455.9969 1869.6507,483.2428 1983.9107,493.6628" fill="none" id="CORE-to-ZOOM" style="stroke:#181818;stroke-width:1;"/><polygon fill="#181818" points="1988.89,494.1169,1980.2905,489.316,1983.9107,493.6628,1979.5639,497.283,1988.89,494.1169" style="stroke:#181818;stroke-width:1;stroke-linejoin:miter;stroke-miterlimit:10;"/><text fill="#000000" font-family="sans-serif" font-size="13" lengthAdjust="spacing" textLength="129.4033" x="1560.89" y="434.0138">meeting integration</text></g><!--link CORE to OO--><g class="link" data-entity-1="ent0019" data-entity-2="ent0009" data-link-type="dependency" data-source-line="67" id="lnk39"><path d="M1308.01,399.8369 C1333.36,412.8169 1362.84,427.2269 1390.24,438.9469 C1598.98,528.2369 1862.7277,572.2476 1980.6377,588.6576" fill="none" id="CORE-to-OO" style="stroke:#181818;stroke-width:1;"/><polygon fill="#181818" points="1985.59,589.3469,1977.2273,584.1445,1980.6377,588.6576,1976.1245,592.0681,1985.59,589.3469" style="stroke:#181818;stroke-width:1;stroke-linejoin:miter;stroke-miterlimit:10;"/><text fill="#000000" font-family="sans-serif" font-size="13" lengthAdjust="spacing" textLength="138.2773" x="1556.39" y="491.0138">open/edit documents</text></g><!--link CORE to LTI--><g class="link" data-entity-1="ent0019" data-entity-2="ent0010" data-link-type="dependency" data-source-line="68" id="lnk40"><path d="M1279.99,399.6769 C1309.09,426.1269 1351.03,462.8369 1390.24,491.9469 C1454.1,539.3469 1467.62,557.8869 1541.24,587.9469 C1677.34,643.5269 1841.4398,671.1973 1945.1298,684.3573" fill="none" id="CORE-to-LTI" style="stroke:#181818;stroke-width:1;"/><polygon fill="#181818" points="1950.09,684.9869,1941.6652,679.8855,1945.1298,684.3573,1940.658,687.8219,1950.09,684.9869" style="stroke:#181818;stroke-width:1;stroke-linejoin:miter;stroke-miterlimit:10;"/><text fill="#000000" font-family="sans-serif" font-size="13" lengthAdjust="spacing" textLength="81.3643" x="1585.0096" y="569.0138">LTI launches</text><text fill="#000000" font-family="sans-serif" font-size="13" lengthAdjust="spacing" textLength="102.6035" x="1574.39" y="584.1466">grade passback</text></g><!--link CORE to HR--><g class="link" data-entity-1="ent0019" data-entity-2="ent0011" data-link-type="dependency" data-source-line="69" id="lnk41"><path d="M1261.1,399.8369 C1286.19,445.3669 1334.47,525.9569 1390.24,582.9469 C1447.77,641.7369 1465.77,657.2369 1541.24,689.9469 C1679.81,750.0069 1850.2257,775.1509 1953.4457,785.6509" fill="none" id="CORE-to-HR" style="stroke:#181818;stroke-width:1;"/><polygon fill="#181818" points="1958.42,786.1569,1949.871,781.2666,1953.4457,785.6509,1949.0614,789.2255,1958.42,786.1569" style="stroke:#181818;stroke-width:1;stroke-linejoin:miter;stroke-miterlimit:10;"/><text fill="#000000" font-family="sans-serif" font-size="13" lengthAdjust="spacing" textLength="110.1763" x="1570.7999" y="671.0138">user/course sync</text><text fill="#000000" font-family="sans-serif" font-size="13" lengthAdjust="spacing" textLength="132.9961" x="1559.39" y="686.1466">(import/export / API)</text></g><!--link CORE to NOTIFY--><g class="link" data-entity-1="ent0019" data-entity-2="ent0012" data-link-type="dependency" data-source-line="70" id="lnk42"><path d="M1360.47,382.4469 C1415.28,389.7469 1481.45,397.3569 1541.24,400.9469 C1689.81,409.8769 1858.4522,407.096 1958.3522,404.116" fill="none" id="CORE-to-NOTIFY" style="stroke:#181818;stroke-width:1;"/><polygon fill="#181818" points="1963.35,403.9669,1954.2347,400.237,1958.3522,404.116,1954.4733,408.2334,1963.35,403.9669" style="stroke:#181818;stroke-width:1;stroke-linejoin:miter;stroke-miterlimit:10;"/><text fill="#000000" font-family="sans-serif" font-size="13" lengthAdjust="spacing" textLength="78.019" x="1586.8199" y="382.0138">send emails</text><text fill="#000000" font-family="sans-serif" font-size="13" lengthAdjust="spacing" textLength="79.8789" x="1585.89" y="397.1466">notifications</text></g><?plantuml-src TLRRRjj647tdLmmSe8tH9Cob3wqV2aYoL2cGGrLKd3R8ovfSqHkJkyJkqhPQ5EX7z0lx9Jt3fKHAIMo09dVkC-VCsYjVIfhSYagLXfPNARr-yPB---TVIdVEouecHdlvwEdfqXGg4oLTA_bm7aNVq_F33wL-1o_zGUJkbAw55HNTYEokiARH-SIKnjAJRVipq72t8ZSFIXUq5QMJ0ucLcHUwWEk_8g9rS6ArjFJgPVJtG36NMz6KVeD4HwKgT2MrfmmFQQEeb5jFtf1LnQsdNB5NPVH92QFC6-k6DGW-eRDHNYbzHi9H-xO_taYHtKhR2hhtlIZrJOxOhQXxZ_QonIQ-bFT9xJxfftFZF9Vz7U7xl5KFihtoz145QFGSnx8qjRIm6gqMF1JNLD86er6je71Ipy4spF6eihwlPwTghSFfxnjwClkPVzlEPwLfSZeRgs9SDdBSU6yqChbMkJIK6RqDUOp7urxvep7LLtG-9ibLhvJeSfTijogJKBqq6SbSSKk2RfBqcilDWbwzU4CROqfQMNCFlzoDG_wb55PpDpqqWZriUWVpDSMKBb8yf-iLMp8wQgkS91Tg3rRpTMyqhOGgunIi68IymfcqyJlZrLRjP_0ksIncVmmgk_cC9cFyneg2gqlVnAC_6olZNoTfLzxuBK1yF3N0M-wPDsQy2xlxnkI6d7rwOX82JEQZgyKoeIVJdsO_pcRjA0SEFiWRUhz0Qfi7LT0Fj9I5o7Qqcg-2-OVf-DWWNOs2mNKZwGqiLbPL4Xz1__hzz5X_FKqt1BXse5sLmc-DhJhGhXR7sgF6tu8AQrDA9aSgdGDB4UNjXmsUrmRZwaOqUh-P7nk7labx3oYnzSGqradtZ3etU5jBXqE8dttI6ukj1B2mt3FW85-LJQ5q5s6IhBcON7Xn8u2GiylkZUU_ItzRnbV2Ad4vxcXxqgaP43AO_QpS1OYHo4NTrp5Blm30lAc49iNO5EsQEY9kku5my0iFXoxeIcX4eBhhB48r3jwVaJkKLNTb3MmnADY6Rvvf3H_SjCe0u1eZFe-wZJO8rQ63sUNYlONQaZQUAbLOuML-R1V2X4a4ku2Ut6GDBsWa9p2SiAtn8NtsuZpg5kQNaOy8pi6NgrW-IfinWz617S9-wI8aiTpRjWbqTRfm3w0rKTYWhG4Z5LcB4kcs09Owhmq6mY7Vficxc1_FbvVdKLZMhTMUQXTOrNLfTZ5lF5M0xx2oZVOW2ZpTOp815QStw49tU-nRe-TUjFa1-mXJuZRMiUj8WfvdToxYOliQHe_AECgu4YGnHWlG8P09K81yu8i9TYzA1RGhNkmY0qiSBsrlJNdGPav0EpTOYhfD8FkaNSUvg9MosYNFp4gHnmzMUTbog9VEKaYv1pAsqbk5YussO8kB8eXO0siHAadDkQ0VLbPW_hvjfulqArraA9usxn0ULnISPqZFo_WpnagLb2rJuFb1tjmQSnTwnl-tdFU6V6_1ijDkfzG5wdKIdZzkQHtpDKO7dFSQV8jTjCzID1fJGrYuoG5WK853zhgui2w8wGmijHHoEvqnvwhQM0_eyn_SPXZF8Czm3t6FWLkIV7yXXcxlgYmqvdy0?></g></svg>