<svg xmlns="http://www.w3.org/2000/svg" xmlns:xlink="http://www.w3.org/1999/xlink" contentStyleType="text/css" data-diagram-type="CLASS" height="577px" preserveAspectRatio="none" style="width:1809px;height:577px;background:#FFFFFF;" version="1.1" viewBox="0 0 1809 577" width="1809px" zoomAndPan="magnify"><?plantuml 1.2026.5?><defs/><g><g class="title" data-source-line="1"><text fill="#000000" font-family="sans-serif" font-size="14" font-weight="700" lengthAdjust="spacing" textLength="470.873" x="665.6958" y="22.9951">Chamilo 2.0 &#8212; Key Data Model (Logical ER View, simplified)</text></g><!--class User--><g class="entity" data-qualified-name="User" data-source-line="14" id="ent0001"><rect fill="#F1F1F1" height="105.1875" rx="2.5" ry="2.5" style="stroke:#181818;stroke-width:0.5;" width="147.7754" x="627.7" y="44.2969"/><ellipse cx="681.3826" cy="60.2969" fill="#ADD1B2" rx="11" ry="11" style="stroke:#181818;stroke-width:1;"/><path d="M684.3514,65.9375 Q683.7732,66.2344 683.1326,66.375 Q682.492,66.5313 681.7889,66.5313 Q679.2889,66.5313 677.9607,64.8906 Q676.6482,63.2344 676.6482,60.1094 Q676.6482,56.9844 677.9607,55.3281 Q679.2889,53.6719 681.7889,53.6719 Q682.492,53.6719 683.1326,53.8281 Q683.7889,53.9844 684.3514,54.2813 L684.3514,57 Q683.7264,56.4219 683.1326,56.1563 Q682.5389,55.875 681.9139,55.875 Q680.5701,55.875 679.8826,56.9531 Q679.1951,58.0156 679.1951,60.1094 Q679.1951,62.2031 679.8826,63.2813 Q680.5701,64.3438 681.9139,64.3438 Q682.5389,64.3438 683.1326,64.0781 Q683.7264,63.7969 684.3514,63.2188 L684.3514,65.9375 Z " fill="#000000"/><text fill="#000000" font-family="sans-serif" font-size="14" lengthAdjust="spacing" textLength="31.9102" x="701.8826" y="65.1436">User</text><line style="stroke:#181818;stroke-width:0.5;" x1="628.7" x2="774.4754" y1="76.2969" y2="76.2969"/><text fill="#000000" font-family="sans-serif" font-size="14" lengthAdjust="spacing" textLength="56.376" x="633.7" y="93.292">+id : int</text><text fill="#000000" font-family="sans-serif" font-size="14" lengthAdjust="spacing" textLength="135.7754" x="633.7" y="109.5889">+username : string</text><text fill="#000000" font-family="sans-serif" font-size="14" lengthAdjust="spacing" textLength="104.1455" x="633.7" y="125.8857">+email : string</text><text fill="#000000" font-family="sans-serif" font-size="14" lengthAdjust="spacing" textLength="129.7598" x="633.7" y="142.1826">+roles : json/array</text></g><!--class Course--><g class="entity" data-qualified-name="Course" data-source-line="21" id="ent0002"><rect fill="#F1F1F1" height="88.8906" rx="2.5" ry="2.5" style="stroke:#181818;stroke-width:0.5;" width="111.2988" x="960.93" y="52.4469"/><ellipse cx="989.6198" cy="68.4469" fill="#ADD1B2" rx="11" ry="11" style="stroke:#181818;stroke-width:1;"/><path d="M992.5886,74.0875 Q992.0105,74.3844 991.3698,74.525 Q990.7292,74.6813 990.0261,74.6813 Q987.5261,74.6813 986.198,73.0406 Q984.8855,71.3844 984.8855,68.2594 Q984.8855,65.1344 986.198,63.4781 Q987.5261,61.8219 990.0261,61.8219 Q990.7292,61.8219 991.3698,61.9781 Q992.0261,62.1344 992.5886,62.4313 L992.5886,65.15 Q991.9636,64.5719 991.3698,64.3063 Q990.7761,64.025 990.1511,64.025 Q988.8073,64.025 988.1198,65.1031 Q987.4323,66.1656 987.4323,68.2594 Q987.4323,70.3531 988.1198,71.4313 Q988.8073,72.4938 990.1511,72.4938 Q990.7761,72.4938 991.3698,72.2281 Q991.9636,71.9469 992.5886,71.3688 L992.5886,74.0875 Z " fill="#000000"/><text fill="#000000" font-family="sans-serif" font-size="14" lengthAdjust="spacing" textLength="48.877" x="1006.662" y="73.2936">Course</text><line style="stroke:#181818;stroke-width:0.5;" x1="961.93" x2="1071.2288" y1="84.4469" y2="84.4469"/><text fill="#000000" font-family="sans-serif" font-size="14" lengthAdjust="spacing" textLength="56.376" x="966.93" y="101.442">+id : int</text><text fill="#000000" font-family="sans-serif" font-size="14" lengthAdjust="spacing" textLength="99.2988" x="966.93" y="117.7389">+code : string</text><text fill="#000000" font-family="sans-serif" font-size="14" lengthAdjust="spacing" textLength="92.9072" x="966.93" y="134.0357">+title : string</text></g><!--class Session--><g class="entity" data-qualified-name="Session" data-source-line="27" id="ent0003"><rect fill="#F1F1F1" height="105.1875" rx="2.5" ry="2.5" style="stroke:#181818;stroke-width:0.5;" width="134.9854" x="1282.09" y="44.2969"/><ellipse cx="1319.3962" cy="60.2969" fill="#ADD1B2" rx="11" ry="11" style="stroke:#181818;stroke-width:1;"/><path d="M1322.365,65.9375 Q1321.7868,66.2344 1321.1462,66.375 Q1320.5056,66.5313 1319.8025,66.5313 Q1317.3025,66.5313 1315.9743,64.8906 Q1314.6618,63.2344 1314.6618,60.1094 Q1314.6618,56.9844 1315.9743,55.3281 Q1317.3025,53.6719 1319.8025,53.6719 Q1320.5056,53.6719 1321.1462,53.8281 Q1321.8025,53.9844 1322.365,54.2813 L1322.365,57 Q1321.74,56.4219 1321.1462,56.1563 Q1320.5525,55.875 1319.9275,55.875 Q1318.5837,55.875 1317.8962,56.9531 Q1317.2087,58.0156 1317.2087,60.1094 Q1317.2087,62.2031 1317.8962,63.2813 Q1318.5837,64.3438 1319.9275,64.3438 Q1320.5525,64.3438 1321.1462,64.0781 Q1321.74,63.7969 1322.365,63.2188 L1322.365,65.9375 Z " fill="#000000"/><text fill="#000000" font-family="sans-serif" font-size="14" lengthAdjust="spacing" textLength="53.416" x="1338.3531" y="65.1436">Session</text><line style="stroke:#181818;stroke-width:0.5;" x1="1283.09" x2="1416.0754" y1="76.2969" y2="76.2969"/><text fill="#000000" font-family="sans-serif" font-size="14" lengthAdjust="spacing" textLength="56.376" x="1288.09" y="93.292">+id : int</text><text fill="#000000" font-family="sans-serif" font-size="14" lengthAdjust="spacing" textLength="105.2393" x="1288.09" y="109.5889">+name : string</text><text fill="#000000" font-family="sans-serif" font-size="14" lengthAdjust="spacing" textLength="122.9854" x="1288.09" y="125.8857">+startDate : date</text><text fill="#000000" font-family="sans-serif" font-size="14" lengthAdjust="spacing" textLength="116.751" x="1288.09" y="142.1826">+endDate : date</text></g><!--class CourseRelUser--><g class="entity" data-qualified-name="CourseRelUser" data-source-line="35" id="ent0004"><rect fill="#F1F1F1" height="72.5938" rx="2.5" ry="2.5" style="stroke:#181818;stroke-width:0.5;" width="253.9238" x="692.62" y="250.9269"/><ellipse cx="763.8231" cy="266.9269" fill="#ADD1B2" rx="11" ry="11" style="stroke:#181818;stroke-width:1;"/><path d="M766.7919,272.5675 Q766.2138,272.8644 765.5731,273.005 Q764.9325,273.1613 764.2294,273.1613 Q761.7294,273.1613 760.4013,271.5206 Q759.0888,269.8644 759.0888,266.7394 Q759.0888,263.6144 760.4013,261.9581 Q761.7294,260.3019 764.2294,260.3019 Q764.9325,260.3019 765.5731,260.4581 Q766.2294,260.6144 766.7919,260.9113 L766.7919,263.63 Q766.1669,263.0519 765.5731,262.7863 Q764.9794,262.505 764.3544,262.505 Q763.0106,262.505 762.3231,263.5831 Q761.6356,264.6456 761.6356,266.7394 Q761.6356,268.8331 762.3231,269.9113 Q763.0106,270.9738 764.3544,270.9738 Q764.9794,270.9738 765.5731,270.7081 Q766.1669,270.4269 766.7919,269.8488 L766.7919,272.5675 Z " fill="#000000"/><text fill="#000000" font-family="sans-serif" font-size="14" lengthAdjust="spacing" textLength="103.0176" x="784.3231" y="271.7736">CourseRelUser</text><line style="stroke:#181818;stroke-width:0.5;" x1="693.62" x2="945.5438" y1="282.9269" y2="282.9269"/><text fill="#000000" font-family="sans-serif" font-size="14" lengthAdjust="spacing" textLength="56.376" x="698.62" y="299.922">+id : int</text><text fill="#000000" font-family="sans-serif" font-size="14" lengthAdjust="spacing" textLength="241.9238" x="698.62" y="316.2189">+status : int  'teacher/student etc.</text></g><!--class SessionRelUser--><g class="entity" data-qualified-name="SessionRelUser" data-source-line="40" id="ent0005"><rect fill="#F1F1F1" height="56.2969" rx="2.5" ry="2.5" style="stroke:#181818;stroke-width:0.5;" width="139.5566" x="1096.81" y="259.0769"/><ellipse cx="1111.81" cy="275.0769" fill="#ADD1B2" rx="11" ry="11" style="stroke:#181818;stroke-width:1;"/><path d="M1114.7788,280.7175 Q1114.2006,281.0144 1113.56,281.155 Q1112.9194,281.3113 1112.2163,281.3113 Q1109.7163,281.3113 1108.3881,279.6706 Q1107.0756,278.0144 1107.0756,274.8894 Q1107.0756,271.7644 1108.3881,270.1081 Q1109.7163,268.4519 1112.2163,268.4519 Q1112.9194,268.4519 1113.56,268.6081 Q1114.2163,268.7644 1114.7788,269.0613 L1114.7788,271.78 Q1114.1538,271.2019 1113.56,270.9363 Q1112.9663,270.655 1112.3413,270.655 Q1110.9975,270.655 1110.31,271.7331 Q1109.6225,272.7956 1109.6225,274.8894 Q1109.6225,276.9831 1110.31,278.0613 Q1110.9975,279.1238 1112.3413,279.1238 Q1112.9663,279.1238 1113.56,278.8581 Q1114.1538,278.5769 1114.7788,277.9988 L1114.7788,280.7175 Z " fill="#000000"/><text fill="#000000" font-family="sans-serif" font-size="14" lengthAdjust="spacing" textLength="107.5566" x="1125.81" y="279.9236">SessionRelUser</text><line style="stroke:#181818;stroke-width:0.5;" x1="1097.81" x2="1235.3666" y1="291.0769" y2="291.0769"/><text fill="#000000" font-family="sans-serif" font-size="14" lengthAdjust="spacing" textLength="56.376" x="1102.81" y="308.072">+id : int</text></g><!--class SessionRelCourse--><g class="entity" data-qualified-name="SessionRelCourse" data-source-line="44" id="ent0006"><rect fill="#F1F1F1" height="56.2969" rx="2.5" ry="2.5" style="stroke:#181818;stroke-width:0.5;" width="156.5234" x="1271.32" y="259.0769"/><ellipse cx="1286.32" cy="275.0769" fill="#ADD1B2" rx="11" ry="11" style="stroke:#181818;stroke-width:1;"/><path d="M1289.2888,280.7175 Q1288.7106,281.0144 1288.07,281.155 Q1287.4294,281.3113 1286.7263,281.3113 Q1284.2263,281.3113 1282.8981,279.6706 Q1281.5856,278.0144 1281.5856,274.8894 Q1281.5856,271.7644 1282.8981,270.1081 Q1284.2263,268.4519 1286.7263,268.4519 Q1287.4294,268.4519 1288.07,268.6081 Q1288.7263,268.7644 1289.2888,269.0613 L1289.2888,271.78 Q1288.6638,271.2019 1288.07,270.9363 Q1287.4763,270.655 1286.8513,270.655 Q1285.5075,270.655 1284.82,271.7331 Q1284.1325,272.7956 1284.1325,274.8894 Q1284.1325,276.9831 1284.82,278.0613 Q1285.5075,279.1238 1286.8513,279.1238 Q1287.4763,279.1238 1288.07,278.8581 Q1288.6638,278.5769 1289.2888,277.9988 L1289.2888,280.7175 Z " fill="#000000"/><text fill="#000000" font-family="sans-serif" font-size="14" lengthAdjust="spacing" textLength="124.5234" x="1300.32" y="279.9236">SessionRelCourse</text><line style="stroke:#181818;stroke-width:0.5;" x1="1272.32" x2="1426.8434" y1="291.0769" y2="291.0769"/><text fill="#000000" font-family="sans-serif" font-size="14" lengthAdjust="spacing" textLength="56.376" x="1277.32" y="308.072">+id : int</text></g><!--class SessionRelCourseRelUser--><g class="entity" data-qualified-name="SessionRelCourseRelUser" data-source-line="48" id="ent0007"><rect fill="#F1F1F1" height="56.2969" rx="2.5" ry="2.5" style="stroke:#181818;stroke-width:0.5;" width="210.6641" x="826.25" y="465.7069"/><ellipse cx="841.25" cy="481.7069" fill="#ADD1B2" rx="11" ry="11" style="stroke:#181818;stroke-width:1;"/><path d="M844.2188,487.3475 Q843.6406,487.6444 843,487.785 Q842.3594,487.9413 841.6563,487.9413 Q839.1563,487.9413 837.8281,486.3006 Q836.5156,484.6444 836.5156,481.5194 Q836.5156,478.3944 837.8281,476.7381 Q839.1563,475.0819 841.6563,475.0819 Q842.3594,475.0819 843,475.2381 Q843.6563,475.3944 844.2188,475.6913 L844.2188,478.41 Q843.5938,477.8319 843,477.5663 Q842.4063,477.285 841.7813,477.285 Q840.4375,477.285 839.75,478.3631 Q839.0625,479.4256 839.0625,481.5194 Q839.0625,483.6131 839.75,484.6913 Q840.4375,485.7538 841.7813,485.7538 Q842.4063,485.7538 843,485.4881 Q843.5938,485.2069 844.2188,484.6288 L844.2188,487.3475 Z " fill="#000000"/><text fill="#000000" font-family="sans-serif" font-size="14" lengthAdjust="spacing" textLength="178.6641" x="855.25" y="486.5536">SessionRelCourseRelUser</text><line style="stroke:#181818;stroke-width:0.5;" x1="827.25" x2="1035.9141" y1="497.7069" y2="497.7069"/><text fill="#000000" font-family="sans-serif" font-size="14" lengthAdjust="spacing" textLength="56.376" x="832.25" y="514.702">+id : int</text></g><!--class ResourceType--><g class="entity" data-qualified-name="ResourceType" data-source-line="55" id="ent0008"><rect fill="#F1F1F1" height="72.5938" rx="2.5" ry="2.5" style="stroke:#181818;stroke-width:0.5;" width="282.4502" x="261.36" y="60.5869"/><ellipse cx="348.5968" cy="76.5869" fill="#ADD1B2" rx="11" ry="11" style="stroke:#181818;stroke-width:1;"/><path d="M351.5656,82.2275 Q350.9874,82.5244 350.3468,82.665 Q349.7062,82.8213 349.0031,82.8213 Q346.5031,82.8213 345.1749,81.1806 Q343.8624,79.5244 343.8624,76.3994 Q343.8624,73.2744 345.1749,71.6181 Q346.5031,69.9619 349.0031,69.9619 Q349.7062,69.9619 350.3468,70.1181 Q351.0031,70.2744 351.5656,70.5713 L351.5656,73.29 Q350.9406,72.7119 350.3468,72.4463 Q349.7531,72.165 349.1281,72.165 Q347.7843,72.165 347.0968,73.2431 Q346.4093,74.3056 346.4093,76.3994 Q346.4093,78.4931 347.0968,79.5713 Q347.7843,80.6338 349.1281,80.6338 Q349.7531,80.6338 350.3468,80.3681 Q350.9406,80.0869 351.5656,79.5088 L351.5656,82.2275 Z " fill="#000000"/><text fill="#000000" font-family="sans-serif" font-size="14" lengthAdjust="spacing" textLength="99.4766" x="369.0968" y="81.4336">ResourceType</text><line style="stroke:#181818;stroke-width:0.5;" x1="262.36" x2="542.8102" y1="92.5869" y2="92.5869"/><text fill="#000000" font-family="sans-serif" font-size="14" lengthAdjust="spacing" textLength="56.376" x="267.36" y="109.582">+id : int</text><text fill="#000000" font-family="sans-serif" font-size="14" lengthAdjust="spacing" textLength="270.4502" x="267.36" y="125.8789">+name : string  'document, quiz, lp, ...</text></g><!--class ResourceNode--><g class="entity" data-qualified-name="ResourceNode" data-source-line="60" id="ent0009"><rect fill="#F1F1F1" height="121.4844" rx="2.5" ry="2.5" style="stroke:#181818;stroke-width:0.5;" width="173.8271" x="283.67" y="226.4769"/><ellipse cx="316.7372" cy="242.4769" fill="#ADD1B2" rx="11" ry="11" style="stroke:#181818;stroke-width:1;"/><path d="M319.706,248.1175 Q319.1279,248.4144 318.4872,248.555 Q317.8466,248.7113 317.1435,248.7113 Q314.6435,248.7113 313.3154,247.0706 Q312.0029,245.4144 312.0029,242.2894 Q312.0029,239.1644 313.3154,237.5081 Q314.6435,235.8519 317.1435,235.8519 Q317.8466,235.8519 318.4872,236.0081 Q319.1435,236.1644 319.706,236.4613 L319.706,239.18 Q319.081,238.6019 318.4872,238.3363 Q317.8935,238.055 317.2685,238.055 Q315.9247,238.055 315.2372,239.1331 Q314.5497,240.1956 314.5497,242.2894 Q314.5497,244.3831 315.2372,245.4613 Q315.9247,246.5238 317.2685,246.5238 Q317.8935,246.5238 318.4872,246.2581 Q319.081,245.9769 319.706,245.3988 L319.706,248.1175 Z " fill="#000000"/><text fill="#000000" font-family="sans-serif" font-size="14" lengthAdjust="spacing" textLength="101.6777" x="334.7522" y="247.3236">ResourceNode</text><line style="stroke:#181818;stroke-width:0.5;" x1="284.67" x2="456.4971" y1="258.4769" y2="258.4769"/><text fill="#000000" font-family="sans-serif" font-size="14" lengthAdjust="spacing" textLength="56.376" x="289.67" y="275.472">+id : int</text><text fill="#000000" font-family="sans-serif" font-size="14" lengthAdjust="spacing" textLength="86.3926" x="289.67" y="291.7689">+uuid : uuid</text><text fill="#000000" font-family="sans-serif" font-size="14" lengthAdjust="spacing" textLength="92.9072" x="289.67" y="308.0657">+title : string</text><text fill="#000000" font-family="sans-serif" font-size="14" lengthAdjust="spacing" textLength="157.2471" x="289.67" y="324.3626">+createdAt : datetime</text><text fill="#000000" font-family="sans-serif" font-size="14" lengthAdjust="spacing" textLength="161.8271" x="289.67" y="340.6595">+updatedAt : datetime</text></g><!--class ResourceFile--><g class="entity" data-qualified-name="ResourceFile" data-source-line="69" id="ent0010"><rect fill="#F1F1F1" height="137.7813" rx="2.5" ry="2.5" style="stroke:#181818;stroke-width:0.5;" width="171.168" x="7" y="424.9669"/><ellipse cx="44.3124" cy="440.9669" fill="#ADD1B2" rx="11" ry="11" style="stroke:#181818;stroke-width:1;"/><path d="M47.2811,446.6075 Q46.703,446.9044 46.0624,447.045 Q45.4217,447.2013 44.7186,447.2013 Q42.2186,447.2013 40.8905,445.5606 Q39.578,443.9044 39.578,440.7794 Q39.578,437.6544 40.8905,435.9981 Q42.2186,434.3419 44.7186,434.3419 Q45.4217,434.3419 46.0624,434.4981 Q46.7186,434.6544 47.2811,434.9513 L47.2811,437.67 Q46.6561,437.0919 46.0624,436.8263 Q45.4686,436.545 44.8436,436.545 Q43.4999,436.545 42.8124,437.6231 Q42.1249,438.6856 42.1249,440.7794 Q42.1249,442.8731 42.8124,443.9513 Q43.4999,445.0138 44.8436,445.0138 Q45.4686,445.0138 46.0624,444.7481 Q46.6561,444.4669 47.2811,443.8888 L47.2811,446.6075 Z " fill="#000000"/><text fill="#000000" font-family="sans-serif" font-size="14" lengthAdjust="spacing" textLength="89.585" x="63.2707" y="445.8136">ResourceFile</text><line style="stroke:#181818;stroke-width:0.5;" x1="8" x2="177.168" y1="456.9669" y2="456.9669"/><text fill="#000000" font-family="sans-serif" font-size="14" lengthAdjust="spacing" textLength="56.376" x="13" y="473.962">+id : int</text><text fill="#000000" font-family="sans-serif" font-size="14" lengthAdjust="spacing" textLength="92.9072" x="13" y="490.2589">+title : string</text><text fill="#000000" font-family="sans-serif" font-size="14" lengthAdjust="spacing" textLength="139.6514" x="13" y="506.5557">+mimeType : string</text><text fill="#000000" font-family="sans-serif" font-size="14" lengthAdjust="spacing" textLength="159.168" x="13" y="522.8526">+originalName : string</text><text fill="#000000" font-family="sans-serif" font-size="14" lengthAdjust="spacing" textLength="70.7451" x="13" y="539.1495">+size : int</text><text fill="#000000" font-family="sans-serif" font-size="14" lengthAdjust="spacing" textLength="150.1035" x="13" y="555.4464">+storagePath : string</text></g><!--class ResourceLink--><g class="entity" data-qualified-name="ResourceLink" data-source-line="78" id="ent0011"><rect fill="#F1F1F1" height="88.8906" rx="2.5" ry="2.5" style="stroke:#181818;stroke-width:0.5;" width="169.2471" x="1268.96" y="449.4069"/><ellipse cx="1303.5069" cy="465.4069" fill="#ADD1B2" rx="11" ry="11" style="stroke:#181818;stroke-width:1;"/><path d="M1306.4756,471.0475 Q1305.8975,471.3444 1305.2569,471.485 Q1304.6163,471.6413 1303.9131,471.6413 Q1301.4131,471.6413 1300.085,470.0006 Q1298.7725,468.3444 1298.7725,465.2194 Q1298.7725,462.0944 1300.085,460.4381 Q1301.4131,458.7819 1303.9131,458.7819 Q1304.6163,458.7819 1305.2569,458.9381 Q1305.9131,459.0944 1306.4756,459.3913 L1306.4756,462.11 Q1305.8506,461.5319 1305.2569,461.2663 Q1304.6631,460.985 1304.0381,460.985 Q1302.6944,460.985 1302.0069,462.0631 Q1301.3194,463.1256 1301.3194,465.2194 Q1301.3194,467.3131 1302.0069,468.3913 Q1302.6944,469.4538 1304.0381,469.4538 Q1304.6631,469.4538 1305.2569,469.1881 Q1305.8506,468.9069 1306.4756,468.3288 L1306.4756,471.0475 Z " fill="#000000"/><text fill="#000000" font-family="sans-serif" font-size="14" lengthAdjust="spacing" textLength="93.8096" x="1321.8506" y="470.2536">ResourceLink</text><line style="stroke:#181818;stroke-width:0.5;" x1="1269.96" x2="1437.2071" y1="481.4069" y2="481.4069"/><text fill="#000000" font-family="sans-serif" font-size="14" lengthAdjust="spacing" textLength="56.376" x="1274.96" y="498.402">+id : int</text><text fill="#000000" font-family="sans-serif" font-size="14" lengthAdjust="spacing" textLength="101.2881" x="1274.96" y="514.6989">+visibility : int</text><text fill="#000000" font-family="sans-serif" font-size="14" lengthAdjust="spacing" textLength="157.2471" x="1274.96" y="530.9957">+createdAt : datetime</text></g><!--class CDocument--><g class="entity" data-qualified-name="CDocument" data-source-line="87" id="ent0012"><rect fill="#F1F1F1" height="88.8906" rx="2.5" ry="2.5" style="stroke:#181818;stroke-width:0.5;" width="131.7383" x="94.71" y="52.4469"/><ellipse cx="117.5551" cy="68.4469" fill="#ADD1B2" rx="11" ry="11" style="stroke:#181818;stroke-width:1;"/><path d="M120.5239,74.0875 Q119.9457,74.3844 119.3051,74.525 Q118.6645,74.6813 117.9614,74.6813 Q115.4614,74.6813 114.1332,73.0406 Q112.8207,71.3844 112.8207,68.2594 Q112.8207,65.1344 114.1332,63.4781 Q115.4614,61.8219 117.9614,61.8219 Q118.6645,61.8219 119.3051,61.9781 Q119.9614,62.1344 120.5239,62.4313 L120.5239,65.15 Q119.8989,64.5719 119.3051,64.3063 Q118.7114,64.025 118.0864,64.025 Q116.7426,64.025 116.0551,65.1031 Q115.3676,66.1656 115.3676,68.2594 Q115.3676,70.3531 116.0551,71.4313 Q116.7426,72.4938 118.0864,72.4938 Q118.7114,72.4938 119.3051,72.2281 Q119.8989,71.9469 120.5239,71.3688 L120.5239,74.0875 Z " fill="#000000"/><text fill="#000000" font-family="sans-serif" font-size="14" lengthAdjust="spacing" textLength="82.3047" x="133.2985" y="73.2936">CDocument</text><line style="stroke:#181818;stroke-width:0.5;" x1="95.71" x2="225.4483" y1="84.4469" y2="84.4469"/><text fill="#000000" font-family="sans-serif" font-size="14" lengthAdjust="spacing" textLength="60.2656" x="100.71" y="101.442">+iid : int</text><text fill="#000000" font-family="sans-serif" font-size="14" lengthAdjust="spacing" textLength="119.7383" x="100.71" y="117.7389">+comment : text</text><text fill="#000000" font-family="sans-serif" font-size="14" lengthAdjust="spacing" textLength="118.1318" x="100.71" y="134.0357">+filetype : string</text></g><!--class CGroup--><g class="entity" data-qualified-name="CGroup" data-source-line="94" id="ent0013"><rect fill="#F1F1F1" height="72.5938" rx="2.5" ry="2.5" style="stroke:#181818;stroke-width:0.5;" width="117.2393" x="1462.96" y="250.9269"/><ellipse cx="1492.6004" cy="266.9269" fill="#ADD1B2" rx="11" ry="11" style="stroke:#181818;stroke-width:1;"/><path d="M1495.5691,272.5675 Q1494.991,272.8644 1494.3504,273.005 Q1493.7098,273.1613 1493.0066,273.1613 Q1490.5066,273.1613 1489.1785,271.5206 Q1487.866,269.8644 1487.866,266.7394 Q1487.866,263.6144 1489.1785,261.9581 Q1490.5066,260.3019 1493.0066,260.3019 Q1493.7098,260.3019 1494.3504,260.4581 Q1495.0066,260.6144 1495.5691,260.9113 L1495.5691,263.63 Q1494.9441,263.0519 1494.3504,262.7863 Q1493.7566,262.505 1493.1316,262.505 Q1491.7879,262.505 1491.1004,263.5831 Q1490.4129,264.6456 1490.4129,266.7394 Q1490.4129,268.8331 1491.1004,269.9113 Q1491.7879,270.9738 1493.1316,270.9738 Q1493.7566,270.9738 1494.3504,270.7081 Q1494.9441,270.4269 1495.5691,269.8488 L1495.5691,272.5675 Z " fill="#000000"/><text fill="#000000" font-family="sans-serif" font-size="14" lengthAdjust="spacing" textLength="52.7051" x="1509.8538" y="271.7736">CGroup</text><line style="stroke:#181818;stroke-width:0.5;" x1="1463.96" x2="1579.1993" y1="282.9269" y2="282.9269"/><text fill="#000000" font-family="sans-serif" font-size="14" lengthAdjust="spacing" textLength="60.2656" x="1468.96" y="299.922">+iid : int</text><text fill="#000000" font-family="sans-serif" font-size="14" lengthAdjust="spacing" textLength="105.2393" x="1468.96" y="316.2189">+name : string</text></g><g class="entity" data-qualified-name="GMN31" data-source-line="141" id="ent0032"><path d="M1472.9,473.7269 L1472.9,489.8569 L1438.62,493.8569 L1472.9,497.8569 L1472.9,513.9925 A0,0 0 0 0 1472.9,513.9925 L1794.2647,513.9925 A0,0 0 0 0 1794.2647,513.9925 L1794.2647,483.7269 L1784.2647,473.7269 L1472.9,473.7269 A0,0 0 0 0 1472.9,473.7269" fill="#FEFFDD" style="stroke:#181818;stroke-width:0.5;"/><path d="M1784.2647,473.7269 L1784.2647,483.7269 L1794.2647,483.7269 L1784.2647,473.7269" fill="#FEFFDD" style="stroke:#181818;stroke-width:0.5;"/><text fill="#000000" font-family="sans-serif" font-size="13" lengthAdjust="spacing" textLength="300.3647" x="1478.9" y="490.7938">ResourceLink expresses visibility in a context:</text><text fill="#000000" font-family="sans-serif" font-size="13" lengthAdjust="spacing" textLength="261.6885" x="1478.9" y="505.9266">(course, session, group) + visibility flag.</text></g><g class="entity" data-qualified-name="GMN34" data-source-line="146" id="ent0035"><path d="M212.95,473.7269 L212.95,513.9925 A0,0 0 0 0 212.95,513.9925 L622.2234,513.9925 A0,0 0 0 0 622.2234,513.9925 L622.2234,483.7269 L612.2234,473.7269 L417.12,473.7269 L384.37,348.2369 L409.12,473.7269 L212.95,473.7269 A0,0 0 0 0 212.95,473.7269" fill="#FEFFDD" style="stroke:#181818;stroke-width:0.5;"/><path d="M612.2234,473.7269 L612.2234,483.7269 L622.2234,483.7269 L612.2234,473.7269" fill="#FEFFDD" style="stroke:#181818;stroke-width:0.5;"/><text fill="#000000" font-family="sans-serif" font-size="13" lengthAdjust="spacing" textLength="388.2734" x="218.95" y="490.7938">ResourceNode is the unified abstraction for course content.</text><text fill="#000000" font-family="sans-serif" font-size="13" lengthAdjust="spacing" textLength="354.9229" x="218.95" y="505.9266">Many tools (Document, Quiz, LP, Forum...) attach to it.</text></g><!--link User to CourseRelUser--><g class="link" data-entity-1="ent0001" data-entity-2="ent0004" data-link-type="association" data-source-line="104" id="lnk14"><path codeLine="104" d="M734.14,149.8469 C754.2,181.8569 779.39,222.0769 797.21,250.5169" fill="none" id="User-CourseRelUser" style="stroke:#181818;stroke-width:1;"/><text fill="#000000" font-family="sans-serif" font-size="13" lengthAdjust="spacing" textLength="8.271" x="729.8156" y="169.6682">1</text><text fill="#000000" font-family="sans-serif" font-size="13" lengthAdjust="spacing" textLength="23.0356" x="768.3913" y="239.9971">0..*</text></g><!--link Course to CourseRelUser--><g class="link" data-entity-1="ent0002" data-entity-2="ent0004" data-link-type="association" data-source-line="105" id="lnk15"><path codeLine="105" d="M970.89,141.5669 C936.23,174.7069 889.17,219.6969 856.78,250.6569" fill="none" id="Course-CourseRelUser" style="stroke:#181818;stroke-width:1;"/><text fill="#000000" font-family="sans-serif" font-size="13" lengthAdjust="spacing" textLength="8.271" x="955.6118" y="161.3067">1</text><text fill="#000000" font-family="sans-serif" font-size="13" lengthAdjust="spacing" textLength="23.0356" x="838.3606" y="239.8862">0..*</text></g><!--link User to SessionRelUser--><g class="link" data-entity-1="ent0001" data-entity-2="ent0005" data-link-type="association" data-source-line="108" id="lnk16"><path codeLine="108" d="M775.71,118.6369 C851.38,140.9969 971.35,179.7369 1069.58,226.4769 C1088.87,235.6569 1109.15,247.7269 1126.15,258.6069" fill="none" id="User-SessionRelUser" style="stroke:#181818;stroke-width:1;"/><text fill="#000000" font-family="sans-serif" font-size="13" lengthAdjust="spacing" textLength="8.271" x="783.4135" y="117.1127">1</text><text fill="#000000" font-family="sans-serif" font-size="13" lengthAdjust="spacing" textLength="23.0356" x="1091.7924" y="247.7874">0..*</text></g><!--link Session to SessionRelUser--><g class="link" data-entity-1="ent0003" data-entity-2="ent0005" data-link-type="association" data-source-line="109" id="lnk17"><path codeLine="109" d="M1299.09,149.8469 C1264.82,185.1269 1220.86,230.3669 1193.2,258.8369" fill="none" id="Session-SessionRelUser" style="stroke:#181818;stroke-width:1;"/><text fill="#000000" font-family="sans-serif" font-size="13" lengthAdjust="spacing" textLength="8.271" x="1284.1255" y="169.6682">1</text><text fill="#000000" font-family="sans-serif" font-size="13" lengthAdjust="spacing" textLength="23.0356" x="1173.5096" y="248.0677">0..*</text></g><!--link Session to SessionRelCourse--><g class="link" data-entity-1="ent0003" data-entity-2="ent0006" data-link-type="association" data-source-line="112" id="lnk18"><path codeLine="112" d="M1349.58,149.8469 C1349.58,185.1269 1349.58,230.3669 1349.58,258.8369" fill="none" id="Session-SessionRelCourse" style="stroke:#181818;stroke-width:1;"/><text fill="#000000" font-family="sans-serif" font-size="13" lengthAdjust="spacing" textLength="8.271" x="1341.0845" y="169.6682">1</text><text fill="#000000" font-family="sans-serif" font-size="13" lengthAdjust="spacing" textLength="23.0356" x="1324.0679" y="248.0677">0..*</text></g><!--link Course to SessionRelCourse--><g class="link" data-entity-1="ent0002" data-entity-2="ent0006" data-link-type="association" data-source-line="113" id="lnk19"><path codeLine="113" d="M1072.65,127.0969 C1121.01,152.5869 1192.48,190.9369 1253.58,226.4769 C1271.06,236.6469 1290.01,248.3069 1306.43,258.6069" fill="none" id="Course-SessionRelCourse" style="stroke:#181818;stroke-width:1;"/><text fill="#000000" font-family="sans-serif" font-size="13" lengthAdjust="spacing" textLength="8.271" x="1080.3639" y="127.0813">1</text><text fill="#000000" font-family="sans-serif" font-size="13" lengthAdjust="spacing" textLength="23.0356" x="1271.4788" y="247.7874">0..*</text></g><!--link User to SessionRelCourseRelUser--><g class="link" data-entity-1="ent0001" data-entity-2="ent0007" data-link-type="association" data-source-line="116" id="lnk20"><path codeLine="116" d="M679.23,149.5669 C659.84,202.9569 639.97,286.8769 675.58,347.9669 C709.8,406.6369 777.56,443.4569 834.77,465.2869" fill="none" id="User-SessionRelCourseRelUser" style="stroke:#181818;stroke-width:1;"/><text fill="#000000" font-family="sans-serif" font-size="13" lengthAdjust="spacing" textLength="8.271" x="667.7064" y="169.7289">1</text><text fill="#000000" font-family="sans-serif" font-size="13" lengthAdjust="spacing" textLength="23.0356" x="795.1874" y="456.841">0..*</text></g><!--link SessionRelCourse to SessionRelCourseRelUser--><g class="link" data-entity-1="ent0006" data-entity-2="ent0007" data-link-type="association" data-source-line="117" id="lnk21"><path codeLine="117" d="M1308.24,315.6369 C1291.56,326.2569 1271.95,338.1769 1253.58,347.9669 C1168.25,393.4569 1065.81,437.8969 999.76,465.3169" fill="none" id="SessionRelCourse-SessionRelCourseRelUser" style="stroke:#181818;stroke-width:1;"/><text fill="#000000" font-family="sans-serif" font-size="13" lengthAdjust="spacing" textLength="8.271" x="1290.3511" y="335.574">1</text><text fill="#000000" font-family="sans-serif" font-size="13" lengthAdjust="spacing" textLength="23.0356" x="989.1622" y="454.5149">0..*</text></g><!--reverse link User to ResourceNode--><g class="link" data-entity-1="ent0001" data-entity-2="ent0009" data-link-type="dependency" data-source-line="120" id="lnk22"><path codeLine="120" d="M622.9541,142.6293 C572.7341,171.1993 510.55,206.5869 457.81,236.5969" fill="none" id="User-backto-ResourceNode" style="stroke:#181818;stroke-width:1;"/><polygon fill="#181818" points="627.3,140.1569,617.4994,141.1304,622.9541,142.6293,621.4552,148.0839,627.3,140.1569" style="stroke:#181818;stroke-width:1;stroke-linejoin:miter;stroke-miterlimit:10;"/><text fill="#000000" font-family="sans-serif" font-size="13" lengthAdjust="spacing" textLength="46.8521" x="557.58" y="192.5438">creator</text><text fill="#000000" font-family="sans-serif" font-size="13" lengthAdjust="spacing" textLength="8.271" x="611.2406" y="140.919">1</text><text fill="#000000" font-family="sans-serif" font-size="13" lengthAdjust="spacing" textLength="23.0356" x="465.3701" y="229.2189">0..*</text></g><!--reverse link ResourceNode to ResourceNode--><g class="link" data-entity-1="ent0009" data-entity-2="ent0009" data-link-type="dependency" data-source-line="123" id="lnk23"><path codeLine="123" d="M462.9639,269.4472 C482.8839,271.0472 492.5,276.7069 492.5,287.2269 C492.5,297.7369 477.9,303.7969 457.98,305.3969" fill="none" id="ResourceNode-backto-ResourceNode" style="stroke:#181818;stroke-width:1;"/><polygon fill="#181818" points="457.98,269.0469,466.6309,273.7546,462.9639,269.4472,467.2714,265.7803,457.98,269.0469" style="stroke:#181818;stroke-width:1;stroke-linejoin:miter;stroke-miterlimit:10;"/><text fill="#000000" font-family="sans-serif" font-size="13" lengthAdjust="spacing" textLength="99.7217" x="498.5" y="291.7938">parent/children</text><text fill="#000000" font-family="sans-serif" font-size="13" lengthAdjust="spacing" textLength="24.8066" x="465.6209" y="264.1533">0..1</text><text fill="#000000" font-family="sans-serif" font-size="13" lengthAdjust="spacing" textLength="23.0356" x="465.5531" y="319.4348">0..*</text></g><!--reverse link ResourceType to ResourceNode--><g class="link" data-entity-1="ent0008" data-entity-2="ent0009" data-link-type="dependency" data-source-line="126" id="lnk24"><path codeLine="126" d="M395.7315,138.2461 C391.2915,164.3461 385.99,195.5569 380.79,226.1369" fill="none" id="ResourceType-backto-ResourceNode" style="stroke:#181818;stroke-width:1;"/><polygon fill="#181818" points="396.57,133.3169,391.1173,141.5186,395.7315,138.2461,399.004,142.8602,396.57,133.3169" style="stroke:#181818;stroke-width:1;stroke-linejoin:miter;stroke-miterlimit:10;"/><text fill="#000000" font-family="sans-serif" font-size="13" lengthAdjust="spacing" textLength="29.0405" x="389.58" y="192.5438">type</text><text fill="#000000" font-family="sans-serif" font-size="13" lengthAdjust="spacing" textLength="8.271" x="386.8102" y="153.2212">1</text><text fill="#000000" font-family="sans-serif" font-size="13" lengthAdjust="spacing" textLength="23.0356" x="357.6425" y="215.2816">0..*</text></g><!--reverse link ResourceNode to ResourceFile--><g class="link" data-entity-1="ent0009" data-entity-2="ent0010" data-link-type="aggregation" data-source-line="129" id="lnk25"><path codeLine="129" d="M279.3863,355.3512 C244.6263,380.9412 213.7,403.7069 178.47,429.6369" fill="none" id="ResourceNode-backto-ResourceFile" style="stroke:#181818;stroke-width:1;"/><polygon fill="none" points="289.05,348.2369,281.8467,348.5728,279.3863,355.3512,286.5896,355.0153,289.05,348.2369" style="stroke:#181818;stroke-width:1;stroke-linejoin:miter;stroke-miterlimit:10;"/><text fill="#000000" font-family="sans-serif" font-size="13" lengthAdjust="spacing" textLength="79.498" x="249.58" y="391.0338">resourceFile</text><text fill="#000000" font-family="sans-serif" font-size="13" lengthAdjust="spacing" textLength="8.271" x="271.1758" y="368.2338">1</text><text fill="#000000" font-family="sans-serif" font-size="13" lengthAdjust="spacing" textLength="24.8066" x="186.3024" y="420.9938">0..1</text></g><!--link ResourceNode to ResourceLink--><g class="link" data-entity-1="ent0009" data-entity-2="ent0011" data-link-type="association" data-source-line="132" id="lnk26"><path codeLine="132" d="M457.99,305.4069 C615.55,336.4169 941.33,400.7969 1054.58,424.9669 C1126.95,440.4069 1208.88,459.0969 1268.65,472.9569" fill="none" id="ResourceNode-ResourceLink" style="stroke:#181818;stroke-width:1;"/><text fill="#000000" font-family="sans-serif" font-size="13" lengthAdjust="spacing" textLength="8.271" x="465.5708" y="303.3644">1</text><text fill="#000000" font-family="sans-serif" font-size="13" lengthAdjust="spacing" textLength="23.0356" x="1237.9669" y="483.9616">0..*</text></g><!--reverse link Course to ResourceLink--><g class="link" data-entity-1="ent0002" data-entity-2="ent0011" data-link-type="dependency" data-source-line="133" id="lnk27"><path codeLine="133" d="M1006.4138,146.5498 C997.5338,200.2198 991.93,286.6969 1034.58,347.9669 C1088.37,425.2169 1193.69,462.0169 1268.59,479.0469" fill="none" id="Course-backto-ResourceLink" style="stroke:#181818;stroke-width:1;"/><polygon fill="#181818" points="1007.23,141.6169,1001.8145,149.8432,1006.4138,146.5498,1009.7072,151.1491,1007.23,141.6169" style="stroke:#181818;stroke-width:1;stroke-linejoin:miter;stroke-miterlimit:10;"/><text fill="#000000" font-family="sans-serif" font-size="13" lengthAdjust="spacing" textLength="43.4561" x="1035.58" y="291.7938">course</text><text fill="#000000" font-family="sans-serif" font-size="13" lengthAdjust="spacing" textLength="24.8066" x="980.1535" y="161.364">0..1</text><text fill="#000000" font-family="sans-serif" font-size="13" lengthAdjust="spacing" textLength="23.0356" x="1237.9021" y="474.3416">0..*</text></g><!--reverse link Session to ResourceLink--><g class="link" data-entity-1="ent0003" data-entity-2="ent0011" data-link-type="dependency" data-source-line="134" id="lnk28"><path codeLine="134" d="M1422.3739,113.7382 C1481.4739,130.3282 1558.72,162.5569 1597.58,226.4769 C1625.63,272.6169 1625.2,301.5669 1597.58,347.9669 C1560.86,409.6569 1517.08,387.9269 1455.58,424.9669 C1443.1,432.4869 1430,440.8369 1417.49,449.0469" fill="none" id="Session-backto-ResourceLink" style="stroke:#181818;stroke-width:1;"/><polygon fill="#181818" points="1417.56,112.3869,1425.144,118.6704,1422.3739,113.7382,1427.3061,110.9681,1417.56,112.3869" style="stroke:#181818;stroke-width:1;stroke-linejoin:miter;stroke-miterlimit:10;"/><text fill="#000000" font-family="sans-serif" font-size="13" lengthAdjust="spacing" textLength="48.1216" x="1618.58" y="291.7938">session</text><text fill="#000000" font-family="sans-serif" font-size="13" lengthAdjust="spacing" textLength="24.8066" x="1424.9701" y="110.197">0..1</text><text fill="#000000" font-family="sans-serif" font-size="13" lengthAdjust="spacing" textLength="23.0356" x="1402.1898" y="438.4412">0..*</text></g><!--reverse link CGroup to ResourceLink--><g class="link" data-entity-1="ent0013" data-entity-2="ent0011" data-link-type="dependency" data-source-line="135" id="lnk29"><path codeLine="135" d="M1489.1472,327.7313 C1460.5672,362.5413 1420.19,411.7269 1389.52,449.0869" fill="none" id="CGroup-backto-ResourceLink" style="stroke:#181818;stroke-width:1;"/><polygon fill="#181818" points="1492.32,323.8669,1483.5175,328.2846,1489.1472,327.7313,1489.7005,333.361,1492.32,323.8669" style="stroke:#181818;stroke-width:1;stroke-linejoin:miter;stroke-miterlimit:10;"/><text fill="#000000" font-family="sans-serif" font-size="13" lengthAdjust="spacing" textLength="38.0415" x="1449.58" y="391.0338">group</text><text fill="#000000" font-family="sans-serif" font-size="13" lengthAdjust="spacing" textLength="24.8066" x="1461.2978" y="343.5323">0..1</text><text fill="#000000" font-family="sans-serif" font-size="13" lengthAdjust="spacing" textLength="23.0356" x="1370.1117" y="438.4871">0..*</text></g><!--reverse link CDocument to ResourceNode--><g class="link" data-entity-1="ent0012" data-entity-2="ent0009" data-link-type="aggregation" data-source-line="138" id="lnk30"><path codeLine="138" d="M218.4838,149.8186 C246.4838,174.9286 273.06,198.7669 303.61,226.1569" fill="none" id="CDocument-backto-ResourceNode" style="stroke:#181818;stroke-width:1;"/><polygon fill="none" points="209.55,141.8069,211.3463,148.7907,218.4838,149.8186,216.6875,142.8348,209.55,141.8069" style="stroke:#181818;stroke-width:1;stroke-linejoin:miter;stroke-miterlimit:10;"/><text fill="#000000" font-family="sans-serif" font-size="13" lengthAdjust="spacing" textLength="90.7271" x="266.58" y="192.5438">resourceNode</text><text fill="#000000" font-family="sans-serif" font-size="13" lengthAdjust="spacing" textLength="8.271" x="207.8931" y="161.2539">1</text><text fill="#000000" font-family="sans-serif" font-size="13" lengthAdjust="spacing" textLength="8.271" x="287.4193" y="215.3039">1</text></g><?plantuml-src ZLR1Sjis4BtpAtRKGwHQbgmSDMbdF7AIoTH9Kplj7I9M8c8GO86bRQNZcNn4lp1VaWL4IgH8I-Q5v6An-_2m-m1If14McSYLjl1wSW4_llyFV-06hWG9-6WbQXXUsxLAXOQtD_2FmeSnU9KNMgqKob6I-3jb2k543akHtgsTBOrSM6qT_BAAJyF3PqBQ1sNMi1BQOsCarSBxIoAdbYNXXzIQM_KDuQBX8d4bIarVy94kjLgR70s1nXKbIQOaGewKMUcJLvp6FW33qzAFWUF17M81Yi2Xa6AfCM6dtvvxU6nX7GB7DAH8eJ_g7P73tnuT_9S0d2a9Sr26mdV9LYDoP8ldfPbrC68kb6vPdDNesVBLMpCLpebDyfHKWHUsT1wxeLFUcrOGYdkvi-m2tABtoffkX0umJy8HRtomIdv5i4OsBK-1kRU60Uj8_rUh352WrBVmtg3kPuHpKEct_m2l24MQePjwAWFRW9HEEj3xW_LuzNBrhD-pOO_NnWrwdfuYt6uyOGx3b84xeKSlg99wxfTDWISsXCcHDYq3osFujrJVng2BCKmc3NxgS9z2BNIBhun_uTLJ7w64k1q8vILLkqigZtjU5hBNNWZAclXo7dDAQ6vK2N5mk4QPMo27EEh2VATq3ymkhfppHOQQHklKMXcXFtMgDkX4exwi4slyt8JQHNAjp5qNoRtoQgcqeasZpVeuUZgj7x4GMSKeLlMZOC74ELnLE_g2KbdKlXNETk_dSMGEn68OB2kcbbgKHOn_5iGLB_ISeKH4GPuB3qCM9WdBJPkG2FUHmDiyhjEFQYplmxGU86q9UK7hQ140-KmnY3D8XPDXJq-BB0_6Ndrp_djDxhqIRR59eiTWDe3pSnXSJ2Q_3WuSgfd7N9g9QkKCcTfIr9VgmAEUVDI9izL-1oix5AkJyIgtAiGfjtgPk9To5d81li2K3_OKXdM-imhLYCiZNzhZAszpsH7cbqrhQ6mKDkN1FXYKqweNGzqA24ShQsymMJVQmtgpJz2AmYsmzUt43seLIhXCgNIOjCP2fAD1-Mh2v4tJJ6d9NvtWcV0CDhHcqXB_ur2Z_s6eN6mut3s2u9qY2WUdXD3u1v0vigqYpmPjyPtp3MZ_sym0U_6RrZgWMHHyDtWNTL2FNNCzorZKc5g9zlLyojzl7PDAX4xwHuaBIzi9QBp6RI28J10kswPrE9lFGl5JnXIpmPduulDyBy4xJcUThNADtoGnbkzAV59b17RLvgS54nyBdiXBQ_2-xS2A_7aot18rhWaORrSsuevip5bfiPuaV4k3aBe2iBH4DcyYYEWEkogik3Jn7WzYoHqWqg3EiEAxUzewmIR9Hs6OGMir7nvNktl9N_5USlrv3E-iAtE-d8ogqcHVld3laVq4?></g></svg>