<svg xmlns="http://www.w3.org/2000/svg" xmlns:xlink="http://www.w3.org/1999/xlink" contentStyleType="text/css" height="2307px" preserveAspectRatio="none" style="width:2356px;height:2307px;background:#FFFFFF;" version="1.1" viewBox="0 0 2356 2307" width="2356px" zoomAndPan="magnify"><defs/><g><text fill="#000000" font-family="sans-serif" font-size="14" font-weight="bold" lengthAdjust="spacing" textLength="533" x="904.61" y="22.9951">Chamilo LMS 2.0 &#8212; Deployment / Container Diagram (Physical View)</text><!--cluster CLIENT--><g id="cluster_CLIENT"><polygon fill="#F7FFF7" points="16,1158.2969,26,1148.2969,224,1148.2969,224,1250.2969,214,1260.2969,16,1260.2969,16,1158.2969" style="stroke:#2B2B2B;stroke-width:1.0;"/><line style="stroke:#2B2B2B;stroke-width:1.0;" x1="214" x2="224" y1="1158.2969" y2="1148.2969"/><line style="stroke:#2B2B2B;stroke-width:1.0;" x1="16" x2="214" y1="1158.2969" y2="1158.2969"/><line style="stroke:#2B2B2B;stroke-width:1.0;" x1="214" x2="214" y1="1158.2969" y2="1260.2969"/><text fill="#000000" font-family="sans-serif" font-size="14" font-weight="bold" lengthAdjust="spacing" textLength="103" x="64.5" y="1174.292">Client Device</text></g><!--cluster EDGE--><g id="cluster_EDGE"><polygon fill="#FFF7E6" points="644,1178.2969,654,1168.2969,963,1168.2969,963,1302.2969,953,1312.2969,644,1312.2969,644,1178.2969" style="stroke:#2B2B2B;stroke-width:1.0;"/><line style="stroke:#2B2B2B;stroke-width:1.0;" x1="953" x2="963" y1="1178.2969" y2="1168.2969"/><line style="stroke:#2B2B2B;stroke-width:1.0;" x1="644" x2="953" y1="1178.2969" y2="1178.2969"/><line style="stroke:#2B2B2B;stroke-width:1.0;" x1="953" x2="953" y1="1178.2969" y2="1312.2969"/><text fill="#000000" font-family="sans-serif" font-size="14" font-weight="bold" lengthAdjust="spacing" textLength="182" x="708.5" y="1194.292">DNS + TLS Termination</text><text fill="#000000" font-family="sans-serif" font-size="14" font-weight="bold" lengthAdjust="spacing" textLength="243" x="678" y="1210.5889">(Optional: Reverse Proxy/WAF)</text></g><!--cluster HOST--><g id="cluster_HOST"><polygon fill="#E8F4FF" points="1154,53.2969,1164,43.2969,2339.22,43.2969,2339.22,1511.2969,2329.22,1521.2969,1154,1521.2969,1154,53.2969" style="stroke:#2B2B2B;stroke-width:1.0;"/><line style="stroke:#2B2B2B;stroke-width:1.0;" x1="2329.22" x2="2339.22" y1="53.2969" y2="43.2969"/><line style="stroke:#2B2B2B;stroke-width:1.0;" x1="1154" x2="2329.22" y1="53.2969" y2="53.2969"/><line style="stroke:#2B2B2B;stroke-width:1.0;" x1="2329.22" x2="2329.22" y1="53.2969" y2="1521.2969"/><text fill="#000000" font-family="sans-serif" font-size="14" font-weight="bold" lengthAdjust="spacing" textLength="257" x="1614.11" y="69.292">Hosting Server (VM / Bare Metal)</text><text fill="#000000" font-family="sans-serif" font-size="14" font-weight="bold" lengthAdjust="spacing" textLength="224" x="1630.61" y="85.5889">Ubuntu 24.04 LTS (example)</text></g><!--cluster DC--><g id="cluster_DC"><rect fill="#E8F4FF" height="1310" rx="2.5" ry="2.5" style="stroke:#181818;stroke-width:1.0;" width="1121.22" x="1186" y="179.2969"/><path d="M1509,179.2969 L1509,188.5938 L1499,198.5938 L1186,198.5938 " fill="none" style="stroke:#181818;stroke-width:1.0;"/><text fill="#000000" font-family="sans-serif" font-size="14" font-weight="bold" lengthAdjust="spacing" textLength="313" x="1189" y="193.292">Docker Compose stack (recommended)</text></g><!--cluster WEB--><g id="cluster_WEB"><polygon fill="#EAF1FF" points="1226,1178.2969,1236,1168.2969,1723.22,1168.2969,1723.22,1439.2969,1713.22,1449.2969,1226,1449.2969,1226,1178.2969" style="stroke:#2B2B2B;stroke-width:1.0;"/><line style="stroke:#2B2B2B;stroke-width:1.0;" x1="1713.22" x2="1723.22" y1="1178.2969" y2="1168.2969"/><line style="stroke:#2B2B2B;stroke-width:1.0;" x1="1226" x2="1713.22" y1="1178.2969" y2="1178.2969"/><line style="stroke:#2B2B2B;stroke-width:1.0;" x1="1713.22" x2="1713.22" y1="1178.2969" y2="1449.2969"/><text fill="#000000" font-family="sans-serif" font-size="14" font-weight="bold" lengthAdjust="spacing" textLength="34" x="1453.61" y="1194.292">web</text><text fill="#000000" font-family="sans-serif" font-size="14" font-weight="bold" lengthAdjust="spacing" textLength="108" x="1416.61" y="1210.5889">Apache/Nginx</text></g><!--cluster PHP--><g id="cluster_PHP"><polygon fill="#EAF1FF" points="1462.22,867.2969,1472.22,857.2969,2267.22,857.2969,2267.22,1118.2969,2257.22,1128.2969,1462.22,1128.2969,1462.22,867.2969" style="stroke:#2B2B2B;stroke-width:1.0;"/><line style="stroke:#2B2B2B;stroke-width:1.0;" x1="2257.22" x2="2267.22" y1="867.2969" y2="857.2969"/><line style="stroke:#2B2B2B;stroke-width:1.0;" x1="1462.22" x2="2257.22" y1="867.2969" y2="867.2969"/><line style="stroke:#2B2B2B;stroke-width:1.0;" x1="2257.22" x2="2257.22" y1="867.2969" y2="1128.2969"/><text fill="#000000" font-family="sans-serif" font-size="14" font-weight="bold" lengthAdjust="spacing" textLength="30" x="1845.72" y="883.292">php</text><text fill="#000000" font-family="sans-serif" font-size="14" font-weight="bold" lengthAdjust="spacing" textLength="122" x="1799.72" y="899.5889">PHP 8.2+ (FPM)</text><text fill="#000000" font-family="sans-serif" font-size="14" font-weight="bold" lengthAdjust="spacing" textLength="137" x="1792.22" y="915.8857">Symfony Runtime</text></g><!--cluster DB--><g id="cluster_DB"><path d="M2011.72,641.2969 C2011.72,631.2969 2135.72,631.2969 2135.72,631.2969 C2135.72,631.2969 2259.72,631.2969 2259.72,641.2969 L2259.72,807.2969 C2259.72,817.2969 2135.72,817.2969 2135.72,817.2969 C2135.72,817.2969 2011.72,817.2969 2011.72,807.2969 L2011.72,641.2969 " fill="#F2F2F2" style="stroke:#181818;stroke-width:1.0;"/><path d="M2011.72,641.2969 C2011.72,651.2969 2135.72,651.2969 2135.72,651.2969 C2135.72,651.2969 2259.72,651.2969 2259.72,641.2969 " fill="none" style="stroke:#181818;stroke-width:1.0;"/><text fill="#000000" font-family="sans-serif" font-size="14" font-weight="bold" lengthAdjust="spacing" textLength="20" x="2125.72" y="666.292">db</text><text fill="#000000" font-family="sans-serif" font-size="14" font-weight="bold" lengthAdjust="spacing" textLength="121" x="2075.22" y="682.5889">MariaDB/MySQL</text></g><!--cluster STORAGE--><g id="cluster_STORAGE"><polygon fill="#F7F7FF" points="2011.72,256.2969,2021.72,246.2969,2259.72,246.2969,2259.72,581.2969,2249.72,591.2969,2011.72,591.2969,2011.72,256.2969" style="stroke:#2B2B2B;stroke-width:1.0;"/><line style="stroke:#2B2B2B;stroke-width:1.0;" x1="2249.72" x2="2259.72" y1="256.2969" y2="246.2969"/><line style="stroke:#2B2B2B;stroke-width:1.0;" x1="2011.72" x2="2249.72" y1="256.2969" y2="256.2969"/><line style="stroke:#2B2B2B;stroke-width:1.0;" x1="2249.72" x2="2249.72" y1="256.2969" y2="591.2969"/><text fill="#000000" font-family="sans-serif" font-size="14" font-weight="bold" lengthAdjust="spacing" textLength="61" x="2101.22" y="272.292">storage</text><text fill="#000000" font-family="sans-serif" font-size="14" font-weight="bold" lengthAdjust="spacing" textLength="127" x="2068.22" y="288.5889">Local filesystem</text></g><!--cluster REDIS--><g id="cluster_REDIS"><polygon fill="#FFF0F3" points="2011.72,1178.2969,2021.72,1168.2969,2259.72,1168.2969,2259.72,1334.2969,2249.72,1344.2969,2011.72,1344.2969,2011.72,1178.2969" style="stroke:#2B2B2B;stroke-width:1.0;"/><line style="stroke:#2B2B2B;stroke-width:1.0;" x1="2249.72" x2="2259.72" y1="1178.2969" y2="1168.2969"/><line style="stroke:#2B2B2B;stroke-width:1.0;" x1="2011.72" x2="2249.72" y1="1178.2969" y2="1178.2969"/><line style="stroke:#2B2B2B;stroke-width:1.0;" x1="2249.72" x2="2249.72" y1="1178.2969" y2="1344.2969"/><text fill="#000000" font-family="sans-serif" font-size="14" font-weight="bold" lengthAdjust="spacing" textLength="40" x="2111.72" y="1194.292">redis</text><text fill="#000000" font-family="sans-serif" font-size="14" font-weight="bold" lengthAdjust="spacing" textLength="77" x="2093.22" y="1210.5889">(Optional)</text></g><!--cluster EXT--><g id="cluster_EXT"><path d="M2024.5028,1559.9548 C2031.7969,1538.2173 2046.0803,1535.3496 2061.2914,1552.457 C2075.5783,1533.9222 2089.7187,1530.2021 2103.1255,1553.3406 C2111.1282,1535.8747 2128.3213,1536.6657 2138.119,1551.3891 C2152.3046,1534.3617 2168.5699,1534.3366 2179.1592,1555.2765 C2190.8371,1541.0959 2204.4599,1540.7691 2215.2804,1556.3183 C2228.3231,1535.5477 2246.8547,1538.6066 2255.72,1560.2969 C2260.5175,1560.029 2262.9215,1562.6884 2260.8081,1567.3829 C2276.0725,1579.447 2274.494,1595.4641 2257.4469,1604.6109 C2280.4795,1615.2955 2275.7887,1635.4857 2258.9139,1647.5343 C2276.0168,1657.1015 2278.2358,1673.729 2262.2116,1686.127 C2280.4306,1695.8356 2284.5405,1712.9722 2265.6596,1725.8973 C2285.2529,1741.4142 2284.0903,1755.9113 2264.4122,1770.3256 C2281.7019,1778.6806 2281.5972,1796.044 2265.6441,1805.5611 C2284.9672,1818.3245 2285.7973,1833.2343 2267.8125,1847.908 C2285.8227,1863.7081 2282.5889,1879.4693 2259.7924,1886.8695 C2278.0905,1900.3876 2278.8484,1913.0233 2261.3294,1927.8836 C2283.9693,1939.4795 2281.5454,1952.961 2265.1853,1968.2795 C2280.3808,1981.4745 2280.6988,2002.3948 2258.6481,2009.7133 C2282.3448,2020.009 2281.2175,2039.1347 2261.0105,2051.8895 C2281.2778,2065.3403 2280.87,2081.8708 2258.5,2092.6986 C2277.4762,2113.0146 2276.6296,2128.037 2248.72,2138.2969 C2250.1345,2137.2721 2250.8737,2137.8164 2251.2288,2139.3398 C2241.6707,2158.8769 2224.0336,2158.2595 2214.0856,2139.7202 C2203.8177,2157.9727 2188.424,2158.5765 2176.9701,2140.947 C2169.0481,2156.9872 2154.9993,2159.2956 2142.2214,2146.8758 C2127.4368,2162.1791 2108.4708,2160.0889 2099.8562,2139.5774 C2086.3559,2156.6105 2074.2039,2156.041 2061.1517,2139.0675 C2043.9179,2159.6156 2025.7779,2152.7029 2015.72,2131.2969 C2018.6381,2128.6668 2020.7725,2129.9106 2021.9865,2133.1243 C2003.9749,2123.8358 2002.0584,2109.1384 2019.0963,2097.0424 C2000.0521,2082.4948 2004.1616,2069.1555 2021.4534,2056.7325 C1995.5679,2047.6575 1990.8076,2027.6025 2013.4762,2010.2032 C1994.7869,1995.6457 1999.0143,1984.5792 2016.8853,1973.4092 C1998.3676,1962.0595 1992.8612,1943.1069 2015.2717,1930.2278 C1999.8316,1920.4367 1998.2905,1903.6472 2014.336,1893.0634 C1990.1732,1880.6221 1989.5193,1861.6331 2011.4841,1846.3742 C1996.1235,1831.7949 1999.3731,1816.0421 2017.5688,1806.5957 C1999.3415,1797.2185 1995.7176,1778.9381 2014.8693,1767.0118 C1998.5635,1756.0043 1998.2311,1737.9621 2017.2868,1729.2165 C1992.5074,1717.6733 1993.4738,1697.0344 2014.7776,1682.9897 C1999.4753,1671.6707 2003.0334,1655.0914 2019.3677,1647.9121 C2001.2435,1632.7983 2001.6368,1619.2994 2020.2358,1604.9272 C1998.1601,1587.909 1997.864,1568.0569 2022.72,1553.2969 C2026.5992,1554.5498 2027.2554,1556.9262 2024.5028,1559.9548 " fill="#F9F9F9" style="stroke:#181818;stroke-width:1.0;"/><text fill="#000000" font-family="sans-serif" font-size="14" font-weight="bold" lengthAdjust="spacing" textLength="137" x="2067.22" y="1571.292">External Services</text></g><!--entity BROWSER--><g id="elem_BROWSER"><rect fill="#F1F1F1" height="55.5938" rx="2.5" ry="2.5" style="stroke:#181818;stroke-width:0.5;" width="176" x="32" y="1188.4969"/><polygon fill="#F1F1F1" points="191,1193.4969,191,1207.4969,203,1207.4969,203,1199.4969,197,1193.4969,191,1193.4969" style="stroke:#181818;stroke-width:0.5;"/><line style="stroke:#181818;stroke-width:0.5;" x1="197" x2="197" y1="1193.4969" y2="1199.4969"/><line style="stroke:#181818;stroke-width:0.5;" x1="203" x2="197" y1="1199.4969" y2="1199.4969"/><text fill="#000000" font-family="sans-serif" font-size="14" lengthAdjust="spacing" textLength="57" x="42" y="1214.492">Browser</text><text fill="#000000" font-family="sans-serif" font-size="14" lengthAdjust="spacing" textLength="146" x="42" y="1230.7889">(Chrome/Firefox/etc.)</text></g><!--entity DOMAIN--><g id="elem_DOMAIN"><rect fill="#F1F1F1" height="36.2969" rx="2.5" ry="2.5" style="stroke:#181818;stroke-width:0.5;" width="250" x="678" y="1252.1469"/><text fill="#000000" font-family="sans-serif" font-size="14" lengthAdjust="spacing" textLength="230" x="688" y="1275.142">Domain: https://lms.example.edu</text></g><g id="elem_GMN25"><path d="M1423.72,99.5969 L1423.72,154.9953 L1778.72,154.9953 L1778.72,109.5969 L1768.72,99.5969 L1423.72,99.5969 " fill="#FEFFDD" style="stroke:#181818;stroke-width:0.5;"/><path d="M1768.72,99.5969 L1768.72,109.5969 L1778.72,109.5969 L1768.72,99.5969 " fill="#FEFFDD" style="stroke:#181818;stroke-width:1.0;"/><text fill="#000000" font-family="sans-serif" font-size="13" lengthAdjust="spacing" textLength="323" x="1429.72" y="116.6638">In many deployments, Apache/Nginx and PHP-FPM</text><text fill="#000000" font-family="sans-serif" font-size="13" lengthAdjust="spacing" textLength="265" x="1429.72" y="131.7966">may run on the same VM without Docker.</text><text fill="#000000" font-family="sans-serif" font-size="13" lengthAdjust="spacing" textLength="334" x="1429.72" y="146.9294">This diagram shows a containerized setup for clarity.</text></g><!--entity WEBSVC--><g id="elem_WEBSVC"><rect fill="#F1F1F1" height="101.4844" rx="2.5" ry="2.5" style="stroke:#181818;stroke-width:0.5;" width="196" x="1503.22" y="1323.5569"/><text fill="#000000" font-family="sans-serif" font-size="14" lengthAdjust="spacing" textLength="52" x="1513.22" y="1346.552">Serves:</text><text fill="#000000" font-family="sans-serif" font-size="14" lengthAdjust="spacing" textLength="133" x="1513.22" y="1362.8489">- /public (PHP front)</text><text fill="#000000" font-family="sans-serif" font-size="14" lengthAdjust="spacing" textLength="98" x="1513.22" y="1379.1457">- /build (static)</text><text fill="#000000" font-family="sans-serif" font-size="14" lengthAdjust="spacing" textLength="176" x="1513.22" y="1395.4426">- /themes (theme assets)</text><text fill="#000000" font-family="sans-serif" font-size="14" lengthAdjust="spacing" textLength="153" x="1513.22" y="1411.7395">- legacy /public/main/*</text></g><!--entity BUILD--><g id="elem_BUILD"><rect fill="#F1F1F1" height="55.5938" rx="2.5" ry="2.5" style="stroke:#181818;stroke-width:0.5;" width="139" x="1531.72" y="1232.4969"/><polygon fill="#F1F1F1" points="1653.72,1237.4969,1653.72,1251.4969,1665.72,1251.4969,1665.72,1243.4969,1659.72,1237.4969,1653.72,1237.4969" style="stroke:#181818;stroke-width:0.5;"/><line style="stroke:#181818;stroke-width:0.5;" x1="1659.72" x2="1659.72" y1="1237.4969" y2="1243.4969"/><line style="stroke:#181818;stroke-width:0.5;" x1="1665.72" x2="1659.72" y1="1243.4969" y2="1243.4969"/><text fill="#000000" font-family="sans-serif" font-size="14" lengthAdjust="spacing" textLength="84" x="1541.72" y="1258.492">public/build/</text><text fill="#000000" font-family="sans-serif" font-size="14" lengthAdjust="spacing" textLength="109" x="1541.72" y="1274.7889">(Encore output)</text></g><!--entity APP--><g id="elem_APP"><rect fill="#F1F1F1" height="52.5938" rx="2.5" ry="2.5" style="stroke:#181818;stroke-width:0.5;" width="230" x="1486.22" y="1031.9969"/><text fill="#000000" font-family="sans-serif" font-size="14" lengthAdjust="spacing" textLength="86" x="1496.22" y="1054.992">Chamilo App</text><text fill="#000000" font-family="sans-serif" font-size="14" lengthAdjust="spacing" textLength="210" x="1496.22" y="1071.2889">(Symfony 6.4 + Legacy bridge)</text></g><!--entity API--><g id="elem_API"><rect fill="#F1F1F1" height="52.5938" rx="2.5" ry="2.5" style="stroke:#181818;stroke-width:0.5;" width="101" x="1550.72" y="943.9969"/><text fill="#000000" font-family="sans-serif" font-size="14" lengthAdjust="spacing" textLength="81" x="1560.72" y="966.992">API Platform</text><text fill="#000000" font-family="sans-serif" font-size="14" lengthAdjust="spacing" textLength="47" x="1560.72" y="983.2889">(/api/*)</text></g><!--entity CLI--><g id="elem_CLI"><rect fill="#F1F1F1" height="68.8906" rx="2.5" ry="2.5" style="stroke:#181818;stroke-width:0.5;" width="215" x="2028.22" y="1027.8469"/><text fill="#000000" font-family="sans-serif" font-size="14" lengthAdjust="spacing" textLength="62" x="2038.22" y="1050.842">CLI Tools</text><text fill="#000000" font-family="sans-serif" font-size="14" lengthAdjust="spacing" textLength="91" x="2038.22" y="1067.1389">(bin/console)</text><text fill="#000000" font-family="sans-serif" font-size="14" lengthAdjust="spacing" textLength="195" x="2038.22" y="1083.4357">(migrations, cache, jwt keys)</text></g><!--entity VENDOR--><g id="elem_VENDOR"><rect fill="#F1F1F1" height="55.5938" rx="2.5" ry="2.5" style="stroke:#181818;stroke-width:0.5;" width="151" x="2060.22" y="937.4969"/><polygon fill="#F1F1F1" points="2194.22,942.4969,2194.22,956.4969,2206.22,956.4969,2206.22,948.4969,2200.22,942.4969,2194.22,942.4969" style="stroke:#181818;stroke-width:0.5;"/><line style="stroke:#181818;stroke-width:0.5;" x1="2200.22" x2="2200.22" y1="942.4969" y2="948.4969"/><line style="stroke:#181818;stroke-width:0.5;" x1="2206.22" x2="2200.22" y1="948.4969" y2="948.4969"/><text fill="#000000" font-family="sans-serif" font-size="14" lengthAdjust="spacing" textLength="53" x="2070.22" y="963.492">vendor/</text><text fill="#000000" font-family="sans-serif" font-size="14" lengthAdjust="spacing" textLength="121" x="2070.22" y="979.7889">(Composer deps)</text></g><!--entity DBS--><g id="elem_DBS"><rect fill="#F1F1F1" height="68.8906" rx="2.5" ry="2.5" style="stroke:#181818;stroke-width:0.5;" width="200" x="2035.72" y="724.8469"/><text fill="#000000" font-family="sans-serif" font-size="14" lengthAdjust="spacing" textLength="69" x="2045.72" y="747.842">Schemas:</text><text fill="#000000" font-family="sans-serif" font-size="14" lengthAdjust="spacing" textLength="145" x="2045.72" y="764.1389">core + course tables</text><text fill="#000000" font-family="sans-serif" font-size="14" lengthAdjust="spacing" textLength="180" x="2045.72" y="780.4357">(settings, resource_*, c_*)</text></g><!--entity VAR--><g id="elem_VAR"><rect fill="#F1F1F1" height="55.5938" rx="2.5" ry="2.5" style="stroke:#181818;stroke-width:0.5;" width="189" x="2041.22" y="492.4969"/><polygon fill="#F1F1F1" points="2213.22,497.4969,2213.22,511.4969,2225.22,511.4969,2225.22,503.4969,2219.22,497.4969,2213.22,497.4969" style="stroke:#181818;stroke-width:0.5;"/><line style="stroke:#181818;stroke-width:0.5;" x1="2219.22" x2="2219.22" y1="497.4969" y2="503.4969"/><line style="stroke:#181818;stroke-width:0.5;" x1="2225.22" x2="2219.22" y1="503.4969" y2="503.4969"/><text fill="#000000" font-family="sans-serif" font-size="14" lengthAdjust="spacing" textLength="25" x="2051.22" y="518.492">var/</text><text fill="#000000" font-family="sans-serif" font-size="14" lengthAdjust="spacing" textLength="159" x="2051.22" y="534.7889">(cache, logs, sessions)</text></g><!--entity THEMES--><g id="elem_THEMES"><rect fill="#F1F1F1" height="55.5938" rx="2.5" ry="2.5" style="stroke:#181818;stroke-width:0.5;" width="168" x="2051.72" y="401.4969"/><polygon fill="#F1F1F1" points="2202.72,406.4969,2202.72,420.4969,2214.72,420.4969,2214.72,412.4969,2208.72,406.4969,2202.72,406.4969" style="stroke:#181818;stroke-width:0.5;"/><line style="stroke:#181818;stroke-width:0.5;" x1="2208.72" x2="2208.72" y1="406.4969" y2="412.4969"/><line style="stroke:#181818;stroke-width:0.5;" x1="2214.72" x2="2208.72" y1="412.4969" y2="412.4969"/><text fill="#000000" font-family="sans-serif" font-size="14" lengthAdjust="spacing" textLength="83" x="2061.72" y="427.492">var/themes/</text><text fill="#000000" font-family="sans-serif" font-size="14" lengthAdjust="spacing" textLength="138" x="2061.72" y="443.7889">(colors.css, images)</text></g><!--entity UPLOADS--><g id="elem_UPLOADS"><rect fill="#F1F1F1" height="55.5938" rx="2.5" ry="2.5" style="stroke:#181818;stroke-width:0.5;" width="200" x="2035.72" y="310.4969"/><polygon fill="#F1F1F1" points="2218.72,315.4969,2218.72,329.4969,2230.72,329.4969,2230.72,321.4969,2224.72,315.4969,2218.72,315.4969" style="stroke:#181818;stroke-width:0.5;"/><line style="stroke:#181818;stroke-width:0.5;" x1="2224.72" x2="2224.72" y1="315.4969" y2="321.4969"/><line style="stroke:#181818;stroke-width:0.5;" x1="2230.72" x2="2224.72" y1="321.4969" y2="321.4969"/><text fill="#000000" font-family="sans-serif" font-size="14" lengthAdjust="spacing" textLength="130" x="2045.72" y="336.492">uploads/resources</text><text fill="#000000" font-family="sans-serif" font-size="14" lengthAdjust="spacing" textLength="170" x="2045.72" y="352.7889">(Flysystem local adapter)</text></g><!--entity REDIS_SVC--><g id="elem_REDIS_SVC"><rect fill="#F1F1F1" height="68.8906" rx="2.5" ry="2.5" style="stroke:#181818;stroke-width:0.5;" width="200" x="2035.72" y="1251.8469"/><text fill="#000000" font-family="sans-serif" font-size="14" lengthAdjust="spacing" textLength="39" x="2045.72" y="1274.842">Redis</text><text fill="#000000" font-family="sans-serif" font-size="14" lengthAdjust="spacing" textLength="180" x="2045.72" y="1291.1389">Cache / Lock / Messenger</text><text fill="#000000" font-family="sans-serif" font-size="14" lengthAdjust="spacing" textLength="77" x="2045.72" y="1307.4357">(if enabled)</text></g><!--entity OBJ--><g id="elem_OBJ"><path d="M2032.9789,1686.8407 C2038.4498,1678.0808 2043.5102,1679.8244 2049.093,1686.7255 C2052.6291,1680.5778 2057.4418,1680.066 2061.8171,1685.829 C2065.4709,1678.4113 2072.1075,1677.5216 2077.5569,1683.7593 C2081.8691,1675.4297 2087.9985,1676.7767 2093.1205,1682.8865 C2098.2468,1675.7447 2103.8945,1675.6718 2108.7187,1683.2076 C2112.2068,1677.1048 2116.7647,1674.8033 2122.1417,1681.1751 C2126.2223,1674.4542 2130.9884,1672.7337 2136.8309,1679.2147 C2142.1898,1671.6323 2148.782,1673.0292 2153.3407,1680.1153 C2158.2618,1673.8524 2163.5843,1674.685 2167.8988,1680.8273 C2172.5106,1675.2404 2177.9148,1676.281 2180.454,1682.9505 C2186.5349,1676.7241 2192.6671,1676.9896 2196.4072,1685.4869 C2200.7824,1679.0251 2206.9324,1678.6079 2211.765,1684.9377 C2216.6702,1679.0552 2221.1212,1677.9161 2225.5914,1685.3881 C2231.788,1677.8975 2239.2973,1678.3062 2242.3827,1688.3649 C2249.2578,1692.7545 2249.6053,1699.0197 2242.2749,1703.3068 C2251.423,1708.1915 2250.2732,1713.4038 2244.1314,1719.99 C2249.7535,1725.1984 2249.2463,1729.5603 2242.7919,1733.5782 C2251.0624,1738.5049 2249.0111,1745.9446 2241.3508,1749.4223 C2236.4752,1756.7896 2231.4026,1756.8742 2225.4033,1750.7507 C2222.1313,1757.1703 2217.0602,1757.8725 2212.2821,1752.4145 C2207.98,1759.2257 2203.5353,1760.1942 2197.5971,1754.3066 C2194.1811,1762.3984 2187.2705,1762.3397 2182.7031,1755.4514 C2177.9263,1762.247 2171.0443,1762.9663 2166.1239,1755.6198 C2164.3023,1762.5057 2158.1796,1764.1102 2153.1069,1759.2109 C2148.5227,1766.2324 2140.9105,1768.0992 2136.2406,1759.3023 C2132.3889,1766.1357 2126.8537,1764.5722 2123.3005,1758.9912 C2117.127,1766.045 2111.6658,1763.843 2107.551,1756.7064 C2103.3507,1763.6472 2098.0098,1764.0587 2093.7787,1756.7361 C2088.8172,1763.0092 2081.7399,1762.28 2078.4565,1754.8586 C2073.3055,1761.9318 2066.3915,1761.7099 2063.1903,1752.9756 C2057.7697,1758.2357 2052.3372,1758.0279 2049.0458,1750.6016 C2043.9388,1757.3297 2037.8369,1757.1232 2032.7693,1750.5535 C2024.1038,1746.6524 2024.3536,1741.07 2031.0233,1735.4017 C2022.6902,1731.1478 2022.4563,1724.5918 2029.0972,1718.6193 C2020.3294,1713.61 2022.6325,1705.5011 2030.2447,1701.5957 C2024.8397,1695.3494 2025.8544,1690.7652 2032.9789,1686.8407 " fill="#F1F1F1" style="stroke:#181818;stroke-width:0.5;"/><text fill="#000000" font-family="sans-serif" font-size="14" lengthAdjust="spacing" textLength="103" x="2038.72" y="1705.842">Object Storage</text><text fill="#000000" font-family="sans-serif" font-size="14" lengthAdjust="spacing" textLength="194" x="2038.72" y="1722.1389">(AWS S3 / Azure Blob / GCS)</text><text fill="#000000" font-family="sans-serif" font-size="14" lengthAdjust="spacing" textLength="161" x="2038.72" y="1738.4357">(Optional via Flysystem)</text></g><!--entity BBB--><g id="elem_BBB"><path d="M2057.9304,2076.4926 C2062.4981,2070.5424 2066.5689,2070.89 2070.1497,2077.456 C2073.007,2072.0798 2077.6707,2070.6198 2081.4333,2076.5528 C2084.1002,2070.8706 2089.3235,2070.6412 2092.3838,2076.1684 C2094.4734,2070.9919 2099.2519,2071.0395 2102.3973,2075.013 C2106.9445,2070.5874 2111.661,2069.6993 2114.4863,2076.8163 C2117.391,2070.4672 2122.8156,2070.0784 2126.3231,2076.2463 C2128.1884,2070.4591 2132.9827,2070.128 2136.4009,2074.7416 C2139.7642,2068.9627 2143.8814,2070.1517 2147.1047,2074.8842 C2151.1169,2069.3074 2157.55,2068.8092 2160.2764,2076.1912 C2163.0963,2071.1914 2167.9109,2071.5307 2170.7538,2076.1661 C2174.741,2070.7114 2179.372,2070.7797 2182.3825,2077.1284 C2185.8336,2071.5935 2189.2889,2072.4414 2192.6258,2077.2417 C2196.3517,2071.4003 2200.8566,2070.6526 2205.3302,2076.4238 C2208.7875,2071.6456 2213.3186,2072.9012 2215.1785,2078.0142 C2221.0643,2079.5172 2222.9342,2084.3883 2218.0453,2088.7646 C2224.2117,2091.331 2224.2921,2096.9928 2218.6566,2100.1906 C2223.5308,2104.5007 2223.0273,2109.3617 2217.5122,2112.723 C2222.7019,2116.8436 2221.8476,2121.4407 2216.2637,2124.4103 C2213.2802,2128.929 2207.9198,2129.29 2205.5806,2123.7276 C2202.3209,2130.9967 2197.9482,2130.7728 2192.9133,2125.524 C2189.1829,2130.7759 2185.6958,2130.4986 2181.8511,2125.6492 C2178.4428,2130.1533 2174.6637,2129.7542 2171.7167,2125.1367 C2167.9191,2130.7932 2164.2601,2130.9879 2160.1129,2125.5007 C2156.6469,2132.1614 2152.2437,2131.9742 2148.2069,2126.0403 C2144.7521,2131.1781 2140.3878,2132.5529 2136.6326,2126.3467 C2133.0165,2132.5406 2128.9909,2131.8761 2125.0406,2126.687 C2122.3335,2132.0347 2116.9238,2133.0901 2113.8537,2127.0433 C2110.2917,2131.8928 2105.3797,2132.5472 2102.656,2126.2046 C2098.4788,2130.0277 2095.0077,2131.0004 2092.1426,2124.8248 C2088.8087,2131.0531 2083.2645,2131.3669 2080.0018,2124.7574 C2076.5692,2128.708 2072.2154,2127.7751 2070.0603,2123.2576 C2066.2406,2129.7517 2062.2889,2128.4616 2058.2552,2123.4776 C2051.8868,2121.4384 2050.1592,2116.6738 2054.2444,2111.2154 C2047.2371,2109.3131 2046.5183,2105.55 2050.6707,2100.0696 C2046.4007,2095.6344 2048.614,2091.1489 2053.9863,2089.8385 C2049.296,2084.3236 2050.0095,2078.2805 2057.9304,2076.4926 " fill="#F1F1F1" style="stroke:#181818;stroke-width:0.5;"/><text fill="#000000" font-family="sans-serif" font-size="14" lengthAdjust="spacing" textLength="100" x="2063.72" y="2095.992">BigBlueButton</text><text fill="#000000" font-family="sans-serif" font-size="14" lengthAdjust="spacing" textLength="144" x="2063.72" y="2112.2889">(Video conferencing)</text></g><!--entity ZOOM--><g id="elem_ZOOM"><path d="M2057.9304,1800.4926 C2062.4981,1794.5424 2066.5689,1794.89 2070.1497,1801.456 C2073.007,1796.0798 2077.6707,1794.6198 2081.4333,1800.5528 C2084.1002,1794.8706 2089.3235,1794.6412 2092.3838,1800.1684 C2094.4734,1794.9919 2099.2519,1795.0395 2102.3973,1799.013 C2106.9445,1794.5874 2111.661,1793.6993 2114.4863,1800.8163 C2117.391,1794.4672 2122.8156,1794.0784 2126.3231,1800.2463 C2128.1884,1794.4591 2132.9827,1794.128 2136.4009,1798.7416 C2139.7642,1792.9627 2143.8814,1794.1517 2147.1047,1798.8842 C2151.1169,1793.3074 2157.55,1792.8092 2160.2764,1800.1912 C2163.0963,1795.1914 2167.9109,1795.5307 2170.7538,1800.1661 C2174.741,1794.7114 2179.372,1794.7797 2182.3825,1801.1284 C2185.8336,1795.5935 2189.2889,1796.4414 2192.6258,1801.2417 C2196.3517,1795.4003 2200.8566,1794.6526 2205.3302,1800.4238 C2208.7875,1795.6456 2213.3186,1796.9012 2215.1785,1802.0142 C2221.0643,1803.5172 2222.9342,1808.3883 2218.0453,1812.7646 C2224.2117,1815.331 2224.2921,1820.9928 2218.6566,1824.1906 C2223.5308,1828.5007 2223.0273,1833.3617 2217.5122,1836.723 C2222.7019,1840.8436 2221.8476,1845.4407 2216.2637,1848.4103 C2213.2802,1852.929 2207.9198,1853.29 2205.5806,1847.7276 C2202.3209,1854.9967 2197.9482,1854.7728 2192.9133,1849.524 C2189.1829,1854.7759 2185.6958,1854.4986 2181.8511,1849.6492 C2178.4428,1854.1533 2174.6637,1853.7542 2171.7167,1849.1367 C2167.9191,1854.7932 2164.2601,1854.9879 2160.1129,1849.5007 C2156.6469,1856.1614 2152.2437,1855.9742 2148.2069,1850.0403 C2144.7521,1855.1781 2140.3878,1856.5529 2136.6326,1850.3467 C2133.0165,1856.5406 2128.9909,1855.8761 2125.0406,1850.687 C2122.3335,1856.0347 2116.9238,1857.0901 2113.8537,1851.0433 C2110.2917,1855.8928 2105.3797,1856.5472 2102.656,1850.2046 C2098.4788,1854.0277 2095.0077,1855.0004 2092.1426,1848.8248 C2088.8087,1855.0531 2083.2645,1855.3669 2080.0018,1848.7574 C2076.5692,1852.708 2072.2154,1851.7751 2070.0603,1847.2576 C2066.2406,1853.7517 2062.2889,1852.4616 2058.2552,1847.4776 C2051.8868,1845.4384 2050.1592,1840.6738 2054.2444,1835.2154 C2047.2371,1833.3131 2046.5183,1829.55 2050.6707,1824.0696 C2046.4007,1819.6344 2048.614,1815.1489 2053.9863,1813.8385 C2049.296,1808.3236 2050.0095,1802.2805 2057.9304,1800.4926 " fill="#F1F1F1" style="stroke:#181818;stroke-width:0.5;"/><text fill="#000000" font-family="sans-serif" font-size="14" lengthAdjust="spacing" textLength="41" x="2063.72" y="1819.992">Zoom</text><text fill="#000000" font-family="sans-serif" font-size="14" lengthAdjust="spacing" textLength="144" x="2063.72" y="1836.2889">(Video conferencing)</text></g><!--entity OO--><g id="elem_OO"><path d="M2085.603,1899.8781 C2088.0434,1893.4239 2093.3744,1893.2394 2097.5632,1898.0161 C2101.7624,1892.5684 2107.0538,1892.5729 2110.4677,1898.8783 C2113.6563,1890.75 2119.4519,1890.6831 2124.5632,1897.0025 C2127.9489,1891.6318 2133.8092,1892.5274 2136.6118,1897.6708 C2141.3507,1891.0348 2145.4402,1892.6446 2149.8069,1898.0777 C2153.6821,1891.4453 2159.3982,1891.8153 2163.6499,1897.66 C2168.5241,1892.4326 2171.9066,1893.9684 2175.0608,1899.4864 C2179.8846,1893.6362 2184.3052,1893.9986 2188.5872,1900.0996 C2194.8236,1901.5859 2196.4289,1905.6236 2192.1122,1910.6393 C2199.8948,1910.927 2201.2314,1916.859 2197.3096,1922.3439 C2201.1349,1928.2336 2199.1109,1932.8047 2191.9246,1933.2645 C2196.01,1937.8764 2195.7641,1944.0973 2188.4321,1945.4319 C2185.8164,1951.3532 2181.3805,1953.9863 2176.0822,1948.2814 C2172.6131,1953.6825 2167.1231,1953.9578 2163.3385,1948.6571 C2160.32,1955.5762 2154.8506,1957.6378 2148.7956,1952.2433 C2145.756,1959.4282 2140.7878,1959.5035 2135.9969,1954.0115 C2131.2946,1959.6455 2125.0912,1958.7636 2123.0821,1951.3464 C2119.1397,1955.9141 2113.4727,1955.6271 2111.5298,1949.2382 C2106.5042,1954.8912 2101.4706,1952.6934 2098.91,1946.5917 C2093.8926,1952.5151 2088.7338,1952.1513 2084.741,1945.4425 C2080.3876,1941.9438 2079.7157,1938.0014 2085.3358,1935.075 C2077.2004,1932.6335 2076.9135,1926.6647 2082.7959,1921.5841 C2078.3852,1917.7263 2077.4731,1913.3851 2083.581,1910.2563 C2079.162,1906.6596 2079.3962,1901.4045 2085.603,1899.8781 " fill="#F1F1F1" style="stroke:#181818;stroke-width:0.5;"/><text fill="#000000" font-family="sans-serif" font-size="14" lengthAdjust="spacing" textLength="69" x="2091.22" y="1917.992">OnlyOffice</text><text fill="#000000" font-family="sans-serif" font-size="14" lengthAdjust="spacing" textLength="89" x="2091.22" y="1934.2889">(Doc editing)</text></g><!--entity LTI--><g id="elem_LTI"><path d="M2059.7003,1995.278 C2065.1914,1988.8253 2069.7424,1990.0567 2073.8469,1996.7682 C2076.5782,1991.2891 2080.9156,1991.0119 2085.1418,1994.981 C2088.7178,1989.4675 2094.5433,1988.6668 2097.9986,1995.1108 C2100.6809,1987.6495 2107.5913,1986.9788 2112.1869,1993.1142 C2116.0208,1988.0286 2120.7832,1986.5928 2124.427,1993.3113 C2127.5075,1986.3505 2133.557,1987.5361 2137.0495,1992.889 C2140.713,1986.1065 2146.8114,1987.5728 2150.2123,1993.1682 C2155.1485,1987.9669 2159.2475,1988.0113 2163.2573,1994.2267 C2166.3552,1988.3591 2171.6429,1987.6233 2175.4046,1993.5427 C2179.1402,1987.5715 2184.4076,1989.6203 2186.9575,1994.7741 C2190.9207,1988.626 2197.4828,1987.0285 2201.5875,1994.6235 C2207.0596,1989.9577 2210.9764,1990.8968 2214.2668,1997.1557 C2224.1785,1997.997 2225.1533,2003.9511 2221.1494,2011.4791 C2225.6712,2018.9604 2222.6654,2027.4579 2212.848,2027.5172 C2208.5321,2033.7323 2204.1045,2033.8188 2199.8362,2027.468 C2196.36,2033.2533 2192.1888,2034.7053 2187.2353,2029.1026 C2184.5427,2036.0016 2178.9025,2035.6033 2174.5939,2030.8566 C2171.6005,2036.7701 2166.2329,2037.3911 2162.5052,2031.616 C2158.8715,2039.0482 2154.7082,2039.8911 2149.2954,2033.2909 C2145.0311,2039.6115 2139.8675,2040.0044 2136.1536,2032.7578 C2132.6064,2038.1594 2127.4874,2037.7931 2124.0407,2032.6425 C2119.7529,2038.2143 2114.6652,2036.1593 2112.0269,2030.8253 C2108.232,2037.4971 2102.4701,2036.8077 2099.2952,2030.2296 C2095.5581,2036.3773 2090.0219,2035.5812 2086.5858,2029.906 C2081.4747,2036.3603 2076.5912,2035.0148 2073.3222,2028.0811 C2068.5464,2034.2986 2061.8324,2032.3759 2059.4701,2025.5233 C2051.7977,2023.4776 2050.8372,2018.2724 2054.7761,2012.1509 C2049.2145,2004.1525 2051.1272,1999.1513 2059.7003,1995.278 " fill="#F1F1F1" style="stroke:#181818;stroke-width:0.5;"/><text fill="#000000" font-family="sans-serif" font-size="14" lengthAdjust="spacing" textLength="139" x="2066.22" y="2015.142">LTI 1.3 Tool Provider</text></g><!--entity MAIL--><g id="elem_MAIL"><path d="M2060.3364,1589.695 C2064.4748,1583.901 2068.69,1584.6766 2072.793,1589.7356 C2076.2545,1582.7752 2081.4773,1581.1297 2086.7635,1587.8758 C2091.3017,1582.692 2096.2159,1582.1915 2099.5498,1589.1445 C2102.3013,1583.964 2107.2249,1582.7818 2110.7194,1588.3741 C2114.4103,1582.1822 2118.9889,1581.0367 2123.9723,1586.9602 C2128.304,1580.8127 2132.4709,1581.5372 2136.7979,1586.9654 C2140.1036,1581.0043 2145.7141,1582.2838 2148.4804,1587.5279 C2152.2351,1580.0988 2159.2663,1580.324 2162.6817,1587.85 C2165.984,1582.3883 2172.0544,1581.6659 2175.6959,1587.4576 C2179.4336,1582.7797 2184.2271,1581.8731 2187.5543,1587.9118 C2191.1081,1582.5985 2195.9864,1581.7357 2199.2082,1588.2392 C2204.1174,1580.9925 2208.4561,1580.7508 2213.4859,1588.1214 C2219.726,1590.4758 2222.1378,1596.9973 2216.2423,1601.7976 C2221.6972,1602.69 2224.5071,1606.0461 2221.3815,1611.4888 C2226.9102,1617.5406 2224.5932,1623.7623 2216.5431,1624.9241 C2220.4306,1630.7708 2218.8479,1633.8976 2212.155,1635.2466 C2209.5266,1640.9531 2204.6005,1642.3374 2200.2493,1637.1252 C2197.5829,1643.7986 2192.7591,1645.2387 2187.6694,1639.6014 C2183.6095,1646.9645 2178.1497,1646.953 2173.849,1639.8311 C2170.1705,1645.3083 2166.0927,1646.2973 2161.61,1640.7216 C2158.3724,1646.9024 2153.0808,1647.5593 2148.5282,1642.2141 C2146.0377,1649.5249 2141.3554,1649.5407 2135.9324,1645.4552 C2131.2367,1650.4237 2127.546,1649.883 2124.5868,1643.69 C2120.367,1649.42 2114.2695,1649.1532 2111.5123,1642.1841 C2107.2577,1647.9735 2102.0184,1646.021 2099.5951,1640.2898 C2094.0393,1645.8642 2089.2272,1645.3335 2086.0869,1637.8005 C2082.3522,1642.9615 2076.926,1644.1508 2073.4316,1637.5422 C2067.9302,1643.5753 2063.7758,1641.9186 2059.8173,1635.8119 C2054.5246,1632.9692 2053.4188,1629.2408 2057.8847,1624.7007 C2051.405,1621.4247 2051.3653,1617.5689 2055.9591,1612.5395 C2051.2082,1608.1759 2053.1275,1603.8346 2058.2284,1601.4952 C2053.0514,1597.3984 2054.8093,1591.8796 2060.3364,1589.695 " fill="#F1F1F1" style="stroke:#181818;stroke-width:0.5;"/><text fill="#000000" font-family="sans-serif" font-size="14" lengthAdjust="spacing" textLength="138" x="2066.72" y="1607.992">SMTP / Mail Provider</text><text fill="#000000" font-family="sans-serif" font-size="14" lengthAdjust="spacing" textLength="112" x="2066.72" y="1624.2889">(Symfony Mailer)</text></g><!--entity NET--><g id="elem_NET"><path d="M388.0377,1201.923 C390.811,1195.9011 395.8519,1194.7782 400.0218,1200.4975 C404.0081,1193.355 411.053,1194.5194 414.3447,1201.2164 C417.7636,1195.5439 421.8452,1194.5235 426.5126,1199.8332 C429.6951,1191.8802 436.8157,1192.1438 441.4117,1198.3454 C446.4655,1193.2869 450.6113,1194.0554 453.8496,1200.3367 C458.5471,1193.7136 462.9676,1194.7492 467.3119,1200.7144 C471.4111,1195.2915 477.3443,1196.727 479.8011,1202.54 C483.9788,1195.2912 488.9036,1195.0371 494.2567,1201.2808 C504.1776,1202.2447 506.8927,1209.4496 500.7431,1217.0316 C507.099,1224.9854 503.0284,1232.3723 493.6563,1233.5978 C491.0702,1241.2315 485.1527,1241.0965 480.4219,1235.7916 C477.8546,1243.1319 471.841,1243.5016 467.6518,1237.3237 C464.9244,1244.4441 458.731,1245.3768 454.0046,1239.408 C451.2372,1246.5652 445.0657,1247.6476 439.5518,1242.6825 C434.1306,1246.6207 429.6775,1247.1042 427.337,1239.4394 C422.5346,1246.729 415.8923,1244.6171 412.9006,1237.6108 C408.3223,1242.2336 403.8489,1240.9447 401.4587,1235.1967 C397.087,1240.996 390.625,1239.3835 388.1439,1233.1113 C378.8341,1232.2465 375.101,1226.2348 379.0795,1217.6031 C375.3988,1208.38 378.377,1203.524 388.0377,1201.923 " fill="#F2F2F2" style="stroke:#181818;stroke-width:0.5;"/><text fill="#000000" font-family="sans-serif" font-size="14" lengthAdjust="spacing" textLength="93" x="393" y="1221.142">Internet / LAN</text></g><!--link DC to GMN25--><g id="link_DC_GMN25"><path d="M1360.5962,179.0872 C1360.9927,179.0015 1361.3895,178.9158 1361.7867,178.8299 C1364.9645,178.1431 1368.1671,177.4509 1371.3901,176.7542 C1377.8362,175.361 1384.3641,173.9501 1390.9388,172.5291 C1417.2375,166.845 1444.285,160.9994 1469.84,155.4769 " fill="none" id="DC-GMN25" style="stroke:#181818;stroke-width:1.0;stroke-dasharray:7.0,7.0;"/></g><!--link BROWSER to NET--><g id="link_BROWSER_NET"><path d="M208.18,1216.2969 C261.97,1216.2969 323.62,1216.2969 371.65,1216.2969 " fill="none" id="BROWSER-to-NET" style="stroke:#181818;stroke-width:1.0;"/><polygon fill="#181818" points="377.65,1216.2969,368.65,1212.2969,372.65,1216.2969,368.65,1220.2969,377.65,1216.2969" style="stroke:#181818;stroke-width:1.0;"/><text fill="#000000" font-family="sans-serif" font-size="13" lengthAdjust="spacing" textLength="101" x="241" y="1197.3638">HTTPS requests</text><text fill="#000000" font-family="sans-serif" font-size="13" lengthAdjust="spacing" textLength="106" x="241" y="1212.4966">HTML/CSS/JS/API</text></g><!--link NET to EDGE--><g id="link_NET_EDGE"><path d="M501.41,1216.2969 C526.765,1216.2969 557.845,1216.2969 590.2967,1216.2969 C606.5226,1216.2969 623.0914,1216.2969 639.4589,1216.2969 C640.4819,1216.2969 635.5041,1216.2969 636.5254,1216.2969 " fill="none" id="NET-to-EDGE" style="stroke:#181818;stroke-width:1.0;"/><polygon fill="#181818" points="642.5254,1216.2969,633.5254,1212.2969,637.5254,1216.2969,633.5254,1220.2969,642.5254,1216.2969" style="stroke:#181818;stroke-width:1.0;"/><text fill="#000000" font-family="sans-serif" font-size="13" lengthAdjust="spacing" textLength="87" x="532" y="1212.3638">TLS + routing</text></g><!--link EDGE to WEB--><g id="link_EDGE_WEB"><path d="M964.7327,1216.2969 C966.3365,1216.2969 967.9447,1216.2969 969.5567,1216.2969 C972.7808,1216.2969 976.0205,1216.2969 979.2727,1216.2969 C992.2815,1216.2969 1005.4902,1216.2969 1018.6987,1216.2969 C1071.5331,1216.2969 1124.3659,1216.2969 1164.3964,1216.2969 C1184.4116,1216.2969 1201.2263,1216.2969 1213.2403,1216.2969 C1216.2437,1216.2969 1218.9472,1216.2969 1221.3256,1216.2969 C1222.5148,1216.2969 1223.6227,1216.2969 1224.6463,1216.2969 C1224.9022,1216.2969 1225.1528,1216.2969 1225.3981,1216.2969 C1225.5207,1216.2969 1219.6421,1216.2969 1219.762,1216.2969 " fill="none" id="EDGE-to-WEB" style="stroke:#181818;stroke-width:1.0;"/><polygon fill="#181818" points="1225.762,1216.2969,1216.762,1212.2969,1220.762,1216.2969,1216.762,1220.2969,1225.762,1216.2969" style="stroke:#181818;stroke-width:1.0;"/><text fill="#000000" font-family="sans-serif" font-size="13" lengthAdjust="spacing" textLength="77" x="988" y="1197.3638">HTTP/HTTPS</text><text fill="#000000" font-family="sans-serif" font-size="13" lengthAdjust="spacing" textLength="149" x="988" y="1212.4966">(Reverse proxy -&gt; web)</text></g><!--link WEB to PHP--><g id="link_WEB_PHP"><path d="M1306.8292,1168.271 C1307.9461,1167.8362 1309.0653,1167.4054 1310.1868,1166.9784 C1312.4297,1166.1245 1314.6814,1165.2861 1316.9411,1164.463 C1335.018,1157.8784 1353.5992,1152.2722 1372.1872,1147.4994 C1390.7752,1142.7266 1409.3699,1138.7872 1427.4741,1135.5363 C1436.5262,1133.9109 1445.4556,1132.4576 1454.2003,1131.1583 C1458.5726,1130.5087 1462.8987,1129.8975 1467.1708,1129.3226 C1469.3069,1129.0352 1471.4294,1128.7568 1473.5376,1128.4872 C1473.8011,1128.4535 1474.0644,1128.4199 1474.3274,1128.3865 C1474.4589,1128.3698 1468.638,1129.1071 1468.7694,1129.0904 " fill="none" id="WEB-to-PHP" style="stroke:#181818;stroke-width:1.0;"/><polygon fill="#181818" points="1474.7218,1128.3364,1465.2905,1125.4991,1469.7615,1128.9647,1466.2958,1133.4357,1474.7218,1128.3364" style="stroke:#181818;stroke-width:1.0;"/><text fill="#000000" font-family="sans-serif" font-size="13" lengthAdjust="spacing" textLength="93" x="1278.22" y="1124.8038">FastCGI / HTTP</text><text fill="#000000" font-family="sans-serif" font-size="13" lengthAdjust="spacing" textLength="102" x="1278.22" y="1139.9366">(PHP execution)</text></g><!--link WEB to BUILD--><g id="link_WEB_BUILD"><path d="M1235.14,1216.4169 C1237.79,1217.1569 1252.49,1221.2069 1264.72,1223.2969 C1356.41,1238.9969 1457.4208,1248.9478 1525.4708,1254.6278 " fill="none" id="WEB-to-BUILD" style="stroke:#181818;stroke-width:1.0;"/><polygon fill="#181818" points="1531.45,1255.1269,1522.8139,1250.3921,1526.4673,1254.711,1522.1485,1258.3644,1531.45,1255.1269" style="stroke:#181818;stroke-width:1.0;"/><text fill="#000000" font-family="sans-serif" font-size="13" lengthAdjust="spacing" textLength="127" x="1265.72" y="1204.3638">serves static assets</text><text fill="#000000" font-family="sans-serif" font-size="13" lengthAdjust="spacing" textLength="86" x="1265.72" y="1219.4966">/public/build/*</text></g><!--link WEB to THEMES--><g id="link_WEB_THEMES"><path d="M1242.4485,1168.0405 C1242.4877,1167.8633 1242.5271,1167.6857 1242.5666,1167.508 C1242.7248,1166.7969 1242.8859,1166.0821 1243.05,1165.3639 C1243.7062,1162.4909 1244.4096,1159.5625 1245.1629,1156.5974 C1246.6696,1150.6673 1248.3761,1144.5904 1250.3047,1138.5161 C1254.1619,1126.3675 1258.9075,1114.2294 1264.72,1103.2969 C1346.21,950.0769 1770.24,579.5369 1808.72,554.2969 C1884.36,504.6769 1976.8472,472.0973 2045.6372,452.1573 " fill="none" id="WEB-to-THEMES" style="stroke:#181818;stroke-width:1.0;"/><polygon fill="#181818" points="2051.4,450.4869,2041.6422,449.1507,2046.5977,451.8789,2043.8695,456.8344,2051.4,450.4869" style="stroke:#181818;stroke-width:1.0;"/><text fill="#000000" font-family="sans-serif" font-size="13" lengthAdjust="spacing" textLength="134" x="1534.22" y="559.0638">serves theme assets</text><text fill="#000000" font-family="sans-serif" font-size="13" lengthAdjust="spacing" textLength="64" x="1534.22" y="574.1966">/themes/*</text></g><!--link WEB to UPLOADS--><g id="link_WEB_UPLOADS"><path d="M1239.589,1167.6306 C1239.6187,1167.3695 1239.6486,1167.1076 1239.6786,1166.845 C1239.7987,1165.7945 1239.9211,1164.7317 1240.0458,1163.6572 C1240.2951,1161.5082 1240.5536,1159.3122 1240.8212,1157.0727 C1241.3566,1152.5938 1241.9289,1147.9413 1242.5388,1143.1444 C1247.4175,1104.7694 1254.7,1057.1569 1264.72,1015.2969 C1316.74,797.9669 1261.99,692.5069 1423.72,538.2969 C1511.94,454.1769 1855.3784,385.7129 2029.3284,355.5229 " fill="none" id="WEB-to-UPLOADS" style="stroke:#181818;stroke-width:1.0;"/><polygon fill="#181818" points="2035.24,354.4969,2025.6886,352.0948,2030.3136,355.3519,2027.0566,359.977,2035.24,354.4969" style="stroke:#181818;stroke-width:1.0;"/><text fill="#000000" font-family="sans-serif" font-size="13" lengthAdjust="spacing" textLength="121" x="1540.72" y="389.3538">downloads/uploads</text><text fill="#000000" font-family="sans-serif" font-size="13" lengthAdjust="spacing" textLength="73" x="1540.72" y="404.4866">(resources)</text></g><!--link PHP to DB--><g id="link_PHP_DB"><path d="M1917.0474,855.0743 C1920.2816,849.0229 1923.4774,843.0443 1926.6221,837.1628 C1939.2012,813.6366 1950.963,791.663 1961.0909,772.7958 C1981.3469,735.0613 1995.0675,709.7519 1995.72,709.2969 C1998.8675,707.0975 2002.1538,705.093 2005.55,703.2679 C2007.2481,702.3553 2008.9736,701.4875 2010.723,700.6626 C2010.9417,700.5594 2005.7178,702.9819 2005.9372,702.8801 " fill="none" id="PHP-to-DB" style="stroke:#181818;stroke-width:1.0;"/><polygon fill="#181818" points="2011.3801,700.3552,2001.5325,700.5139,2006.8444,702.4593,2004.899,707.7711,2011.3801,700.3552" style="stroke:#181818;stroke-width:1.0;"/><text fill="#000000" font-family="sans-serif" font-size="13" lengthAdjust="spacing" textLength="127" x="1834.72" y="706.8238">SQL (Doctrine ORM)</text><text fill="#000000" font-family="sans-serif" font-size="13" lengthAdjust="spacing" textLength="60" x="1834.72" y="721.9566">TCP 3306</text></g><!--link PHP to STORAGE--><g id="link_PHP_STORAGE"><path d="M1793.1853,855.5855 C1793.1278,854.9036 1793.0706,854.2222 1793.0138,853.5413 C1792.5594,848.0943 1792.1291,842.682 1791.7325,837.3174 C1790.1461,815.859 1789.0994,795.1639 1789.2106,776.0653 C1789.4331,737.8681 1794.2875,706.0569 1808.72,687.2969 C1854.725,627.4969 1935.315,601.4344 2004.8538,590.3531 C2007.0268,590.0068 2003.2535,590.5519 2005.4036,590.2343 " fill="none" id="PHP-to-STORAGE" style="stroke:#181818;stroke-width:1.0;"/><polygon fill="#181818" points="2011.3392,589.3576,2001.8513,586.7157,2006.3929,590.0882,2003.0204,594.6298,2011.3392,589.3576" style="stroke:#181818;stroke-width:1.0;"/><text fill="#000000" font-family="sans-serif" font-size="13" lengthAdjust="spacing" textLength="63" x="1857.22" y="575.7838">read/write</text><text fill="#000000" font-family="sans-serif" font-size="13" lengthAdjust="spacing" textLength="82" x="1857.22" y="590.9166">var/, uploads</text></g><!--link PHP to OBJ--><g id="link_PHP_OBJ"><path d="M1635.7126,1128.4138 C1635.9473,1128.4815 1636.1829,1128.5497 1636.4193,1128.6183 C1636.8922,1128.7556 1637.3686,1128.8948 1637.8484,1129.0359 C1638.8081,1129.318 1639.7814,1129.6078 1640.7676,1129.9053 C1642.74,1130.5003 1644.7642,1131.1262 1646.8342,1131.7838 C1655.114,1134.4142 1664.1266,1137.5525 1673.4938,1141.2544 C1710.9625,1156.0619 1754.105,1179.8869 1778.72,1216.2969 C1843.12,1311.5669 1758.62,1369.7869 1808.72,1473.2969 C1859.93,1579.0869 1897.88,1595.1669 1995.72,1660.2969 C2005.06,1666.5069 2009.8238,1669.543 2020.2038,1674.783 " fill="none" id="PHP-to-OBJ" style="stroke:#181818;stroke-width:1.0;"/><polygon fill="#181818" points="2025.56,1677.4869,2019.3283,1669.8602,2021.0965,1675.2336,2015.7231,1677.0018,2025.56,1677.4869" style="stroke:#181818;stroke-width:1.0;"/><text fill="#000000" font-family="sans-serif" font-size="13" lengthAdjust="spacing" textLength="118" x="1839.22" y="1439.3638">Flysystem adapter</text><text fill="#000000" font-family="sans-serif" font-size="13" lengthAdjust="spacing" textLength="100" x="1839.22" y="1454.4966">(S3/Azure/GCS)</text><text fill="#000000" font-family="sans-serif" font-size="13" lengthAdjust="spacing" textLength="78" x="1839.22" y="1469.6294">if configured</text></g><!--link PHP to MAIL--><g id="link_PHP_MAIL"><path d="M1622.0593,1128.422 C1622.2378,1128.498 1622.4174,1128.5746 1622.598,1128.6516 C1622.9592,1128.8057 1623.3244,1128.9618 1623.6936,1129.1199 C1624.432,1129.436 1625.1861,1129.7601 1625.9556,1130.092 C1627.4945,1130.7557 1629.0946,1131.4508 1630.7517,1132.1764 C1634.0659,1133.6275 1637.6083,1135.2008 1641.3456,1136.89 C1648.8202,1140.2686 1657.0744,1144.1113 1665.8425,1148.3694 C1700.915,1165.4019 1744.21,1189.0819 1778.72,1216.2969 C1923.88,1330.7669 2056.2337,1502.9998 2108.5437,1574.6998 " fill="none" id="PHP-to-MAIL" style="stroke:#181818;stroke-width:1.0;"/><polygon fill="#181818" points="2112.08,1579.5469,2110.007,1569.9187,2109.1331,1575.5076,2103.5441,1574.6337,2112.08,1579.5469" style="stroke:#181818;stroke-width:1.0;"/><text fill="#000000" font-family="sans-serif" font-size="13" lengthAdjust="spacing" textLength="70" x="1863.22" y="1224.7338">send email</text><text fill="#000000" font-family="sans-serif" font-size="13" lengthAdjust="spacing" textLength="69" x="1863.22" y="1239.8666">(SMTP/API)</text></g><!--link PHP to REDIS--><g id="link_PHP_REDIS"><path d="M1648.1735,1128.5819 C1648.7802,1128.6913 1649.3919,1128.8016 1650.0086,1128.9128 C1651.242,1129.1351 1652.4953,1129.361 1653.768,1129.5905 C1663.9492,1131.4258 1675.3705,1133.4848 1687.7841,1135.7227 C1737.4381,1144.6741 1802.9663,1156.4875 1868.4925,1168.3006 C1901.2556,1174.2072 1934.0183,1180.1137 1964.796,1185.6623 C1980.1848,1188.4366 1995.0774,1191.1214 2009.2257,1193.6721 C2009.6679,1193.7518 2004.2045,1192.7668 2004.6451,1192.8463 " fill="none" id="PHP-to-REDIS" style="stroke:#181818;stroke-width:1.0;"/><polygon fill="#181818" points="2010.55,1193.9108,2002.4024,1188.3775,2005.6293,1193.0237,2000.9831,1196.2506,2010.55,1193.9108" style="stroke:#181818;stroke-width:1.0;"/><text fill="#000000" font-family="sans-serif" font-size="13" lengthAdjust="spacing" textLength="111" x="1842.72" y="1140.7638">cache/lock/queue</text><text fill="#000000" font-family="sans-serif" font-size="13" lengthAdjust="spacing" textLength="62" x="1842.72" y="1155.8966">if enabled</text></g><!--link PHP to BBB--><g id="link_PHP_BBB"><path d="M1637.798,1128.391 C1638.04,1128.4582 1638.2828,1128.5258 1638.5265,1128.5938 C1639.5014,1128.8662 1640.4899,1129.1461 1641.4913,1129.4338 C1643.4941,1130.0092 1645.5484,1130.6156 1647.648,1131.254 C1656.0466,1133.8076 1665.1709,1136.8734 1674.6262,1140.5181 C1712.4475,1155.0969 1755.565,1178.9369 1778.72,1216.2969 C1826.16,1292.8469 1750.2,1957.8469 1808.72,2026.2969 C1861.4,2087.9069 1908.67,2043.3669 1987.72,2061.2969 C2007.39,2065.7569 2022.6075,2069.4586 2042.4475,2074.5386 " fill="none" id="PHP-to-BBB" style="stroke:#181818;stroke-width:1.0;"/><polygon fill="#181818" points="2048.26,2076.0269,2040.5335,2069.9195,2043.4163,2074.7866,2038.5491,2077.6694,2048.26,2076.0269" style="stroke:#181818;stroke-width:1.0;"/><text fill="#000000" font-family="sans-serif" font-size="13" lengthAdjust="spacing" textLength="124" x="1836.22" y="2007.3638">meeting create/join</text><text fill="#000000" font-family="sans-serif" font-size="13" lengthAdjust="spacing" textLength="118" x="1836.22" y="2022.4966">webhooks callback</text></g><!--link PHP to ZOOM--><g id="link_PHP_ZOOM"><path d="M1636.8604,1128.3307 C1637.3384,1128.4646 1637.82,1128.6004 1638.3049,1128.7381 C1639.2747,1129.0136 1640.2582,1129.2967 1641.2546,1129.5875 C1643.2475,1130.1691 1645.2918,1130.7816 1647.3817,1131.4261 C1655.7413,1134.004 1664.8288,1137.0928 1674.255,1140.7556 C1711.96,1155.4069 1755.085,1179.2419 1778.72,1216.2969 C1835.72,1305.6569 1747.98,1605.4369 1808.72,1692.2969 C1863.07,1770.0269 1965.7622,1800.6671 2042.6522,1813.5271 " fill="none" id="PHP-to-ZOOM" style="stroke:#181818;stroke-width:1.0;"/><polygon fill="#181818" points="2048.57,1814.5169,2040.3531,1809.087,2043.6385,1813.6921,2039.0335,1816.9774,2048.57,1814.5169" style="stroke:#181818;stroke-width:1.0;"/><text fill="#000000" font-family="sans-serif" font-size="13" lengthAdjust="spacing" textLength="77" x="1859.72" y="1673.3638">meeting API</text><text fill="#000000" font-family="sans-serif" font-size="13" lengthAdjust="spacing" textLength="61" x="1859.72" y="1688.4966">(optional)</text></g><!--link PHP to OO--><g id="link_PHP_OO"><path d="M1637.7017,1128.454 C1637.9432,1128.5214 1638.1855,1128.5893 1638.4287,1128.6577 C1639.4014,1128.9314 1640.3878,1129.2126 1641.387,1129.5016 C1643.3856,1130.0796 1645.4356,1130.6885 1647.5311,1131.3294 C1655.9131,1133.893 1665.0219,1136.9684 1674.465,1140.6206 C1712.2375,1155.2294 1755.36,1179.0669 1778.72,1216.2969 C1815.55,1274.9969 1764.81,1785.6869 1808.72,1839.2969 C1842.19,1880.1569 1985.3367,1903.4801 2069.8367,1914.0801 " fill="none" id="PHP-to-OO" style="stroke:#181818;stroke-width:1.0;"/><polygon fill="#181818" points="2075.79,1914.8269,2067.3579,1909.7378,2070.8289,1914.2045,2066.3621,1917.6756,2075.79,1914.8269" style="stroke:#181818;stroke-width:1.0;"/><text fill="#000000" font-family="sans-serif" font-size="13" lengthAdjust="spacing" textLength="136" x="1830.22" y="1820.3638">open/edit documents</text><text fill="#000000" font-family="sans-serif" font-size="13" lengthAdjust="spacing" textLength="61" x="1830.22" y="1835.4966">(optional)</text></g><!--link PHP to LTI--><g id="link_PHP_LTI"><path d="M1637.7594,1128.4145 C1638.0012,1128.4817 1638.2439,1128.5495 1638.4874,1128.6177 C1639.4614,1128.8906 1640.4491,1129.1712 1641.4496,1129.4594 C1643.4508,1130.036 1645.5034,1130.6435 1647.6014,1131.283 C1655.9936,1133.8411 1665.1119,1136.9113 1674.5625,1140.5594 C1712.365,1155.1519 1755.485,1178.9919 1778.72,1216.2969 C1821.28,1284.6369 1756.83,1878.7369 1808.72,1940.2969 C1824.37,1958.8569 1953.5648,1982.2026 2044.8648,1996.7526 " fill="none" id="PHP-to-LTI" style="stroke:#181818;stroke-width:1.0;"/><polygon fill="#181818" points="2050.79,1997.6969,2042.5317,1992.3303,2045.8523,1996.91,2041.2726,2000.2306,2050.79,1997.6969" style="stroke:#181818;stroke-width:1.0;"/><text fill="#000000" font-family="sans-serif" font-size="13" lengthAdjust="spacing" textLength="177" x="1809.72" y="1921.3638">launches + grade passback</text><text fill="#000000" font-family="sans-serif" font-size="13" lengthAdjust="spacing" textLength="61" x="1809.72" y="1936.4966">(optional)</text></g><!--link BBB to WEB--><g id="link_BBB_WEB"><path d="M2048.44,2107.3969 C1978.8,2109.7569 1880.9,2103.3069 1808.72,2059.2969 C1618.24,1943.1569 1476.2125,1737.1269 1381.0863,1557.8269 C1369.1955,1535.4144 1358.0375,1513.4195 1347.6094,1492.0701 C1342.3953,1481.3954 1337.3637,1470.8821 1332.5141,1460.5585 C1331.3017,1457.9777 1332.6319,1460.8486 1331.4423,1458.2919 " fill="none" id="BBB-to-WEB" style="stroke:#181818;stroke-width:1.0;"/><polygon fill="#181818" points="1328.9111,1452.8519,1329.0813,1462.6993,1331.0204,1457.3852,1336.3345,1459.3244,1328.9111,1452.8519" style="stroke:#181818;stroke-width:1.0;"/><text fill="#000000" font-family="sans-serif" font-size="13" lengthAdjust="spacing" textLength="120" x="1496.72" y="1601.6438">Webhook callbacks</text><text fill="#000000" font-family="sans-serif" font-size="13" lengthAdjust="spacing" textLength="164" x="1496.72" y="1616.7766">(/plugin/Bbb/webhook.php</text><text fill="#000000" font-family="sans-serif" font-size="13" lengthAdjust="spacing" textLength="209" x="1496.72" y="1631.9094">or /api/videoconference/callback)</text></g><rect fill="none" height="107.7813" id="_legend" rx="7.5" ry="7.5" style="stroke:#000000;stroke-width:1.0;" width="437" x="1893.22" y="2180.1791"/><text fill="#000000" font-family="sans-serif" font-size="14" lengthAdjust="spacing" textLength="134" x="1898.22" y="2198.1742">Deployment Notes:</text><text fill="#000000" font-family="sans-serif" font-size="14" lengthAdjust="spacing" textLength="188" x="1898.22" y="2214.4711">- Web root MUST be /public</text><text fill="#000000" font-family="sans-serif" font-size="14" lengthAdjust="spacing" textLength="373" x="1898.22" y="2230.7679">- Frontend assets built by Yarn/Encore -&gt; public/build/</text><text fill="#000000" font-family="sans-serif" font-size="14" lengthAdjust="spacing" textLength="267" x="1898.22" y="2247.0648">- Database: MariaDB/MySQL (common)</text><text fill="#000000" font-family="sans-serif" font-size="14" lengthAdjust="spacing" textLength="391" x="1898.22" y="2263.3617">- Storage: local (uploads) or cloud via Flysystem adapters</text><text fill="#000000" font-family="sans-serif" font-size="14" lengthAdjust="spacing" textLength="427" x="1898.22" y="2279.6586">- JWT keys stored under config/jwt (generated via bin/console)</text><!--SRC=[ZLVTRjlC4RtNKmpSYqhv4HCxI59T5D1lh42oL56nsmy6WXMvaZOcT_bnbxRr5G7w47t2FadFB4b9hXMZreNjvSpmpEoPCoEdN2AflnMfIWnDfY6Tjz_HV_xrRnh8B36xL6f70VMDTa9fcTD0YKqkKchEjpkh8f7GjP8FhKRZp_Jsn0-5ReSNd7hKi7TAPuA3hKHqjybDeUE-IKnEVrhxdoCBknMnUL1wGskHM7dq99PhKIHkAHzTDr4RxH4dSksER2AJPaRZGOacbv4JUfD8HZqLTvAqYQN5kOZ5AZcEpW_edmsYHOakvngyFyT1p-Inp2kyvpt-yEd_PZBwFEgEHesVHp7th___0_ziD3WbSePojTawYXL7KKR_il3zH74bJbRUPtLMMGpalOha6GbB_SbuUBK4w4-ZqUYJXoTofzOYSdJMoys3bVcjRlQtkKbbC0A6jNaCf8lQBU_VMynkmk62uVu2rJ3UIF3fIhe7az-THXSbfeZfRAoTH5MOVfFkbOz_DMHmv_ofSXXSXVIQbfEGbZ9FbHPS4q2SPVo7I3gqaFSojvBckNdS1JVTKGbrEFWoH2oaEVpe4zrp145D2h9tQEjSPZj1aAIsBHz5cYMoBUF2-mzcq-xuweLCBurrpDVcm4Htk5lSvlMqzT9zr1wXp06PcjTJfDuJkQIfT29ftUflgqAxWiu_jDzzeCaof6O5gypfSXQYFiFFem-Z4N92KclmZQjKGkXpYYY5TM0fDS4Waw9TOXcN_eF-KsygwN_s85Utkfk9Q2k3gutIZzxwPjY3UNVqtfkJ_pagei_2TcxrMmgoOfMe29fnEGSaQ4dB7wyAbSJK11odelB8RMMAJcpwttYBbSxw9udSY6XNXmhuWe9NDOxmkby1ED2rClJl2C28eOuCIcaAbnMkekktyMJW7NyUfvjjirlDK3-tprzJSpIV0a6uIzT6xsY16r1fsIviyq85QbNjPeZNh0DyR7y0OoTbEgjSeI5ADDtv_7cCxdnCyqIujSbJ10b4fe9NjVtun3idOreQarWOhr2Yo6Xhm0_ycoe8DtU5VKCHt-KR-l7Ww4xkRAlk_cTLl0SzJCxrgyYJGt2pok5wU3MOBOuB60idLW8KEuj1cQd8bHZqWkak_DkaP5Ylxj-Jb06eL31d_5MznhE2MzUnA7D6O0Dt21B8fSMpI7v_XMI-LnKPzCBdjscToSL6tkg9uMcrLWYriqwctYLSpXPThmIVMFJsg8ug87pwLSKIms-tqbekP5M6xkAaLybbxynYRjkHXQzAWQRoN5uEfyFmcNE1oIjY6zH9SkgZP5V21WJE0vCgWpwMSRxD9xFku4JokOoLFPB3qdmn78n3BtxlHXUdBc9HklKvPvPVo0T-JP6rr1i_0jIQfEPhYOz2Vg_xy6UZmg6DazN4Ccle2ux6cbA1FeZt-mMASYmk97JChVKMZGVxLEmeBpGPJIWeMHOqAEE3SblqCfNIreRXSgiivcAvdjWjXXK995KjBkeF6UFUN94HUecY1DnqE_O3mptEbwRM8uyYL9r53SFIlZYudbcN0-VlFBl-mfzINIlhsUe79Zdsf8gcpUvDIE45wjtzeq0Nz1ApmZzV-c7hw2BfNWdQSwAyWrdlwo5iJsrwII5xXND-85whM1eknrhcKaVeeae3Uxs3qs_6f2_O_ZQRJO-0wsGtMw-H85nm3GJIkBtjR7Qmd2p7zBvzuOM9v_0zukVU2ayEPk5qEMUQ2NMmEX9EFgy9ZzaxUU6-iAxgSZtwnKrLYmeU_jKl5HswN2xd8MJbzq9Q1-vVBgUJe1-6mTSmOALbAxRsUqF7Rnol2OiUPzpmX_oKPs8PA_010R_UFpBUFmWscAPObzcIFNY6T6WahEj_6IDxTeCN7yj76HMSH6jlxISMxAqVhbHEpcfCtkhWoSnxjVSgPURWTZnSuLNfrC6-aXCuOEVMfHPLcWHeUrL25WoJFGQSDaJURpikHyFHRC5ZSzcVqyN5kuzxorfmEtxR3XxGXU0Fo-KRgjwnjmMXkJPxvQiqZpbn4VZk2CgsW1enMzK6H_7UdKdYaqQ3OwweX1t1CRvF_uLbtqnvETHzVRXXzo5AfUoKypA0yju584WX_Iih0UH8lAlMqtNlZDQ2Qogbt-eYvEjayCCej2Cui3NcpY9mal2tdxqJzzYH5w02jQdb-r2Q6OnC9dN0NOTxYWelfIUDkVywb8X28miBtW8gfaC61l2xd_WWcNw52MjOZRFLu6GE3Byfp_Vm-Rr1bXJGxw2tMWMLNzklKf1RlxTmGvkzgiYWTlxrbqTiINnv9riuAP_vuG8DEVgwUWKnjnsSlMMSQ5BZQFeDg_5ArlkZVpZYJPHZb9r0t3QELZlwXyXrKEsBIFb9LtdFGRNcTEZ9YaDDNgYvNzceKlHEDR2R5RjRvCSFAzuJ3Q_PRRtprvkbtyo8rnTCBdn7nEfLaZpWjQs9x2KO9yimnxjU0pcLrVal]--></g></svg>